SplineFontDB: 3.2
FontName: WpfLayeredDrawing-BoldItalic
FullName: WpfLayeredDrawing Aktiv Bold Italic
FamilyName: WpfLayeredDrawing Aktiv
Weight: Bold
Copyright: 
Version: 3.010
ItalicAngle: -12
UnderlinePosition: -325
UnderlineWidth: 96
Ascent: 1588
Descent: 460
InvalidEm: 0
sfntRevision: 0x0003028f
LayerCount: 2
Layer: 0 1 "Back" 1
Layer: 1 1 "Fore" 0
XUID: [1021 49 -1730677525 24431]
StyleMap: 0x0021
FSType: 8
OS2Version: 4
OS2_WeightWidthSlopeOnly: 0
OS2_UseTypoMetrics: 0
CreationTime: 1548094070
ModificationTime: 1637956586
PfmFamily: 17
TTFWeight: 700
TTFWidth: 5
LineGap: 409
VLineGap: 0
Panose: 2 11 8 4 2 2 2 2 2 4
OS2TypoAscent: 1588
OS2TypoAOffset: 0
OS2TypoDescent: -460
OS2TypoDOffset: 0
OS2TypoLinegap: 409
OS2WinAscent: 1806
OS2WinAOffset: 0
OS2WinDescent: 428
OS2WinDOffset: 0
HheadAscent: 1588
HheadAOffset: 0
HheadDescent: -460
HheadDOffset: 0
OS2SubXSize: 1400
OS2SubYSize: 1300
OS2SubXOff: 0
OS2SubYOff: 450
OS2SupXSize: 1400
OS2SupYSize: 1300
OS2SupXOff: 0
OS2SupYOff: 1540
OS2StrikeYSize: 153
OS2StrikeYPos: 557
OS2CapHeight: 1324
OS2XHeight: 980
OS2FamilyClass: 2053
OS2Vendor: 'DAMA'
OS2CodePages: 20000093.00000000
OS2UnicodeRanges: a00000ef.4000204b.00000000.00000000
Lookup: 1 0 0 "'locl' Localized Forms in Latin lookup 0" { "'locl' Localized Forms in Latin lookup 0 subtable"  } ['locl' ('latn' <'AZE ' 'CRT ' 'TRK ' > ) ]
Lookup: 4 0 0 "'dlig' Discretionary Ligatures in Latin lookup 1" { "'dlig' Discretionary Ligatures in Latin lookup 1 subtable"  } ['dlig' ('DFLT' <'dflt' > 'latn' <'AZE ' 'CRT ' 'NLD ' 'TRK ' 'dflt' > ) ]
Lookup: 4 0 0 "'dlig' Discretionary Ligatures in Latin lookup 2" { "'dlig' Discretionary Ligatures in Latin lookup 2 subtable"  } ['dlig' ('DFLT' <'dflt' > 'latn' <'AZE ' 'CRT ' 'NLD ' 'TRK ' 'dflt' > ) ]
Lookup: 1 0 0 "'ordn' Ordinals in Latin lookup 3" { "'ordn' Ordinals in Latin lookup 3 subtable"  } ['ordn' ('DFLT' <'dflt' > 'latn' <'AZE ' 'CRT ' 'NLD ' 'TRK ' 'dflt' > ) ]

StartChar: .notdef
Encoding: 65536 -1 0
Width: 410
Flags: W
LayerCount: 2
Fore
SplineSet
85 0 m 1,0,-1
 85 1406 l 1,1,-1
 325 1406 l 1,2,-1
 325 0 l 1,3,-1
 85 0 l 1,0,-1
EndSplineSet
EndChar

StartChar: period
Encoding: 46 46 4
Width: 520
Flags: W
LayerCount: 2
Fore
SplineSet
12 0 m 1,0,-1
 80 318 l 1,1,-1
 365 318 l 1,2,-1
 297 0 l 1,3,-1
 12 0 l 1,0,-1
EndSplineSet
EndChar

StartChar: comma
Encoding: 44 44 6
Width: 520
Flags: W
LayerCount: 2
Fore
SplineSet
-63 -176 m 1,0,-1
 109 318 l 1,1,-1
 392 318 l 1,2,-1
 165 -176 l 1,3,-1
 -63 -176 l 1,0,-1
EndSplineSet
EndChar

StartChar: question
Encoding: 63 63 8
Width: 975
Flags: W
LayerCount: 2
Fore
SplineSet
335 410 m 1,0,-1
 341 441 l 2,1,2
 358 528 358 528 389 584.5 c 128,-1,3
 420 641 420 641 472.5 689 c 128,-1,4
 525 737 525 737 606 796 c 0,5,6
 676 847 676 847 716 888.5 c 128,-1,7
 756 930 756 930 756 997 c 0,8,9
 756 1055 756 1055 716 1087.5 c 128,-1,10
 676 1120 676 1120 603 1120 c 0,11,12
 521 1120 521 1120 466.5 1082 c 128,-1,13
 412 1044 412 1044 380 949 c 1,14,-1
 121 977 l 1,15,16
 163 1158 163 1158 288.5 1259.5 c 128,-1,17
 414 1361 414 1361 632 1361 c 0,18,19
 828 1361 828 1361 938.5 1267.5 c 128,-1,20
 1049 1174 1049 1174 1049 1031 c 0,21,22
 1049 909 1049 909 987 824.5 c 128,-1,23
 925 740 925 740 800 651 c 0,24,25
 732 603 732 603 690 572.5 c 128,-1,26
 648 542 648 542 626.5 511.5 c 128,-1,27
 605 481 605 481 595 431 c 2,28,-1
 591 410 l 1,29,-1
 335 410 l 1,0,-1
241 0 m 1,30,-1
 302 287 l 1,31,-1
 580 287 l 1,32,-1
 519 0 l 1,33,-1
 241 0 l 1,30,-1
EndSplineSet
EndChar

StartChar: exclam
Encoding: 33 33 9
Width: 792
Flags: W
LayerCount: 2
Fore
SplineSet
252 409 m 1,0,-1
 423 1340 l 1,1,-1
 733 1340 l 1,2,-1
 507 409 l 1,3,-1
 252 409 l 1,0,-1
158 0 m 1,4,-1
 219 287 l 1,5,-1
 497 287 l 1,6,-1
 436 0 l 1,7,-1
 158 0 l 1,4,-1
EndSplineSet
EndChar

StartChar: questiondown
Encoding: 191 191 10
Width: 847
Flags: W
LayerCount: 2
Fore
SplineSet
691 980 m 1,0,-1
 630 693 l 1,1,-1
 352 693 l 1,2,-1
 413 980 l 1,3,-1
 691 980 l 1,0,-1
598 570 m 1,4,-1
 592 539 l 2,5,6
 575 452 575 452 544 395.5 c 128,-1,7
 513 339 513 339 461 291.5 c 128,-1,8
 409 244 409 244 327 184 c 0,9,10
 257 133 257 133 217 92 c 128,-1,11
 177 51 177 51 177 -17 c 0,12,13
 177 -75 177 -75 217 -107.5 c 128,-1,14
 257 -140 257 -140 330 -140 c 0,15,16
 412 -140 412 -140 467 -102 c 128,-1,17
 522 -64 522 -64 553 31 c 1,18,-1
 812 3 l 1,19,20
 770 -178 770 -178 644.5 -279.5 c 128,-1,21
 519 -381 519 -381 301 -381 c 0,22,23
 105 -381 105 -381 -5.5 -287.5 c 128,-1,24
 -116 -194 -116 -194 -116 -51 c 0,25,26
 -116 71 -116 71 -53.5 156 c 128,-1,27
 9 241 9 241 133 329 c 0,28,29
 202 378 202 378 243.5 408 c 128,-1,30
 285 438 285 438 307 469 c 128,-1,31
 329 500 329 500 338 549 c 2,32,-1
 342 570 l 1,33,-1
 598 570 l 1,4,-1
EndSplineSet
EndChar

StartChar: exclamdown
Encoding: 161 161 11
Width: 792
Flags: W
LayerCount: 2
Fore
SplineSet
295 693 m 1,0,-1
 356 980 l 1,1,-1
 634 980 l 1,2,-1
 573 693 l 1,3,-1
 295 693 l 1,0,-1
59 -360 m 1,4,-1
 285 571 l 1,5,-1
 540 571 l 1,6,-1
 369 -360 l 1,7,-1
 59 -360 l 1,4,-1
EndSplineSet
EndChar

StartChar: quotesingle
Encoding: 39 39 12
Width: 452
Flags: W
LayerCount: 2
Fore
SplineSet
177 817 m 1,0,-1
 275 1335 l 1,1,-1
 539 1335 l 1,2,-1
 414 817 l 1,3,-1
 177 817 l 1,0,-1
EndSplineSet
EndChar

StartChar: zero
Encoding: 48 48 16
Width: 1200
Flags: W
LayerCount: 2
Fore
SplineSet
533 -34 m 0,0,1
 389 -34 389 -34 297 26 c 128,-1,2
 205 86 205 86 159.5 191 c 128,-1,3
 114 296 114 296 109 432.5 c 128,-1,4
 104 569 104 569 134 722 c 0,5,6
 167 890 167 890 244.5 1028.5 c 128,-1,7
 322 1167 322 1167 444.5 1249 c 128,-1,8
 567 1331 567 1331 735 1331 c 0,9,10
 879 1331 879 1331 971 1271 c 128,-1,11
 1063 1211 1063 1211 1108.5 1106 c 128,-1,12
 1154 1001 1154 1001 1159 864.5 c 128,-1,13
 1164 728 1164 728 1134 575 c 0,14,15
 1101 407 1101 407 1023.5 269 c 128,-1,16
 946 131 946 131 824 48.5 c 128,-1,17
 702 -34 702 -34 533 -34 c 0,0,1
551 221 m 0,18,19
 665 221 665 221 735.5 333 c 128,-1,20
 806 445 806 445 843 641 c 0,21,22
 864 753 864 753 865.5 852.5 c 128,-1,23
 867 952 867 952 834 1014 c 128,-1,24
 801 1076 801 1076 717 1076 c 0,25,26
 603 1076 603 1076 532.5 964.5 c 128,-1,27
 462 853 462 853 425 656 c 0,28,29
 404 544 404 544 402.5 444.5 c 128,-1,30
 401 345 401 345 434.5 283 c 128,-1,31
 468 221 468 221 551 221 c 0,18,19
EndSplineSet
Substitution2: "'zero' Slashed Zero in Latin lookup 6 subtable" zero.zero
EndChar

StartChar: one
Encoding: 49 49 17
Width: 1200
Flags: W
LayerCount: 2
Fore
SplineSet
462 0 m 1,0,-1
 668 966 l 1,1,-1
 399 828 l 1,2,-1
 287 1038 l 1,3,-1
 766 1295 l 1,4,-1
 1033 1295 l 1,5,-1
 757 0 l 1,6,-1
 462 0 l 1,0,-1
EndSplineSet
Substitution2: "'sups' Superscript in Latin lookup 4 subtable" uni00B9
EndChar

StartChar: two
Encoding: 50 50 18
Width: 1200
Flags: W
LayerCount: 2
Fore
SplineSet
21 0 m 1,0,-1
 66 219 l 1,1,2
 162 287 162 287 259 355 c 128,-1,3
 356 423 356 423 452 491 c 0,4,5
 614 607 614 607 700 682 c 128,-1,6
 786 757 786 757 817.5 813 c 128,-1,7
 849 869 849 869 849 928 c 0,8,9
 849 1011 849 1011 804.5 1046 c 128,-1,10
 760 1081 760 1081 686 1081 c 0,11,12
 604 1081 604 1081 547 1039.5 c 128,-1,13
 490 998 490 998 458 902 c 1,14,-1
 187 932 l 1,15,16
 228 1113 228 1113 362.5 1222 c 128,-1,17
 497 1331 497 1331 709 1331 c 0,18,19
 915 1331 915 1331 1030 1229.5 c 128,-1,20
 1145 1128 1145 1128 1145 964 c 0,21,22
 1145 857 1145 857 1095 767 c 128,-1,23
 1045 677 1045 677 954 593 c 128,-1,24
 863 509 863 509 739 418 c 0,25,26
 687 380 687 380 624 335.5 c 128,-1,27
 561 291 561 291 497 245 c 1,28,-1
 1023 245 l 1,29,-1
 950 0 l 1,30,-1
 21 0 l 1,0,-1
EndSplineSet
Substitution2: "'sups' Superscript in Latin lookup 4 subtable" uni00B2
EndChar

StartChar: three
Encoding: 51 51 19
Width: 1200
Flags: W
LayerCount: 2
Fore
SplineSet
535 -34 m 0,0,1
 390 -34 390 -34 280 21 c 128,-1,2
 170 76 170 76 111 176 c 128,-1,3
 52 276 52 276 61 412 c 1,4,-1
 337 412 l 1,5,6
 336 311 336 311 389.5 260 c 128,-1,7
 443 209 443 209 540 209 c 0,8,9
 635 209 635 209 691.5 257 c 128,-1,10
 748 305 748 305 748 403 c 0,11,12
 748 475 748 475 705 514.5 c 128,-1,13
 662 554 662 554 579 554 c 2,14,-1
 459 554 l 1,15,-1
 510 780 l 1,16,-1
 617 780 l 2,17,18
 714 780 714 780 775 823 c 128,-1,19
 836 866 836 866 836 954 c 0,20,21
 836 1013 836 1013 793.5 1048.5 c 128,-1,22
 751 1084 751 1084 664 1084 c 0,23,24
 574 1084 574 1084 521 1045.5 c 128,-1,25
 468 1007 468 1007 438 918 c 1,26,-1
 176 947 l 1,27,28
 211 1115 211 1115 340 1223 c 128,-1,29
 469 1331 469 1331 696 1331 c 0,30,31
 828 1331 828 1331 923.5 1288 c 128,-1,32
 1019 1245 1019 1245 1071 1170 c 128,-1,33
 1123 1095 1123 1095 1123 999 c 0,34,35
 1123 878 1123 878 1057 793 c 128,-1,36
 991 708 991 708 879 667 c 1,37,38
 964 626 964 626 1003 550.5 c 128,-1,39
 1042 475 1042 475 1042 392 c 0,40,41
 1042 265 1042 265 980 169 c 128,-1,42
 918 73 918 73 804 19.5 c 128,-1,43
 690 -34 690 -34 535 -34 c 0,0,1
EndSplineSet
Substitution2: "'sups' Superscript in Latin lookup 4 subtable" uni00B3
EndChar

StartChar: four
Encoding: 52 52 20
Width: 1200
Flags: W
LayerCount: 2
Fore
SplineSet
591 0 m 1,0,-1
 649 272 l 1,1,-1
 53 272 l 1,2,-1
 104 509 l 1,3,-1
 840 1295 l 1,4,-1
 1136 1295 l 1,5,-1
 965 493 l 1,6,-1
 1119 493 l 1,7,-1
 1048 272 l 1,8,-1
 918 272 l 1,9,-1
 860 0 l 1,10,-1
 591 0 l 1,0,-1
361 493 m 1,11,-1
 696 493 l 1,12,-1
 794 954 l 1,13,-1
 361 493 l 1,11,-1
EndSplineSet
EndChar

StartChar: five
Encoding: 53 53 21
Width: 1200
Flags: W
LayerCount: 2
Fore
SplineSet
558 -34 m 0,0,1
 355 -34 355 -34 233 64.5 c 128,-1,2
 111 163 111 163 109 365 c 1,3,-1
 383 365 l 1,4,5
 387 284 387 284 430.5 245 c 128,-1,6
 474 206 474 206 565 206 c 0,7,8
 667 206 667 206 728 272.5 c 128,-1,9
 789 339 789 339 789 455 c 0,10,11
 789 530 789 530 749.5 576 c 128,-1,12
 710 622 710 622 626 622 c 0,13,14
 562 622 562 622 513.5 601.5 c 128,-1,15
 465 581 465 581 420 543 c 1,16,-1
 176 543 l 1,17,-1
 394 1295 l 1,18,-1
 1158 1295 l 1,19,-1
 1107 1051 l 1,20,-1
 569 1051 l 1,21,-1
 494 793 l 1,22,23
 540 819 540 819 592.5 833 c 128,-1,24
 645 847 645 847 715 847 c 0,25,26
 827 847 827 847 908 797.5 c 128,-1,27
 989 748 989 748 1033 663 c 128,-1,28
 1077 578 1077 578 1077 471 c 0,29,30
 1077 326 1077 326 1015 211.5 c 128,-1,31
 953 97 953 97 837 31.5 c 128,-1,32
 721 -34 721 -34 558 -34 c 0,0,1
EndSplineSet
EndChar

StartChar: six
Encoding: 54 54 22
Width: 1200
Flags: W
LayerCount: 2
Fore
SplineSet
570 -34 m 0,0,1
 353 -34 353 -34 238.5 96.5 c 128,-1,2
 124 227 124 227 124 448 c 0,3,4
 124 562 124 562 148 685 c 128,-1,5
 172 808 172 808 221 923 c 128,-1,6
 270 1038 270 1038 346 1130 c 128,-1,7
 422 1222 422 1222 525.5 1276.5 c 128,-1,8
 629 1331 629 1331 762 1331 c 0,9,10
 941 1331 941 1331 1046 1243.5 c 128,-1,11
 1151 1156 1151 1156 1168 992 c 1,12,-1
 906 961 l 1,13,14
 893 1036 893 1036 854.5 1064 c 128,-1,15
 816 1092 816 1092 746 1092 c 0,16,17
 645 1092 645 1092 563.5 1002 c 128,-1,18
 482 912 482 912 451 756 c 2,19,-1
 443 713 l 1,20,21
 498 779 498 779 570.5 807.5 c 128,-1,22
 643 836 643 836 719 836 c 0,23,24
 833 836 833 836 915 786.5 c 128,-1,25
 997 737 997 737 1041 652 c 128,-1,26
 1085 567 1085 567 1085 461 c 0,27,28
 1085 312 1085 312 1020.5 200.5 c 128,-1,29
 956 89 956 89 840.5 27.5 c 128,-1,30
 725 -34 725 -34 570 -34 c 0,0,1
580 197 m 0,31,32
 685 197 685 197 746.5 261 c 128,-1,33
 808 325 808 325 808 445 c 0,34,35
 808 521 808 521 763.5 569.5 c 128,-1,36
 719 618 719 618 635 618 c 0,37,38
 540 618 540 618 466.5 554.5 c 128,-1,39
 393 491 393 491 393 381 c 0,40,41
 393 304 393 304 440 250.5 c 128,-1,42
 487 197 487 197 580 197 c 0,31,32
EndSplineSet
EndChar

StartChar: seven
Encoding: 55 55 23
Width: 1200
Flags: W
LayerCount: 2
Fore
SplineSet
220 0 m 1,0,1
 369 300 369 300 524.5 555.5 c 128,-1,2
 680 811 680 811 854 1041 c 1,3,-1
 243 1041 l 1,4,-1
 295 1295 l 1,5,-1
 1241 1295 l 1,6,-1
 1196 1081 l 1,7,8
 1002 827 1002 827 841.5 560.5 c 128,-1,9
 681 294 681 294 540 0 c 1,10,-1
 220 0 l 1,0,1
EndSplineSet
EndChar

StartChar: eight
Encoding: 56 56 24
Width: 1200
Flags: W
LayerCount: 2
Fore
SplineSet
530 -34 m 0,0,1
 302 -34 302 -34 180 64.5 c 128,-1,2
 58 163 58 163 58 314 c 0,3,4
 58 415 58 415 101 488.5 c 128,-1,5
 144 562 144 562 211.5 609 c 128,-1,6
 279 656 279 656 353 680 c 1,7,8
 296 711 296 711 256 777.5 c 128,-1,9
 216 844 216 844 216 927 c 0,10,11
 216 1044 216 1044 277.5 1135 c 128,-1,12
 339 1226 339 1226 453.5 1278.5 c 128,-1,13
 568 1331 568 1331 727 1331 c 0,14,15
 933 1331 933 1331 1048.5 1234.5 c 128,-1,16
 1164 1138 1164 1138 1164 992 c 0,17,18
 1164 862 1164 862 1091 779 c 128,-1,19
 1018 696 1018 696 912 656 c 1,20,21
 980 626 980 626 1030.5 554 c 128,-1,22
 1081 482 1081 482 1081 385 c 0,23,24
 1081 252 1081 252 1010.5 158.5 c 128,-1,25
 940 65 940 65 816 15.5 c 128,-1,26
 692 -34 692 -34 530 -34 c 0,0,1
661 771 m 0,27,28
 783 771 783 771 839.5 826 c 128,-1,29
 896 881 896 881 896 962 c 0,30,31
 896 1022 896 1022 851 1063 c 128,-1,32
 806 1104 806 1104 717 1104 c 0,33,34
 596 1104 596 1104 539 1049 c 128,-1,35
 482 994 482 994 482 913 c 0,36,37
 482 853 482 853 527.5 812 c 128,-1,38
 573 771 573 771 661 771 c 0,27,28
543 197 m 0,39,40
 672 197 672 197 736.5 252 c 128,-1,41
 801 307 801 307 801 395 c 0,42,43
 801 460 801 460 751 504.5 c 128,-1,44
 701 549 701 549 597 549 c 0,45,46
 468 549 468 549 403.5 494.5 c 128,-1,47
 339 440 339 440 339 351 c 0,48,49
 339 287 339 287 389.5 242 c 128,-1,50
 440 197 440 197 543 197 c 0,39,40
EndSplineSet
EndChar

StartChar: nine
Encoding: 57 57 25
Width: 1200
Flags: W
LayerCount: 2
Fore
SplineSet
523 -34 m 0,0,1
 337 -34 337 -34 226.5 59.5 c 128,-1,2
 116 153 116 153 105 328 c 1,3,-1
 371 328 l 1,4,5
 385 258 385 258 428.5 231.5 c 128,-1,6
 472 205 472 205 539 205 c 0,7,8
 640 205 640 205 710.5 287.5 c 128,-1,9
 781 370 781 370 814 541 c 2,10,-1
 822 584 l 1,11,12
 767 518 767 518 694.5 489.5 c 128,-1,13
 622 461 622 461 546 461 c 0,14,15
 433 461 433 461 350.5 510.5 c 128,-1,16
 268 560 268 560 224 645 c 128,-1,17
 180 730 180 730 180 836 c 0,18,19
 180 985 180 985 244.5 1096.5 c 128,-1,20
 309 1208 309 1208 425 1269.5 c 128,-1,21
 541 1331 541 1331 695 1331 c 0,22,23
 913 1331 913 1331 1027 1200.5 c 128,-1,24
 1141 1070 1141 1070 1141 849 c 0,25,26
 1141 695 1141 695 1106.5 539 c 128,-1,27
 1072 383 1072 383 998 253.5 c 128,-1,28
 924 124 924 124 806.5 45 c 128,-1,29
 689 -34 689 -34 523 -34 c 0,0,1
630 679 m 0,30,31
 725 679 725 679 798.5 743 c 128,-1,32
 872 807 872 807 872 916 c 0,33,34
 872 993 872 993 825 1046.5 c 128,-1,35
 778 1100 778 1100 685 1100 c 0,36,37
 580 1100 580 1100 518.5 1036 c 128,-1,38
 457 972 457 972 457 852 c 0,39,40
 457 776 457 776 501.5 727.5 c 128,-1,41
 546 679 546 679 630 679 c 0,30,31
EndSplineSet
EndChar

StartChar: zero.zero
Encoding: 65537 -1 26
Width: 1200
Flags: W
LayerCount: 2
Fore
SplineSet
533 -34 m 0,0,1
 389 -34 389 -34 297 26 c 128,-1,2
 205 86 205 86 159.5 191 c 128,-1,3
 114 296 114 296 109 432.5 c 128,-1,4
 104 569 104 569 134 722 c 0,5,6
 167 890 167 890 244.5 1028.5 c 128,-1,7
 322 1167 322 1167 444.5 1249 c 128,-1,8
 567 1331 567 1331 735 1331 c 0,9,10
 879 1331 879 1331 971 1271 c 128,-1,11
 1063 1211 1063 1211 1108.5 1106 c 128,-1,12
 1154 1001 1154 1001 1159 864.5 c 128,-1,13
 1164 728 1164 728 1134 575 c 0,14,15
 1101 407 1101 407 1023.5 269 c 128,-1,16
 946 131 946 131 824 48.5 c 128,-1,17
 702 -34 702 -34 533 -34 c 0,0,1
547 201 m 0,18,19
 666 201 666 201 740.5 318 c 128,-1,20
 815 435 815 435 853 641 c 0,21,22
 875 758 875 758 876.5 862 c 128,-1,23
 878 966 878 966 843.5 1031 c 128,-1,24
 809 1096 809 1096 721 1096 c 0,25,26
 602 1096 602 1096 527.5 979 c 128,-1,27
 453 862 453 862 415 656 c 0,28,29
 393 539 393 539 391.5 435 c 128,-1,30
 390 331 390 331 425 266 c 128,-1,31
 460 201 460 201 547 201 c 0,18,19
498 511 m 1,32,-1
 554 777 l 1,33,-1
 770 777 l 1,34,-1
 715 511 l 1,35,-1
 498 511 l 1,32,-1
EndSplineSet
EndChar

StartChar: uni2080
Encoding: 8320 8320 27
Width: 840
Flags: W
LayerCount: 2
Fore
SplineSet
283 -258 m 0,0,1
 156 -258 156 -258 84.5 -197.5 c 128,-1,2
 13 -137 13 -137 -8.5 -39.5 c 128,-1,3
 -30 58 -30 58 -8 168 c 0,4,5
 14 274 14 274 69 359.5 c 128,-1,6
 124 445 124 445 209.5 496 c 128,-1,7
 295 547 295 547 408 547 c 0,8,9
 535 547 535 547 606.5 486.5 c 128,-1,10
 678 426 678 426 700 328.5 c 128,-1,11
 722 231 722 231 699 121 c 0,12,13
 678 15 678 15 622.5 -70.5 c 128,-1,14
 567 -156 567 -156 481.5 -207 c 128,-1,15
 396 -258 396 -258 283 -258 c 0,0,1
299 -58 m 0,16,17
 368 -58 368 -58 410 -1 c 128,-1,18
 452 56 452 56 469 144 c 0,19,20
 478 187 478 187 479.5 234 c 128,-1,21
 481 281 481 281 463 314 c 128,-1,22
 445 347 445 347 392 347 c 0,23,24
 323 347 323 347 281 290.5 c 128,-1,25
 239 234 239 234 222 145 c 0,26,27
 214 102 214 102 212 55 c 128,-1,28
 210 8 210 8 228.5 -25 c 128,-1,29
 247 -58 247 -58 299 -58 c 0,16,17
EndSplineSet
EndChar

StartChar: uni2082
Encoding: 8322 8322 28
Width: 780
Flags: W
LayerCount: 2
Fore
SplineSet
-34 -229 m 1,0,-1
 -1 -72 l 1,1,2
 122 2 122 2 248 88 c 0,3,4
 349 158 349 158 396 201 c 128,-1,5
 443 244 443 244 443 304 c 0,6,7
 443 334 443 334 424 355.5 c 128,-1,8
 405 377 405 377 361 377 c 0,9,10
 318 377 318 377 290 354.5 c 128,-1,11
 262 332 262 332 244 279 c 1,12,-1
 49 301 l 1,13,14
 77 414 77 414 158.5 483 c 128,-1,15
 240 552 240 552 382 552 c 0,16,17
 504 552 504 552 580 490.5 c 128,-1,18
 656 429 656 429 656 330 c 0,19,20
 656 230 656 230 594 155 c 128,-1,21
 532 80 532 80 424 7 c 0,22,23
 399 -10 399 -10 374.5 -24 c 128,-1,24
 350 -38 350 -38 325 -52 c 1,25,-1
 594 -52 l 1,26,-1
 540 -229 l 1,27,-1
 -34 -229 l 1,0,-1
EndSplineSet
EndChar

StartChar: uni2084
Encoding: 8324 8324 29
Width: 780
Flags: W
LayerCount: 2
Fore
SplineSet
279 -227 m 1,0,-1
 311 -78 l 1,1,-1
 -55 -78 l 1,2,-1
 -23 75 l 1,3,-1
 421 531 l 1,4,-1
 637 531 l 1,5,-1
 541 82 l 1,6,-1
 637 82 l 1,7,-1
 588 -78 l 1,8,-1
 507 -78 l 1,9,-1
 475 -227 l 1,10,-1
 279 -227 l 1,0,-1
171 82 m 1,11,-1
 345 82 l 1,12,-1
 393 307 l 1,13,-1
 171 82 l 1,11,-1
EndSplineSet
EndChar

StartChar: uni2070
Encoding: 8304 8304 30
Width: 840
Flags: W
LayerCount: 2
Fore
SplineSet
499 749 m 0,0,1
 372 749 372 749 300.5 809.5 c 128,-1,2
 229 870 229 870 207.5 967.5 c 128,-1,3
 186 1065 186 1065 208 1175 c 0,4,5
 230 1281 230 1281 285 1366.5 c 128,-1,6
 340 1452 340 1452 425.5 1503 c 128,-1,7
 511 1554 511 1554 624 1554 c 0,8,9
 751 1554 751 1554 822.5 1493.5 c 128,-1,10
 894 1433 894 1433 916 1335.5 c 128,-1,11
 938 1238 938 1238 915 1128 c 0,12,13
 894 1023 894 1023 838.5 937 c 128,-1,14
 783 851 783 851 697.5 800 c 128,-1,15
 612 749 612 749 499 749 c 0,0,1
515 949 m 0,16,17
 584 949 584 949 626 1006 c 128,-1,18
 668 1063 668 1063 685 1151 c 0,19,20
 694 1194 694 1194 695.5 1241 c 128,-1,21
 697 1288 697 1288 679 1321 c 128,-1,22
 661 1354 661 1354 608 1354 c 0,23,24
 539 1354 539 1354 497 1297.5 c 128,-1,25
 455 1241 455 1241 438 1152 c 0,26,27
 430 1109 430 1109 428 1062 c 128,-1,28
 426 1015 426 1015 444.5 982 c 128,-1,29
 463 949 463 949 515 949 c 0,16,17
EndSplineSet
EndChar

StartChar: uni00B9
Encoding: 185 185 31
Width: 780
Flags: W
LayerCount: 2
Fore
SplineSet
425 765 m 1,0,-1
 537 1290 l 1,1,-1
 376 1215 l 1,2,-1
 300 1377 l 1,3,-1
 594 1520 l 1,4,-1
 805 1520 l 1,5,-1
 644 765 l 1,6,-1
 425 765 l 1,0,-1
EndSplineSet
EndChar

StartChar: uni00B2
Encoding: 178 178 32
Width: 780
Flags: W
LayerCount: 2
Fore
SplineSet
181 773 m 1,0,-1
 214 930 l 1,1,2
 337 1004 337 1004 463 1090 c 0,3,4
 564 1160 564 1160 611 1203 c 128,-1,5
 658 1246 658 1246 658 1306 c 0,6,7
 658 1336 658 1336 639 1357.5 c 128,-1,8
 620 1379 620 1379 576 1379 c 0,9,10
 533 1379 533 1379 505 1356.5 c 128,-1,11
 477 1334 477 1334 459 1281 c 1,12,-1
 264 1303 l 1,13,14
 292 1416 292 1416 373.5 1485 c 128,-1,15
 455 1554 455 1554 597 1554 c 0,16,17
 719 1554 719 1554 795 1492.5 c 128,-1,18
 871 1431 871 1431 871 1332 c 0,19,20
 871 1232 871 1232 809 1157 c 128,-1,21
 747 1082 747 1082 639 1009 c 0,22,23
 614 992 614 992 589.5 978 c 128,-1,24
 565 964 565 964 540 950 c 1,25,-1
 809 950 l 1,26,-1
 755 773 l 1,27,-1
 181 773 l 1,0,-1
EndSplineSet
EndChar

StartChar: uni00B3
Encoding: 179 179 33
Width: 780
Flags: W
LayerCount: 2
Fore
SplineSet
485 749 m 0,0,1
 348 749 348 749 265 822 c 128,-1,2
 182 895 182 895 187 1023 c 1,3,-1
 384 1023 l 1,4,5
 388 911 388 911 484 911 c 0,6,7
 596 911 596 911 596 1010 c 0,8,9
 596 1050 596 1050 570.5 1067.5 c 128,-1,10
 545 1085 545 1085 506 1085 c 2,11,-1
 446 1085 l 1,12,-1
 477 1237 l 1,13,-1
 535 1237 l 2,14,15
 641 1237 641 1237 641 1325 c 0,16,17
 641 1393 641 1393 556 1393 c 0,18,19
 507 1393 507 1393 481 1371 c 128,-1,20
 455 1349 455 1349 438 1302 c 1,21,-1
 248 1323 l 1,22,23
 270 1425 270 1425 354 1489.5 c 128,-1,24
 438 1554 438 1554 580 1554 c 0,25,26
 707 1554 707 1554 780 1495 c 128,-1,27
 853 1436 853 1436 853 1347 c 0,28,29
 853 1276 853 1276 816 1229 c 128,-1,30
 779 1182 779 1182 713 1158 c 1,31,32
 813 1116 813 1116 813 1004 c 0,33,34
 813 889 813 889 726.5 819 c 128,-1,35
 640 749 640 749 485 749 c 0,0,1
EndSplineSet
EndChar

StartChar: fraction
Encoding: 8260 8260 34
Width: 240
Flags: W
LayerCount: 2
Fore
SplineSet
-391 0 m 1,0,-1
 513 1297 l 1,1,-1
 790 1297 l 1,2,-1
 -114 0 l 1,3,-1
 -391 0 l 1,0,-1
EndSplineSet
EndChar

StartChar: dollar
Encoding: 36 36 40
Width: 1200
Flags: W
LayerCount: 2
Fore
SplineSet
58 339 m 1,0,-1
 326 339 l 1,1,2
 340 277 340 277 377.5 243.5 c 128,-1,3
 415 210 415 210 466 196 c 1,4,-1
 544 559 l 1,5,-1
 537 561 l 1,6,7
 370 603 370 603 284.5 686 c 128,-1,8
 199 769 199 769 199 916 c 0,9,10
 199 1049 199 1049 265.5 1141 c 128,-1,11
 332 1233 332 1233 445.5 1280.5 c 128,-1,12
 559 1328 559 1328 701 1328 c 0,13,14
 705 1328 705 1328 709 1328 c 2,15,-1
 746 1503 l 1,16,-1
 855 1503 l 1,17,-1
 816 1319 l 1,18,19
 956 1296 956 1296 1052 1213.5 c 128,-1,20
 1148 1131 1148 1131 1167 988 c 1,21,-1
 903 959 l 1,22,23
 888 1019 888 1019 853.5 1053.5 c 128,-1,24
 819 1088 819 1088 769 1102 c 1,25,-1
 698 769 l 1,26,-1
 755 755 l 2,27,28
 916 716 916 716 994 625.5 c 128,-1,29
 1072 535 1072 535 1072 400 c 0,30,31
 1072 198 1072 198 933.5 82 c 128,-1,32
 795 -34 795 -34 556 -34 c 0,33,34
 541 -34 541 -34 526 -33 c 1,35,-1
 485 -224 l 1,36,-1
 376 -224 l 1,37,-1
 419 -23 l 1,38,39
 277 2 277 2 175.5 87.5 c 128,-1,40
 74 173 74 173 58 339 c 1,0,-1
464 935 m 0,41,42
 464 871 464 871 503.5 839.5 c 128,-1,43
 543 808 543 808 594 794 c 1,44,-1
 662 1111 l 1,45,46
 563 1106 563 1106 513.5 1056.5 c 128,-1,47
 464 1007 464 1007 464 935 c 0,41,42
660 530 m 2,48,-1
 647 533 l 1,49,-1
 572 184 l 1,50,51
 676 185 676 185 737 231.5 c 128,-1,52
 798 278 798 278 798 370 c 0,53,54
 798 420 798 420 770.5 464.5 c 128,-1,55
 743 509 743 509 660 530 c 2,48,-1
EndSplineSet
EndChar

StartChar: cent
Encoding: 162 162 41
Width: 1200
Flags: W
LayerCount: 2
Fore
SplineSet
462 -19 m 1,0,-1
 499 155 l 1,1,2
 352 179 352 179 257.5 286 c 128,-1,3
 163 393 163 393 163 574 c 0,4,5
 163 756 163 756 234 891.5 c 128,-1,6
 305 1027 305 1027 430.5 1104 c 128,-1,7
 556 1181 556 1181 719 1187 c 1,8,-1
 755 1355 l 1,9,-1
 864 1355 l 1,10,-1
 827 1180 l 1,11,12
 972 1157 972 1157 1052 1062 c 128,-1,13
 1132 967 1132 967 1140 837 c 1,14,-1
 883 800 l 1,15,16
 879 847 879 847 859.5 894.5 c 128,-1,17
 840 942 840 942 780 961 c 1,18,-1
 654 368 l 1,19,20
 741 379 741 379 780 425.5 c 128,-1,21
 819 472 819 472 840 538 c 1,22,-1
 1101 538 l 1,23,24
 1064 363 1064 363 945 259.5 c 128,-1,25
 826 156 826 156 608 149 c 1,26,-1
 572 -19 l 1,27,-1
 462 -19 l 1,0,-1
437 580 m 0,28,29
 437 511 437 511 462.5 454.5 c 128,-1,30
 488 398 488 398 546 376 c 1,31,-1
 672 965 l 1,32,33
 593 951 593 951 541 895 c 128,-1,34
 489 839 489 839 463 756.5 c 128,-1,35
 437 674 437 674 437 580 c 0,28,29
EndSplineSet
EndChar

StartChar: sterling
Encoding: 163 163 42
Width: 1200
Flags: W
LayerCount: 2
Fore
SplineSet
72 0 m 1,0,-1
 115 195 l 1,1,2
 207 281 207 281 247 360 c 128,-1,3
 287 439 287 439 294 531 c 1,4,-1
 138 531 l 1,5,-1
 184 748 l 1,6,-1
 289 748 l 1,7,8
 288 770 288 770 287.5 794 c 128,-1,9
 287 818 287 818 287 846 c 0,10,11
 287 1064 287 1064 409 1197.5 c 128,-1,12
 531 1331 531 1331 751 1331 c 0,13,14
 929 1331 929 1331 1037 1240 c 128,-1,15
 1145 1149 1145 1149 1160 974 c 1,16,-1
 908 944 l 1,17,18
 893 1027 893 1027 851 1056.5 c 128,-1,19
 809 1086 809 1086 735 1086 c 0,20,21
 650 1086 650 1086 600 1026 c 128,-1,22
 550 966 550 966 550 848 c 0,23,24
 550 814 550 814 551 790.5 c 128,-1,25
 552 767 552 767 554 748 c 1,26,-1
 937 748 l 1,27,-1
 891 531 l 1,28,-1
 553 531 l 1,29,30
 542 438 542 438 508.5 361.5 c 128,-1,31
 475 285 475 285 414 231 c 1,32,-1
 1036 231 l 1,33,-1
 960 0 l 1,34,-1
 72 0 l 1,0,-1
EndSplineSet
EndChar

StartChar: yen
Encoding: 165 165 43
Width: 1200
Flags: W
LayerCount: 2
Fore
SplineSet
102 258 m 1,0,-1
 133 407 l 1,1,-1
 441 407 l 1,2,-1
 471 546 l 1,3,-1
 160 546 l 1,4,-1
 191 695 l 1,5,-1
 422 695 l 1,6,-1
 233 1295 l 1,7,-1
 508 1295 l 1,8,-1
 648 766 l 1,9,-1
 1015 1295 l 1,10,-1
 1312 1295 l 1,11,-1
 867 695 l 1,12,-1
 1097 695 l 1,13,-1
 1066 546 l 1,14,-1
 757 546 l 1,15,-1
 727 407 l 1,16,-1
 1038 407 l 1,17,-1
 1007 258 l 1,18,-1
 696 258 l 1,19,-1
 641 0 l 1,20,-1
 355 0 l 1,21,-1
 410 258 l 1,22,-1
 102 258 l 1,0,-1
EndSplineSet
EndChar

StartChar: Euro
Encoding: 8364 8364 44
Width: 1200
Flags: W
LayerCount: 2
Fore
SplineSet
72 444 m 1,0,-1
 123 586 l 1,1,-1
 219 586 l 1,2,3
 225 648 225 648 238 713 c 1,4,-1
 124 713 l 1,5,-1
 174 854 l 1,6,-1
 275 854 l 1,7,8
 344 1067 344 1067 479 1199 c 128,-1,9
 614 1331 614 1331 817 1331 c 0,10,11
 997 1331 997 1331 1092 1242.5 c 128,-1,12
 1187 1154 1187 1154 1209 995 c 1,13,-1
 942 962 l 1,14,15
 930 1027 930 1027 898 1059.5 c 128,-1,16
 866 1092 866 1092 800 1092 c 0,17,18
 715 1092 715 1092 655.5 1022 c 128,-1,19
 596 952 596 952 559 854 c 1,20,-1
 898 854 l 1,21,-1
 846 713 l 1,22,-1
 516 713 l 1,23,24
 514 704 514 704 512 694 c 0,25,26
 500 639 500 639 494 586 c 1,27,-1
 821 586 l 1,28,-1
 769 444 l 1,29,-1
 487 444 l 1,30,31
 492 344 492 344 530.5 275 c 128,-1,32
 569 206 569 206 657 206 c 0,33,34
 729 206 729 206 767.5 239.5 c 128,-1,35
 806 273 806 273 826 329 c 1,36,-1
 1101 329 l 1,37,38
 1061 160 1061 160 946.5 63 c 128,-1,39
 832 -34 832 -34 643 -34 c 0,40,41
 500 -34 500 -34 406 27.5 c 128,-1,42
 312 89 312 89 265 197 c 128,-1,43
 218 305 218 305 213 444 c 1,44,-1
 72 444 l 1,0,-1
EndSplineSet
EndChar

StartChar: currency
Encoding: 164 164 45
Width: 1200
Flags: W
LayerCount: 2
Fore
SplineSet
228 107 m 1,0,-1
 74 276 l 1,1,-1
 210 396 l 1,2,3
 180 467 180 467 180 553 c 0,4,5
 180 660 180 660 214 751 c 128,-1,6
 248 842 248 842 306 910 c 1,7,-1
 218 1032 l 1,8,-1
 409 1163 l 1,9,-1
 491 1047 l 1,10,11
 585 1087 585 1087 687 1087 c 0,12,13
 804 1087 804 1087 897 1035 c 1,14,-1
 1031 1155 l 1,15,-1
 1185 986 l 1,16,-1
 1049 866 l 1,17,18
 1079 795 1079 795 1079 709 c 0,19,20
 1079 602 1079 602 1045 511 c 128,-1,21
 1011 420 1011 420 953 352 c 1,22,-1
 1041 230 l 1,23,-1
 850 99 l 1,24,-1
 768 215 l 1,25,26
 674 175 674 175 572 175 c 0,27,28
 455 175 455 175 362 227 c 1,29,-1
 228 107 l 1,0,-1
582 370 m 0,30,31
 697 370 697 370 773 461.5 c 128,-1,32
 849 553 849 553 849 700 c 0,33,34
 849 789 849 789 805.5 840.5 c 128,-1,35
 762 892 762 892 677 892 c 0,36,37
 562 892 562 892 486 800.5 c 128,-1,38
 410 709 410 709 410 562 c 0,39,40
 410 474 410 474 453.5 422 c 128,-1,41
 497 370 497 370 582 370 c 0,30,31
EndSplineSet
EndChar

StartChar: uni20BA
Encoding: 8378 8378 46
Width: 1200
Flags: W
LayerCount: 2
Fore
SplineSet
139 0 m 1,0,-1
 250 520 l 1,1,-1
 144 483 l 1,2,-1
 106 648 l 1,3,-1
 291 712 l 1,4,-1
 319 836 l 1,5,-1
 199 794 l 1,6,-1
 161 959 l 1,7,-1
 358 1027 l 1,8,-1
 415 1295 l 1,9,-1
 697 1295 l 1,10,-1
 660 1123 l 1,11,-1
 936 1218 l 1,12,-1
 974 1053 l 1,13,-1
 619 931 l 1,14,-1
 593 808 l 1,15,-1
 881 907 l 1,16,-1
 919 742 l 1,17,-1
 552 616 l 1,18,-1
 477 259 l 1,19,20
 624 274 624 274 728.5 364 c 128,-1,21
 833 454 833 454 873 617 c 1,22,-1
 1155 617 l 1,23,24
 1130 426 1130 426 1024 287.5 c 128,-1,25
 918 149 918 149 753 74.5 c 128,-1,26
 588 0 588 0 386 0 c 2,27,-1
 139 0 l 1,0,-1
EndSplineSet
EndChar

StartChar: uni20A8
Encoding: 8360 8360 47
Width: 1200
Flags: W
LayerCount: 2
Fore
SplineSet
631 0 m 1,0,-1
 143 476 l 1,1,-1
 181 656 l 1,2,-1
 441 656 l 2,3,4
 557 656 557 656 627 684.5 c 128,-1,5
 697 713 697 713 731 767 c 1,6,-1
 205 767 l 1,7,-1
 249 973 l 1,8,-1
 761 973 l 1,9,10
 746 1045 746 1045 687 1067 c 128,-1,11
 628 1089 628 1089 513 1089 c 2,12,-1
 273 1089 l 1,13,-1
 317 1295 l 1,14,-1
 1221 1295 l 1,15,-1
 1177 1089 l 1,16,-1
 970 1089 l 1,17,18
 1012 1044 1012 1044 1022 973 c 1,19,-1
 1153 973 l 1,20,-1
 1109 767 l 1,21,-1
 1000 767 l 1,22,23
 952 625 952 625 820.5 549.5 c 128,-1,24
 689 474 689 474 495 465 c 1,25,-1
 983 0 l 1,26,-1
 631 0 l 1,0,-1
EndSplineSet
EndChar

StartChar: uni20A9
Encoding: 8361 8361 48
Width: 1777
Flags: W
LayerCount: 2
Fore
SplineSet
323 0 m 1,0,-1
 316 386 l 1,1,-1
 69 386 l 1,2,-1
 103 546 l 1,3,-1
 313 546 l 1,4,-1
 311 635 l 1,5,-1
 122 635 l 1,6,-1
 156 795 l 1,7,-1
 308 795 l 1,8,-1
 299 1295 l 1,9,-1
 571 1295 l 1,10,-1
 553 795 l 1,11,-1
 746 795 l 1,12,-1
 936 1288 l 1,13,-1
 1168 1288 l 1,14,-1
 1147 795 l 1,15,-1
 1342 795 l 1,16,-1
 1537 1295 l 1,17,-1
 1805 1295 l 1,18,-1
 1585 795 l 1,19,-1
 1752 795 l 1,20,-1
 1718 635 l 1,21,-1
 1515 635 l 1,22,-1
 1476 546 l 1,23,-1
 1699 546 l 1,24,-1
 1665 386 l 1,25,-1
 1406 386 l 1,26,-1
 1236 0 l 1,27,-1
 937 0 l 1,28,-1
 953 386 l 1,29,-1
 771 386 l 1,30,-1
 625 0 l 1,31,-1
 323 0 l 1,0,-1
926 795 m 1,32,-1
 971 795 l 1,33,-1
 976 929 l 1,34,-1
 926 795 l 1,32,-1
544 546 m 1,35,-1
 650 546 l 1,36,-1
 685 635 l 1,37,-1
 547 635 l 1,38,-1
 544 546 l 1,35,-1
832 546 m 1,39,-1
 960 546 l 1,40,-1
 964 635 l 1,41,-1
 865 635 l 1,42,-1
 832 546 l 1,39,-1
1136 546 m 1,43,-1
 1245 546 l 1,44,-1
 1280 635 l 1,45,-1
 1140 635 l 1,46,-1
 1136 546 l 1,43,-1
538 386 m 1,47,-1
 533 241 l 1,48,-1
 589 386 l 1,49,-1
 538 386 l 1,47,-1
1130 386 m 1,50,-1
 1123 231 l 1,51,-1
 1183 386 l 1,52,-1
 1130 386 l 1,50,-1
EndSplineSet
EndChar

StartChar: asciicircum
Encoding: 94 94 49
Width: 1140
Flags: W
LayerCount: 2
Fore
SplineSet
88 551 m 1,0,-1
 631 1340 l 1,1,-1
 873 1340 l 1,2,-1
 1079 551 l 1,3,-1
 805 551 l 1,4,-1
 696 1053 l 1,5,-1
 376 551 l 1,6,-1
 88 551 l 1,0,-1
EndSplineSet
EndChar

StartChar: plus
Encoding: 43 43 50
Width: 1200
Flags: W
LayerCount: 2
Fore
SplineSet
401 165 m 1,0,-1
 474 512 l 1,1,-1
 145 512 l 1,2,-1
 199 764 l 1,3,-1
 527 764 l 1,4,-1
 600 1111 l 1,5,-1
 863 1111 l 1,6,-1
 790 764 l 1,7,-1
 1118 764 l 1,8,-1
 1064 512 l 1,9,-1
 737 512 l 1,10,-1
 664 165 l 1,11,-1
 401 165 l 1,0,-1
EndSplineSet
EndChar

StartChar: minus
Encoding: 8722 8722 51
Width: 1200
Flags: W
LayerCount: 2
Fore
SplineSet
189 508 m 1,0,-1
 245 769 l 1,1,-1
 1075 769 l 1,2,-1
 1020 508 l 1,3,-1
 189 508 l 1,0,-1
EndSplineSet
EndChar

StartChar: plusminus
Encoding: 177 177 52
Width: 1200
Flags: W
LayerCount: 2
Fore
SplineSet
35 0 m 1,0,-1
 87 243 l 1,1,-1
 416 243 l 1,2,-1
 479 542 l 1,3,-1
 151 542 l 1,4,-1
 203 785 l 1,5,-1
 530 785 l 1,6,-1
 600 1117 l 1,7,-1
 867 1117 l 1,8,-1
 797 785 l 1,9,-1
 1122 785 l 1,10,-1
 1070 542 l 1,11,-1
 746 542 l 1,12,-1
 683 243 l 1,13,-1
 1006 243 l 1,14,-1
 955 0 l 1,15,-1
 35 0 l 1,0,-1
EndSplineSet
EndChar

StartChar: equal
Encoding: 61 61 53
Width: 1200
Flags: W
LayerCount: 2
Fore
SplineSet
233 733 m 1,0,-1
 284 976 l 1,1,-1
 1123 976 l 1,2,-1
 1072 733 l 1,3,-1
 233 733 l 1,0,-1
141 304 m 1,4,-1
 192 547 l 1,5,-1
 1031 547 l 1,6,-1
 980 304 l 1,7,-1
 141 304 l 1,4,-1
EndSplineSet
EndChar

StartChar: notequal
Encoding: 8800 8800 54
Width: 1200
Flags: W
LayerCount: 2
Fore
SplineSet
146 107 m 1,0,-1
 284 304 l 1,1,-1
 141 304 l 1,2,-1
 192 547 l 1,3,-1
 454 547 l 1,4,-1
 585 733 l 1,5,-1
 233 733 l 1,6,-1
 284 976 l 1,7,-1
 756 976 l 1,8,-1
 893 1171 l 1,9,-1
 1122 1171 l 1,10,-1
 985 976 l 1,11,-1
 1123 976 l 1,12,-1
 1072 733 l 1,13,-1
 814 733 l 1,14,-1
 683 547 l 1,15,-1
 1031 547 l 1,16,-1
 980 304 l 1,17,-1
 513 304 l 1,18,-1
 375 107 l 1,19,-1
 146 107 l 1,0,-1
EndSplineSet
EndChar

StartChar: divide
Encoding: 247 247 55
Width: 1200
Flags: W
LayerCount: 2
Fore
SplineSet
556 886 m 1,0,-1
 607 1124 l 1,1,-1
 861 1124 l 1,2,-1
 810 886 l 1,3,-1
 556 886 l 1,0,-1
158 511 m 1,4,-1
 212 766 l 1,5,-1
 1103 766 l 1,6,-1
 1049 511 l 1,7,-1
 158 511 l 1,4,-1
401 154 m 1,8,-1
 452 391 l 1,9,-1
 706 391 l 1,10,-1
 655 154 l 1,11,-1
 401 154 l 1,8,-1
EndSplineSet
EndChar

StartChar: less
Encoding: 60 60 56
Width: 1200
Flags: W
LayerCount: 2
Fore
SplineSet
945 154 m 1,0,-1
 146 522 l 1,1,-1
 195 752 l 1,2,-1
 1152 1119 l 1,3,-1
 1094 849 l 1,4,-1
 481 630 l 1,5,-1
 999 405 l 1,6,-1
 945 154 l 1,0,-1
EndSplineSet
EndChar

StartChar: greater
Encoding: 62 62 57
Width: 1200
Flags: W
LayerCount: 2
Fore
SplineSet
111 155 m 1,0,-1
 169 425 l 1,1,-1
 782 644 l 1,2,-1
 264 869 l 1,3,-1
 318 1120 l 1,4,-1
 1117 752 l 1,5,-1
 1068 522 l 1,6,-1
 111 155 l 1,0,-1
EndSplineSet
EndChar

StartChar: lessequal
Encoding: 8804 8804 58
Width: 1200
Flags: W
LayerCount: 2
Fore
SplineSet
978 305 m 1,0,-1
 170 633 l 1,1,-1
 218 862 l 1,2,-1
 1167 1190 l 1,3,-1
 1115 940 l 1,4,-1
 454 744 l 1,5,-1
 1029 544 l 1,6,-1
 978 305 l 1,0,-1
36 0 m 1,7,-1
 84 233 l 1,8,-1
 962 233 l 1,9,-1
 913 0 l 1,10,-1
 36 0 l 1,7,-1
EndSplineSet
EndChar

StartChar: greaterequal
Encoding: 8805 8805 59
Width: 1200
Flags: W
LayerCount: 2
Fore
SplineSet
144 305 m 1,0,-1
 196 555 l 1,1,-1
 856 753 l 1,2,-1
 282 951 l 1,3,-1
 333 1190 l 1,4,-1
 1140 863 l 1,5,-1
 1092 633 l 1,6,-1
 144 305 l 1,0,-1
80 0 m 1,7,-1
 128 233 l 1,8,-1
 1006 233 l 1,9,-1
 957 0 l 1,10,-1
 80 0 l 1,7,-1
EndSplineSet
EndChar

StartChar: asciitilde
Encoding: 126 126 60
Width: 1200
Flags: W
LayerCount: 2
Fore
SplineSet
822 412 m 0,0,1
 754 412 754 412 699.5 438.5 c 128,-1,2
 645 465 645 465 588 508 c 0,3,4
 548 537 548 537 516 553 c 128,-1,5
 484 569 484 569 449 569 c 0,6,7
 394 569 394 569 365.5 536 c 128,-1,8
 337 503 337 503 323 424 c 1,9,-1
 80 424 l 1,10,11
 109 648 109 648 205 745.5 c 128,-1,12
 301 843 301 843 438 843 c 0,13,14
 505 843 505 843 557.5 815.5 c 128,-1,15
 610 788 610 788 667 746 c 0,16,17
 708 715 708 715 740 700.5 c 128,-1,18
 772 686 772 686 807 686 c 0,19,20
 862 686 862 686 891.5 719 c 128,-1,21
 921 752 921 752 935 831 c 1,22,-1
 1178 831 l 1,23,24
 1150 608 1150 608 1054.5 510 c 128,-1,25
 959 412 959 412 822 412 c 0,0,1
EndSplineSet
EndChar

StartChar: approxequal
Encoding: 8776 8776 61
Width: 1200
Flags: W
LayerCount: 2
Fore
SplineSet
877 674 m 0,0,1
 809 674 809 674 754.5 703 c 128,-1,2
 700 732 700 732 643 775 c 0,3,4
 567 831 567 831 504 831 c 0,5,6
 449 831 449 831 420.5 798 c 128,-1,7
 392 765 392 765 378 686 c 1,8,-1
 135 686 l 1,9,10
 163 910 163 910 259 1007.5 c 128,-1,11
 355 1105 355 1105 491 1105 c 0,12,13
 559 1105 559 1105 613.5 1076 c 128,-1,14
 668 1047 668 1047 725 1004 c 0,15,16
 801 948 801 948 864 948 c 0,17,18
 919 948 919 948 948 981 c 128,-1,19
 977 1014 977 1014 990 1093 c 1,20,-1
 1233 1093 l 1,21,22
 1205 870 1205 870 1109.5 772 c 128,-1,23
 1014 674 1014 674 877 674 c 0,0,1
766 154 m 0,24,25
 698 154 698 154 643.5 183 c 128,-1,26
 589 212 589 212 532 255 c 0,27,28
 456 311 456 311 393 311 c 0,29,30
 338 311 338 311 309.5 278 c 128,-1,31
 281 245 281 245 267 166 c 1,32,-1
 24 166 l 1,33,34
 52 390 52 390 148 487.5 c 128,-1,35
 244 585 244 585 380 585 c 0,36,37
 448 585 448 585 502.5 556 c 128,-1,38
 557 527 557 527 614 484 c 0,39,40
 690 428 690 428 753 428 c 0,41,42
 808 428 808 428 837 461 c 128,-1,43
 866 494 866 494 879 573 c 1,44,-1
 1122 573 l 1,45,46
 1094 350 1094 350 998.5 252 c 128,-1,47
 903 154 903 154 766 154 c 0,24,25
EndSplineSet
EndChar

StartChar: multiply
Encoding: 215 215 62
Width: 1200
Flags: W
LayerCount: 2
Fore
SplineSet
298 212 m 1,0,-1
 147 398 l 1,1,-1
 464 651 l 1,2,-1
 252 916 l 1,3,-1
 449 1068 l 1,4,-1
 653 815 l 1,5,-1
 963 1064 l 1,6,-1
 1114 878 l 1,7,-1
 797 625 l 1,8,-1
 1009 360 l 1,9,-1
 812 208 l 1,10,-1
 608 461 l 1,11,-1
 298 212 l 1,0,-1
EndSplineSet
EndChar

StartChar: underscore
Encoding: 95 95 63
Width: 896
Flags: W
LayerCount: 2
Fore
SplineSet
-99 -328 m 1,0,-1
 -78 -231 l 1,1,-1
 666 -231 l 1,2,-1
 644 -328 l 1,3,-1
 -99 -328 l 1,0,-1
EndSplineSet
EndChar

StartChar: section
Encoding: 167 167 64
Width: 1152
Flags: W
LayerCount: 2
Fore
SplineSet
483 -227 m 0,0,1
 255 -227 255 -227 140.5 -128 c 128,-1,2
 26 -29 26 -29 22 127 c 1,3,-1
 290 127 l 1,4,5
 296 57 296 57 342.5 19.5 c 128,-1,6
 389 -18 389 -18 493 -18 c 0,7,8
 600 -18 600 -18 640.5 17.5 c 128,-1,9
 681 53 681 53 685 108 c 0,10,11
 688 148 688 148 660.5 179.5 c 128,-1,12
 633 211 633 211 567 228 c 2,13,-1
 425 265 l 2,14,15
 259 309 259 309 184.5 397.5 c 128,-1,16
 110 486 110 486 140 628 c 0,17,18
 155 699 155 699 203.5 751 c 128,-1,19
 252 803 252 803 336 830 c 1,20,21
 268 878 268 878 244.5 951.5 c 128,-1,22
 221 1025 221 1025 239 1110 c 0,23,24
 266 1239 266 1239 390.5 1305.5 c 128,-1,25
 515 1372 515 1372 699 1372 c 0,26,27
 846 1372 846 1372 941 1330.5 c 128,-1,28
 1036 1289 1036 1289 1085.5 1219.5 c 128,-1,29
 1135 1150 1135 1150 1144 1066 c 1,30,-1
 880 1034 l 1,31,32
 870 1100 870 1100 826 1137 c 128,-1,33
 782 1174 782 1174 686 1174 c 0,34,35
 598 1174 598 1174 555 1148.5 c 128,-1,36
 512 1123 512 1123 503 1080 c 0,37,38
 490 1020 490 1020 520.5 984.5 c 128,-1,39
 551 949 551 949 618 932 c 2,40,-1
 746 898 l 2,41,42
 908 855 908 855 989.5 769.5 c 128,-1,43
 1071 684 1071 684 1042 538 c 0,44,45
 1028 466 1028 466 979.5 411.5 c 128,-1,46
 931 357 931 357 848 330 c 1,47,48
 904 293 904 293 928 237 c 128,-1,49
 952 181 952 181 952 118 c 0,50,51
 952 -55 952 -55 824.5 -141 c 128,-1,52
 697 -227 697 -227 483 -227 c 0,0,1
645 425 m 0,53,54
 702 425 702 425 745.5 453 c 128,-1,55
 789 481 789 481 802 539 c 0,56,57
 817 607 817 607 784.5 645.5 c 128,-1,58
 752 684 752 684 684 703 c 2,59,-1
 598 726 l 2,60,61
 563 736 563 736 531 736 c 0,62,63
 473 735 473 735 429 707.5 c 128,-1,64
 385 680 385 680 373 623 c 0,65,66
 359 556 359 556 391.5 516.5 c 128,-1,67
 424 477 424 477 495 457 c 2,68,-1
 575 435 l 2,69,70
 608 425 608 425 645 425 c 0,53,54
EndSplineSet
EndChar

StartChar: degree
Encoding: 176 176 65
Width: 741
Flags: W
LayerCount: 2
Fore
SplineSet
490 745 m 256,0,1
 406 745 406 745 339.5 783.5 c 128,-1,2
 273 822 273 822 234 889 c 128,-1,3
 195 956 195 956 195 1040 c 0,4,5
 195 1123 195 1123 234 1189.5 c 128,-1,6
 273 1256 273 1256 339.5 1295 c 128,-1,7
 406 1334 406 1334 490 1334 c 256,8,9
 574 1334 574 1334 640 1295 c 128,-1,10
 706 1256 706 1256 744 1189.5 c 128,-1,11
 782 1123 782 1123 782 1040 c 0,12,13
 782 956 782 956 744 889.5 c 128,-1,14
 706 823 706 823 640 784 c 128,-1,15
 574 745 574 745 490 745 c 256,0,1
490 924 m 0,16,17
 537 924 537 924 566.5 955.5 c 128,-1,18
 596 987 596 987 596 1040 c 0,19,20
 596 1090 596 1090 566.5 1122.5 c 128,-1,21
 537 1155 537 1155 490 1155 c 0,22,23
 442 1155 442 1155 412 1122.5 c 128,-1,24
 382 1090 382 1090 382 1040 c 0,25,26
 382 987 382 987 412 955.5 c 128,-1,27
 442 924 442 924 490 924 c 0,16,17
EndSplineSet
EndChar

StartChar: paragraph
Encoding: 182 182 67
Width: 1312
Flags: W
LayerCount: 2
Fore
SplineSet
348 -261 m 1,0,-1
 501 458 l 1,1,2
 301 471 301 471 211 602 c 128,-1,3
 121 733 121 733 162 938 c 0,4,5
 197 1111 197 1111 356 1217.5 c 128,-1,6
 515 1324 515 1324 806 1324 c 2,7,-1
 1368 1324 l 1,8,-1
 1031 -261 l 1,9,-1
 771 -261 l 1,10,-1
 1061 1100 l 1,11,-1
 897 1100 l 1,12,-1
 608 -261 l 1,13,-1
 348 -261 l 1,0,-1
EndSplineSet
EndChar

StartChar: numbersign
Encoding: 35 35 68
Width: 1277
Flags: W
LayerCount: 2
Fore
SplineSet
104 0 m 1,0,-1
 212 290 l 1,1,-1
 74 290 l 1,2,-1
 115 497 l 1,3,-1
 288 497 l 1,4,-1
 392 776 l 1,5,-1
 237 776 l 1,6,-1
 278 983 l 1,7,-1
 469 983 l 1,8,-1
 576 1272 l 1,9,-1
 808 1272 l 1,10,-1
 701 983 l 1,11,-1
 908 983 l 1,12,-1
 1016 1272 l 1,13,-1
 1248 1272 l 1,14,-1
 1141 983 l 1,15,-1
 1267 983 l 1,16,-1
 1226 776 l 1,17,-1
 1064 776 l 1,18,-1
 961 497 l 1,19,-1
 1104 497 l 1,20,-1
 1063 290 l 1,21,-1
 884 290 l 1,22,-1
 777 0 l 1,23,-1
 542 0 l 1,24,-1
 650 290 l 1,25,-1
 444 290 l 1,26,-1
 336 0 l 1,27,-1
 104 0 l 1,0,-1
520 497 m 1,28,-1
 727 497 l 1,29,-1
 831 776 l 1,30,-1
 624 776 l 1,31,-1
 520 497 l 1,28,-1
EndSplineSet
EndChar

StartChar: bar
Encoding: 124 124 69
Width: 652
Flags: W
LayerCount: 2
Fore
SplineSet
32 -233 m 1,0,-1
 377 1376 l 1,1,-1
 655 1376 l 1,2,-1
 310 -233 l 1,3,-1
 32 -233 l 1,0,-1
EndSplineSet
EndChar

StartChar: brokenbar
Encoding: 166 166 70
Width: 652
Flags: W
LayerCount: 2
Fore
SplineSet
240 739 m 1,0,-1
 376 1376 l 1,1,-1
 655 1376 l 1,2,-1
 519 739 l 1,3,-1
 240 739 l 1,0,-1
32 -233 m 1,4,-1
 174 426 l 1,5,-1
 451 426 l 1,6,-1
 311 -233 l 1,7,-1
 32 -233 l 1,4,-1
EndSplineSet
EndChar

StartChar: dagger
Encoding: 8224 8224 71
Width: 914
Flags: W
LayerCount: 2
Fore
SplineSet
173 -163 m 1,0,-1
 367 743 l 1,1,-1
 76 743 l 1,2,-1
 131 1001 l 1,3,-1
 422 1001 l 1,4,-1
 494 1338 l 1,5,-1
 784 1338 l 1,6,-1
 712 1001 l 1,7,-1
 1002 1001 l 1,8,-1
 947 743 l 1,9,-1
 657 743 l 1,10,-1
 463 -163 l 1,11,-1
 173 -163 l 1,0,-1
EndSplineSet
EndChar

StartChar: daggerdbl
Encoding: 8225 8225 72
Width: 914
Flags: W
LayerCount: 2
Fore
SplineSet
173 -163 m 1,0,-1
 245 174 l 1,1,-1
 -43 174 l 1,2,-1
 12 432 l 1,3,-1
 300 432 l 1,4,-1
 367 743 l 1,5,-1
 76 743 l 1,6,-1
 131 1001 l 1,7,-1
 422 1001 l 1,8,-1
 494 1338 l 1,9,-1
 784 1338 l 1,10,-1
 712 1001 l 1,11,-1
 1002 1001 l 1,12,-1
 947 743 l 1,13,-1
 657 743 l 1,14,-1
 590 432 l 1,15,-1
 883 432 l 1,16,-1
 828 174 l 1,17,-1
 535 174 l 1,18,-1
 463 -163 l 1,19,-1
 173 -163 l 1,0,-1
EndSplineSet
EndChar

StartChar: logicalnot
Encoding: 172 172 73
Width: 1200
Flags: W
LayerCount: 2
Fore
SplineSet
700 290 m 1,0,-1
 764 580 l 1,1,-1
 168 580 l 1,2,-1
 220 833 l 1,3,-1
 1079 833 l 1,4,-1
 963 290 l 1,5,-1
 700 290 l 1,0,-1
EndSplineSet
EndChar

StartChar: ampersand
Encoding: 38 38 74
Width: 1416
Flags: W
LayerCount: 2
Fore
SplineSet
566 -30 m 0,0,1
 348 -30 348 -30 230 68.5 c 128,-1,2
 112 167 112 167 112 334 c 0,3,4
 112 477 112 477 200 574 c 128,-1,5
 288 671 288 671 454 746 c 1,6,7
 416 808 416 808 393.5 872 c 128,-1,8
 371 936 371 936 371 1000 c 0,9,10
 371 1097 371 1097 419.5 1173.5 c 128,-1,11
 468 1250 468 1250 558 1294.5 c 128,-1,12
 648 1339 648 1339 770 1339 c 0,13,14
 923 1339 923 1339 1012 1261 c 128,-1,15
 1101 1183 1101 1183 1101 1057 c 0,16,17
 1101 969 1101 969 1058.5 900 c 128,-1,18
 1016 831 1016 831 944.5 777.5 c 128,-1,19
 873 724 873 724 786 682 c 1,20,-1
 976 406 l 1,21,22
 1034 515 1034 515 1045 658 c 1,23,-1
 1286 658 l 1,24,25
 1266 390 1266 390 1112 208 c 1,26,-1
 1256 0 l 1,27,-1
 962 0 l 1,28,-1
 924 55 l 1,29,30
 848 14 848 14 758 -8 c 128,-1,31
 668 -30 668 -30 566 -30 c 0,0,1
628 995 m 0,32,33
 628 923 628 923 685 830 c 1,34,35
 759 868 759 868 806.5 915 c 128,-1,36
 854 962 854 962 854 1030 c 0,37,38
 854 1083 854 1083 826.5 1109 c 128,-1,39
 799 1135 799 1135 753 1135 c 0,40,41
 697 1135 697 1135 662.5 1097.5 c 128,-1,42
 628 1060 628 1060 628 995 c 0,32,33
392 361 m 0,43,44
 392 285 392 285 439 234.5 c 128,-1,45
 486 184 486 184 605 184 c 0,46,47
 716 184 716 184 804 231 c 1,48,-1
 559 590 l 1,49,50
 481 547 481 547 436.5 494 c 128,-1,51
 392 441 392 441 392 361 c 0,43,44
EndSplineSet
EndChar

StartChar: asterisk
Encoding: 42 42 75
Width: 902
Flags: W
LayerCount: 2
Fore
SplineSet
367 642 m 1,0,-1
 198 779 l 1,1,-1
 413 953 l 1,2,-1
 195 1012 l 1,3,-1
 297 1227 l 1,4,-1
 488 1104 l 1,5,-1
 503 1338 l 1,6,-1
 741 1338 l 1,7,-1
 660 1110 l 1,8,-1
 865 1216 l 1,9,-1
 930 1007 l 1,10,-1
 664 948 l 1,11,-1
 819 755 l 1,12,-1
 615 645 l 1,13,-1
 531 854 l 1,14,-1
 367 642 l 1,0,-1
EndSplineSet
EndChar

StartChar: hyphen
Encoding: 45 45 76
Width: 721
Flags: W
LayerCount: 2
Fore
SplineSet
37 424 m 1,0,-1
 94 690 l 1,1,-1
 713 690 l 1,2,-1
 656 424 l 1,3,-1
 37 424 l 1,0,-1
EndSplineSet
EndChar

StartChar: endash
Encoding: 8211 8211 78
Width: 1000
Flags: W
LayerCount: 2
Fore
SplineSet
36 428 m 1,0,-1
 91 685 l 1,1,-1
 993 685 l 1,2,-1
 938 428 l 1,3,-1
 36 428 l 1,0,-1
EndSplineSet
EndChar

StartChar: emdash
Encoding: 8212 8212 79
Width: 1600
Flags: W
LayerCount: 2
Fore
SplineSet
103 428 m 1,0,-1
 158 685 l 1,1,-1
 1526 685 l 1,2,-1
 1471 428 l 1,3,-1
 103 428 l 1,0,-1
EndSplineSet
EndChar

StartChar: parenleft
Encoding: 40 40 80
Width: 632
Flags: W
LayerCount: 2
Fore
SplineSet
183 -233 m 1,0,1
 137 -135 137 -135 110.5 2 c 128,-1,2
 84 139 84 139 84 272 c 0,3,4
 84 568 84 568 196 854.5 c 128,-1,5
 308 1141 308 1141 513 1377 c 1,6,-1
 799 1377 l 1,7,8
 595 1115 595 1115 486 830.5 c 128,-1,9
 377 546 377 546 377 241 c 0,10,11
 377 114 377 114 395 -1.5 c 128,-1,12
 413 -117 413 -117 454 -233 c 1,13,-1
 183 -233 l 1,0,1
EndSplineSet
EndChar

StartChar: parenright
Encoding: 41 41 81
Width: 632
Flags: W
LayerCount: 2
Fore
SplineSet
484 1377 m 1,0,1
 531 1280 531 1280 557 1143 c 128,-1,2
 583 1006 583 1006 583 872 c 0,3,4
 583 577 583 577 471.5 290 c 128,-1,5
 360 3 360 3 154 -233 c 1,6,-1
 -132 -233 l 1,7,8
 72 30 72 30 181 314.5 c 128,-1,9
 290 599 290 599 290 903 c 0,10,11
 290 1030 290 1030 272 1146 c 128,-1,12
 254 1262 254 1262 213 1377 c 1,13,-1
 484 1377 l 1,0,1
EndSplineSet
EndChar

StartChar: slash
Encoding: 47 47 82
Width: 775
Flags: W
LayerCount: 2
Fore
SplineSet
-83 0 m 1,0,-1
 649 1377 l 1,1,-1
 943 1377 l 1,2,-1
 211 0 l 1,3,-1
 -83 0 l 1,0,-1
EndSplineSet
EndChar

StartChar: backslash
Encoding: 92 92 83
Width: 757
Flags: W
LayerCount: 2
Fore
SplineSet
356 0 m 1,0,-1
 212 1377 l 1,1,-1
 486 1377 l 1,2,-1
 630 0 l 1,3,-1
 356 0 l 1,0,-1
EndSplineSet
EndChar

StartChar: bracketleft
Encoding: 91 91 84
Width: 627
Flags: W
LayerCount: 2
Fore
SplineSet
-44 -233 m 1,0,-1
 298 1376 l 1,1,-1
 793 1376 l 1,2,-1
 741 1127 l 1,3,-1
 531 1127 l 1,4,-1
 295 16 l 1,5,-1
 505 16 l 1,6,-1
 451 -233 l 1,7,-1
 -44 -233 l 1,0,-1
EndSplineSet
EndChar

StartChar: bracketright
Encoding: 93 93 85
Width: 627
Flags: W
LayerCount: 2
Fore
SplineSet
705 1376 m 1,0,-1
 363 -233 l 1,1,-1
 -132 -233 l 1,2,-1
 -80 16 l 1,3,-1
 130 16 l 1,4,-1
 366 1127 l 1,5,-1
 156 1127 l 1,6,-1
 210 1376 l 1,7,-1
 705 1376 l 1,0,-1
EndSplineSet
EndChar

StartChar: braceleft
Encoding: 123 123 86
Width: 630
Flags: W
LayerCount: 2
Fore
SplineSet
318 -233 m 2,0,1
 170 -233 170 -233 104 -153 c 128,-1,2
 38 -73 38 -73 67 64 c 2,3,-1
 122 322 l 2,4,5
 150 457 150 457 27 457 c 2,6,-1
 13 457 l 1,7,-1
 62 688 l 1,8,-1
 76 688 l 2,9,10
 144 688 144 688 179 721.5 c 128,-1,11
 214 755 214 755 229 824 c 2,12,-1
 284 1080 l 2,13,14
 319 1242 319 1242 416.5 1309.5 c 128,-1,15
 514 1377 514 1377 672 1377 c 2,16,-1
 816 1377 l 1,17,-1
 763 1129 l 1,18,-1
 671 1129 l 2,19,20
 619 1129 619 1129 588.5 1110 c 128,-1,21
 558 1091 558 1091 546 1037 c 2,22,-1
 485 767 l 2,23,24
 467 689 467 689 429 639.5 c 128,-1,25
 391 590 391 590 321 569 c 1,26,27
 380 547 380 547 398.5 493 c 128,-1,28
 417 439 417 439 402 371 c 2,29,-1
 347 113 l 2,30,31
 325 14 325 14 418 14 c 2,32,-1
 524 14 l 1,33,-1
 471 -233 l 1,34,-1
 318 -233 l 2,0,1
EndSplineSet
EndChar

StartChar: braceright
Encoding: 125 125 87
Width: 630
Flags: W
LayerCount: 2
Fore
SplineSet
347 1377 m 2,0,1
 496 1377 496 1377 561.5 1297 c 128,-1,2
 627 1217 627 1217 598 1080 c 2,3,-1
 543 822 l 2,4,5
 515 687 515 687 638 687 c 2,6,-1
 652 687 l 1,7,-1
 603 456 l 1,8,-1
 589 456 l 2,9,10
 522 456 522 456 486.5 422.5 c 128,-1,11
 451 389 451 389 436 320 c 2,12,-1
 381 64 l 2,13,14
 347 -98 347 -98 249 -165.5 c 128,-1,15
 151 -233 151 -233 -7 -233 c 2,16,-1
 -151 -233 l 1,17,-1
 -98 15 l 1,18,-1
 -6 15 l 2,19,20
 47 15 47 15 77 34 c 128,-1,21
 107 53 107 53 119 107 c 2,22,-1
 180 377 l 2,23,24
 198 455 198 455 236 504.5 c 128,-1,25
 274 554 274 554 344 575 c 1,26,27
 285 597 285 597 266.5 651 c 128,-1,28
 248 705 248 705 263 773 c 2,29,-1
 318 1031 l 2,30,31
 340 1130 340 1130 247 1130 c 2,32,-1
 141 1130 l 1,33,-1
 194 1377 l 1,34,-1
 347 1377 l 2,0,1
EndSplineSet
EndChar

StartChar: bullet
Encoding: 8226 8226 88
Width: 804
Flags: W
LayerCount: 2
Fore
SplineSet
443 393 m 0,0,1
 319 393 319 393 238.5 473 c 128,-1,2
 158 553 158 553 158 681 c 0,3,4
 158 808 158 808 238.5 888 c 128,-1,5
 319 968 319 968 443 968 c 0,6,7
 568 968 568 968 648 888 c 128,-1,8
 728 808 728 808 728 680 c 0,9,10
 728 553 728 553 648 473 c 128,-1,11
 568 393 568 393 443 393 c 0,0,1
EndSplineSet
EndChar

StartChar: guilsinglleft
Encoding: 8249 8249 89
Width: 627
Flags: W
LayerCount: 2
Fore
SplineSet
193 56 m 1,0,-1
 40 482 l 1,1,-1
 371 906 l 1,2,-1
 662 906 l 1,3,-1
 348 469 l 1,4,-1
 471 56 l 1,5,-1
 193 56 l 1,0,-1
EndSplineSet
EndChar

StartChar: guilsinglright
Encoding: 8250 8250 90
Width: 627
Flags: W
LayerCount: 2
Fore
SplineSet
-39 56 m 1,0,-1
 277 494 l 1,1,-1
 154 906 l 1,2,-1
 433 906 l 1,3,-1
 583 481 l 1,4,-1
 252 56 l 1,5,-1
 -39 56 l 1,0,-1
EndSplineSet
EndChar

StartChar: at
Encoding: 64 64 93
Width: 1720
Flags: W
LayerCount: 2
Fore
SplineSet
813 -418 m 0,0,1
 556 -418 556 -418 377.5 -318.5 c 128,-1,2
 199 -219 199 -219 106 -44 c 128,-1,3
 13 131 13 131 13 359 c 0,4,5
 13 554 13 554 80 726.5 c 128,-1,6
 147 899 147 899 272 1031 c 128,-1,7
 397 1163 397 1163 570 1238 c 128,-1,8
 743 1313 743 1313 955 1313 c 0,9,10
 1178 1313 1178 1313 1348.5 1229 c 128,-1,11
 1519 1145 1519 1145 1615.5 984 c 128,-1,12
 1712 823 1712 823 1712 592 c 0,13,14
 1712 479 1712 479 1682 372.5 c 128,-1,15
 1652 266 1652 266 1593 181.5 c 128,-1,16
 1534 97 1534 97 1447.5 47.5 c 128,-1,17
 1361 -2 1361 -2 1248 -2 c 0,18,19
 1039 -2 1039 -2 991 157 c 1,20,21
 943 72 943 72 874 32.5 c 128,-1,22
 805 -7 805 -7 721 -7 c 0,23,24
 578 -7 578 -7 506 93.5 c 128,-1,25
 434 194 434 194 434 349 c 0,26,27
 434 498 434 498 493.5 618 c 128,-1,28
 553 738 553 738 649 808.5 c 128,-1,29
 745 879 745 879 855 879 c 0,30,31
 925 879 925 879 977.5 849 c 128,-1,32
 1030 819 1030 819 1060 767 c 1,33,-1
 1079 860 l 1,34,-1
 1323 860 l 1,35,-1
 1204 288 l 2,36,37
 1194 237 1194 237 1207 208 c 128,-1,38
 1220 179 1220 179 1269 179 c 0,39,40
 1345 179 1345 179 1395.5 239.5 c 128,-1,41
 1446 300 1446 300 1472 395.5 c 128,-1,42
 1498 491 1498 491 1498 596 c 0,43,44
 1498 858 1498 858 1351 992 c 128,-1,45
 1204 1126 1204 1126 958 1126 c 0,46,47
 736 1126 736 1126 572.5 1027 c 128,-1,48
 409 928 409 928 319.5 758.5 c 128,-1,49
 230 589 230 589 230 375 c 0,50,51
 230 210 230 210 288.5 72 c 128,-1,52
 347 -66 347 -66 476 -149 c 128,-1,53
 605 -232 605 -232 815 -232 c 0,54,55
 949 -232 949 -232 1045 -201 c 128,-1,56
 1141 -170 1141 -170 1203 -99 c 1,57,-1
 1456 -99 l 1,58,59
 1390 -226 1390 -226 1285.5 -295 c 128,-1,60
 1181 -364 1181 -364 1058.5 -391 c 128,-1,61
 936 -418 936 -418 813 -418 c 0,0,1
800 204 m 0,62,63
 873 204 873 204 917.5 266 c 128,-1,64
 962 328 962 328 979 429 c 2,65,-1
 987 478 l 2,66,67
 991 500 991 500 992.5 518.5 c 128,-1,68
 994 537 994 537 994 550 c 0,69,70
 994 615 994 615 966.5 649 c 128,-1,71
 939 683 939 683 893 683 c 0,72,73
 816 683 816 683 757 599.5 c 128,-1,74
 698 516 698 516 698 351 c 0,75,76
 698 204 698 204 800 204 c 0,62,63
EndSplineSet
EndChar

StartChar: A
Encoding: 65 65 95
Width: 1312
GlyphClass: 2
Flags: W
AnchorPoint: "Anchor-7" 829 1336 basechar 0
AnchorPoint: "Anchor-4" 1051 -93 basechar 0
AnchorPoint: "Anchor-1" 573 -56 basechar 0
LayerCount: 2
Fore
SplineSet
-96 0 m 1,0,-1
 690 1324 l 1,1,-1
 977 1324 l 1,2,-1
 1200 0 l 1,3,-1
 897 0 l 1,4,-1
 860 289 l 1,5,-1
 376 289 l 1,6,-1
 218 0 l 1,7,-1
 -96 0 l 1,0,-1
511 536 m 1,8,-1
 828 536 l 1,9,-1
 768 1005 l 1,10,-1
 511 536 l 1,8,-1
EndSplineSet
EndChar

StartChar: B
Encoding: 66 66 96
Width: 1276
GlyphClass: 2
Flags: W
AnchorPoint: "Anchor-7" 812 1336 basechar 0
AnchorPoint: "Anchor-1" 538 -56 basechar 0
LayerCount: 2
Fore
SplineSet
48 0 m 1,0,-1
 329 1324 l 1,1,-1
 821 1324 l 2,2,3
 977 1324 977 1324 1072.5 1283 c 128,-1,4
 1168 1242 1168 1242 1211.5 1172 c 128,-1,5
 1255 1102 1255 1102 1255 1015 c 0,6,7
 1255 773 1255 773 1001 686 c 1,8,9
 1183 601 1183 601 1183 414 c 0,10,11
 1183 222 1183 222 1035.5 111 c 128,-1,12
 888 0 888 0 597 0 c 2,13,-1
 48 0 l 1,0,-1
785 1096 m 2,14,-1
 564 1096 l 1,15,-1
 500 796 l 1,16,-1
 731 796 l 2,17,18
 828 796 828 796 897.5 835 c 128,-1,19
 967 874 967 874 967 972 c 0,20,21
 967 1029 967 1029 928 1062.5 c 128,-1,22
 889 1096 889 1096 785 1096 c 2,14,-1
694 578 m 2,23,-1
 454 578 l 1,24,-1
 379 229 l 1,25,-1
 620 229 l 2,26,27
 763 229 763 229 826.5 278.5 c 128,-1,28
 890 328 890 328 890 428 c 0,29,30
 890 499 890 499 843.5 538.5 c 128,-1,31
 797 578 797 578 694 578 c 2,23,-1
EndSplineSet
EndChar

StartChar: C
Encoding: 67 67 97
Width: 1335
GlyphClass: 2
Flags: W
AnchorPoint: "Anchor-7" 840 1336 basechar 0
AnchorPoint: "Anchor-1" 635 -61 basechar 0
LayerCount: 2
Fore
SplineSet
674 -34 m 0,0,1
 495 -34 495 -34 380 36.5 c 128,-1,2
 265 107 265 107 205 223.5 c 128,-1,3
 145 340 145 340 133.5 479.5 c 128,-1,4
 122 619 122 619 151 757 c 0,5,6
 176 874 176 874 228.5 982 c 128,-1,7
 281 1090 281 1090 364.5 1174.5 c 128,-1,8
 448 1259 448 1259 565 1308.5 c 128,-1,9
 682 1358 682 1358 835 1358 c 0,10,11
 1046 1358 1046 1358 1175.5 1252.5 c 128,-1,12
 1305 1147 1305 1147 1334 962 c 1,13,-1
 1038 911 l 1,14,15
 1019 1009 1019 1009 966 1058 c 128,-1,16
 913 1107 913 1107 816 1107 c 0,17,18
 710 1107 710 1107 637 1052 c 128,-1,19
 564 997 564 997 520 911 c 128,-1,20
 476 825 476 825 455 730 c 0,21,22
 438 650 438 650 437 560.5 c 128,-1,23
 436 471 436 471 461 393 c 128,-1,24
 486 315 486 315 544 266 c 128,-1,25
 602 217 602 217 702 217 c 0,26,27
 805 217 805 217 868 266 c 128,-1,28
 931 315 931 315 959 403 c 1,29,-1
 1272 403 l 1,30,31
 1212 180 1212 180 1064 73 c 128,-1,32
 916 -34 916 -34 674 -34 c 0,0,1
EndSplineSet
EndChar

StartChar: D
Encoding: 68 68 98
Width: 1378
GlyphClass: 2
Flags: W
AnchorPoint: "Anchor-7" 789 1336 basechar 0
AnchorPoint: "Anchor-1" 513 -56 basechar 0
LayerCount: 2
Fore
SplineSet
48 0 m 1,0,-1
 329 1324 l 1,1,-1
 750 1324 l 2,2,3
 928 1324 928 1324 1055.5 1255 c 128,-1,4
 1183 1186 1183 1186 1252 1061 c 128,-1,5
 1321 936 1321 936 1321 767 c 0,6,7
 1321 542 1321 542 1226.5 369 c 128,-1,8
 1132 196 1132 196 951 98 c 128,-1,9
 770 0 770 0 511 0 c 2,10,-1
 48 0 l 1,0,-1
716 1065 m 2,11,-1
 582 1065 l 1,12,-1
 411 260 l 1,13,-1
 540 260 l 2,14,15
 770 260 770 260 894 398.5 c 128,-1,16
 1018 537 1018 537 1018 763 c 0,17,18
 1018 896 1018 896 942 980.5 c 128,-1,19
 866 1065 866 1065 716 1065 c 2,11,-1
EndSplineSet
EndChar

StartChar: E
Encoding: 69 69 99
Width: 1119
GlyphClass: 2
Flags: W
AnchorPoint: "Anchor-7" 770 1336 basechar 0
AnchorPoint: "Anchor-4" 786 -93 basechar 0
AnchorPoint: "Anchor-1" 480 -56 basechar 0
LayerCount: 2
Fore
SplineSet
48 0 m 1,0,-1
 329 1324 l 1,1,-1
 1210 1324 l 1,2,-1
 1158 1078 l 1,3,-1
 582 1078 l 1,4,-1
 523 800 l 1,5,-1
 1063 800 l 1,6,-1
 1011 553 l 1,7,-1
 471 553 l 1,8,-1
 405 246 l 1,9,-1
 1016 246 l 1,10,-1
 935 0 l 1,11,-1
 48 0 l 1,0,-1
EndSplineSet
EndChar

StartChar: F
Encoding: 70 70 100
Width: 1047
GlyphClass: 2
Flags: W
AnchorPoint: "Anchor-7" 760 1336 basechar 0
AnchorPoint: "Anchor-1" 193 -56 basechar 0
LayerCount: 2
Fore
SplineSet
48 0 m 1,0,-1
 329 1324 l 1,1,-1
 1183 1324 l 1,2,-1
 1130 1075 l 1,3,-1
 578 1075 l 1,4,-1
 511 760 l 1,5,-1
 1030 760 l 1,6,-1
 976 508 l 1,7,-1
 457 508 l 1,8,-1
 349 0 l 1,9,-1
 48 0 l 1,0,-1
EndSplineSet
EndChar

StartChar: G
Encoding: 71 71 101
Width: 1397
GlyphClass: 2
Flags: W
AnchorPoint: "Anchor-7" 831 1336 basechar 0
AnchorPoint: "Anchor-1" 680 -56 basechar 0
LayerCount: 2
Fore
SplineSet
703 -34 m 0,0,1
 537 -34 537 -34 416.5 26.5 c 128,-1,2
 296 87 296 87 225 195 c 128,-1,3
 154 303 154 303 134.5 446 c 128,-1,4
 115 589 115 589 150 754 c 0,5,6
 188 934 188 934 286 1070 c 128,-1,7
 384 1206 384 1206 531.5 1282 c 128,-1,8
 679 1358 679 1358 864 1358 c 0,9,10
 1047 1358 1047 1358 1180 1273.5 c 128,-1,11
 1313 1189 1313 1189 1346 996 c 1,12,-1
 1057 945 l 1,13,14
 1032 1040 1032 1040 971.5 1074 c 128,-1,15
 911 1108 911 1108 836 1108 c 0,16,17
 730 1108 730 1108 651.5 1059 c 128,-1,18
 573 1010 573 1010 523 926.5 c 128,-1,19
 473 843 473 843 452 739 c 0,20,21
 423 599 423 599 440 479 c 128,-1,22
 457 359 457 359 530 286 c 128,-1,23
 603 213 603 213 740 213 c 0,24,25
 868 213 868 213 968 278 c 1,26,-1
 1014 489 l 1,27,-1
 756 489 l 1,28,-1
 808 733 l 1,29,-1
 1340 733 l 1,30,-1
 1209 142 l 1,31,32
 1124 63 1124 63 987 14.5 c 128,-1,33
 850 -34 850 -34 703 -34 c 0,0,1
EndSplineSet
EndChar

StartChar: H
Encoding: 72 72 102
Width: 1441
GlyphClass: 2
Flags: W
AnchorPoint: "Anchor-7" 879 1336 basechar 0
AnchorPoint: "Anchor-1" 602 -56 basechar 0
LayerCount: 2
Fore
SplineSet
48 0 m 1,0,-1
 329 1324 l 1,1,-1
 637 1324 l 1,2,-1
 530 822 l 1,3,-1
 1051 822 l 1,4,-1
 1158 1324 l 1,5,-1
 1466 1324 l 1,6,-1
 1185 0 l 1,7,-1
 877 0 l 1,8,-1
 993 546 l 1,9,-1
 472 546 l 1,10,-1
 356 0 l 1,11,-1
 48 0 l 1,0,-1
EndSplineSet
EndChar

StartChar: I
Encoding: 73 73 103
Width: 612
GlyphClass: 2
Flags: W
AnchorPoint: "Anchor-7" 465 1336 basechar 0
AnchorPoint: "Anchor-4" 207 -93 basechar 0
AnchorPoint: "Anchor-1" 190 -56 basechar 0
LayerCount: 2
Fore
SplineSet
48 0 m 1,0,-1
 329 1324 l 1,1,-1
 637 1324 l 1,2,-1
 356 0 l 1,3,-1
 48 0 l 1,0,-1
EndSplineSet
EndChar

StartChar: J
Encoding: 74 74 104
Width: 1183
GlyphClass: 2
Flags: W
AnchorPoint: "Anchor-7" 1027 1336 basechar 0
AnchorPoint: "Anchor-1" 511 -56 basechar 0
LayerCount: 2
Fore
SplineSet
342 458 m 1,0,1
 341 428 341 428 341.5 389.5 c 128,-1,2
 342 351 342 351 354.5 314.5 c 128,-1,3
 367 278 367 278 400 254.5 c 128,-1,4
 433 231 433 231 496 231 c 0,5,6
 601 231 601 231 652.5 293 c 128,-1,7
 704 355 704 355 732 486 c 2,8,-1
 910 1324 l 1,9,-1
 1218 1324 l 1,10,-1
 1034 458 l 2,11,12
 979 196 979 196 841.5 81 c 128,-1,13
 704 -34 704 -34 481 -34 c 0,14,15
 335 -34 335 -34 242.5 10 c 128,-1,16
 150 54 150 54 101 126.5 c 128,-1,17
 52 199 52 199 37 286 c 128,-1,18
 22 373 22 373 32 458 c 1,19,-1
 342 458 l 1,0,1
EndSplineSet
EndChar

StartChar: K
Encoding: 75 75 105
Width: 1308
GlyphClass: 2
Flags: W
AnchorPoint: "Anchor-7" 845 1336 basechar 0
AnchorPoint: "Anchor-1" 588 -56 basechar 0
LayerCount: 2
Fore
SplineSet
48 0 m 1,0,-1
 329 1324 l 1,1,-1
 637 1324 l 1,2,-1
 524 792 l 1,3,-1
 1114 1324 l 1,4,-1
 1452 1324 l 1,5,-1
 883 802 l 1,6,-1
 1217 0 l 1,7,-1
 892 0 l 1,8,-1
 656 602 l 1,9,-1
 443 412 l 1,10,-1
 355 0 l 1,11,-1
 48 0 l 1,0,-1
EndSplineSet
EndChar

StartChar: L
Encoding: 76 76 106
Width: 1009
GlyphClass: 2
Flags: W
AnchorPoint: "Anchor-8" 810 662 basechar 0
AnchorPoint: "Anchor-7" 485 1336 basechar 0
AnchorPoint: "Anchor-1" 442 -56 basechar 0
LayerCount: 2
Fore
SplineSet
48 0 m 1,0,-1
 329 1324 l 1,1,-1
 637 1324 l 1,2,-1
 412 267 l 1,3,-1
 930 267 l 1,4,-1
 842 0 l 1,5,-1
 48 0 l 1,0,-1
EndSplineSet
EndChar

StartChar: M
Encoding: 77 77 107
Width: 1588
GlyphClass: 2
Flags: W
AnchorPoint: "Anchor-7" 982 1336 basechar 0
AnchorPoint: "Anchor-1" 682 -56 basechar 0
LayerCount: 2
Fore
SplineSet
48 0 m 1,0,-1
 329 1324 l 1,1,-1
 666 1324 l 1,2,-1
 758 321 l 1,3,-1
 1265 1324 l 1,4,-1
 1613 1324 l 1,5,-1
 1332 0 l 1,6,-1
 1062 0 l 1,7,-1
 1249 883 l 1,8,-1
 803 0 l 1,9,-1
 589 0 l 1,10,-1
 505 912 l 1,11,-1
 311 0 l 1,12,-1
 48 0 l 1,0,-1
EndSplineSet
EndChar

StartChar: N
Encoding: 78 78 108
Width: 1393
GlyphClass: 2
Flags: W
AnchorPoint: "Anchor-7" 877 1336 basechar 0
AnchorPoint: "Anchor-1" 590 -56 basechar 0
LayerCount: 2
Fore
SplineSet
48 0 m 1,0,-1
 329 1324 l 1,1,-1
 600 1324 l 1,2,-1
 940 450 l 1,3,-1
 1125 1324 l 1,4,-1
 1418 1324 l 1,5,-1
 1137 0 l 1,6,-1
 866 0 l 1,7,-1
 525 870 l 1,8,-1
 341 0 l 1,9,-1
 48 0 l 1,0,-1
EndSplineSet
EndChar

StartChar: O
Encoding: 79 79 109
Width: 1495
GlyphClass: 2
Flags: W
AnchorPoint: "Anchor-7" 879 1336 basechar 0
AnchorPoint: "Anchor-1" 624 -56 basechar 0
LayerCount: 2
Fore
SplineSet
700 -34 m 0,0,1
 520 -34 520 -34 399.5 33 c 128,-1,2
 279 100 279 100 213.5 212.5 c 128,-1,3
 148 325 148 325 133 463 c 128,-1,4
 118 601 118 601 148 743 c 0,5,6
 185 916 185 916 282.5 1055.5 c 128,-1,7
 380 1195 380 1195 529.5 1276.5 c 128,-1,8
 679 1358 679 1358 871 1358 c 0,9,10
 1051 1358 1051 1358 1171 1290.5 c 128,-1,11
 1291 1223 1291 1223 1356 1110.5 c 128,-1,12
 1421 998 1421 998 1435.5 859.5 c 128,-1,13
 1450 721 1450 721 1420 579 c 0,14,15
 1384 406 1384 406 1286.5 267 c 128,-1,16
 1189 128 1189 128 1040 47 c 128,-1,17
 891 -34 891 -34 700 -34 c 0,0,1
714 218 m 0,18,19
 822 218 822 218 904.5 270 c 128,-1,20
 987 322 987 322 1041.5 411 c 128,-1,21
 1096 500 1096 500 1120 610 c 0,22,23
 1137 691 1137 691 1136 778 c 128,-1,24
 1135 865 1135 865 1107.5 939.5 c 128,-1,25
 1080 1014 1080 1014 1019 1060 c 128,-1,26
 958 1106 958 1106 855 1106 c 0,27,28
 747 1106 747 1106 664.5 1054 c 128,-1,29
 582 1002 582 1002 528 913 c 128,-1,30
 474 824 474 824 450 714 c 0,31,32
 432 634 432 634 433 547.5 c 128,-1,33
 434 461 434 461 461.5 386 c 128,-1,34
 489 311 489 311 550 264.5 c 128,-1,35
 611 218 611 218 714 218 c 0,18,19
EndSplineSet
EndChar

StartChar: P
Encoding: 80 80 110
Width: 1218
GlyphClass: 2
Flags: W
AnchorPoint: "Anchor-7" 787 1336 basechar 0
AnchorPoint: "Anchor-1" 189 -56 basechar 0
LayerCount: 2
Fore
SplineSet
48 0 m 1,0,-1
 329 1324 l 1,1,-1
 767 1324 l 2,2,3
 1028 1324 1028 1324 1149 1191 c 128,-1,4
 1270 1058 1270 1058 1220 816 c 0,5,6
 1185 644 1185 644 1032 546.5 c 128,-1,7
 879 449 879 449 651 449 c 2,8,-1
 451 449 l 1,9,-1
 356 0 l 1,10,-1
 48 0 l 1,0,-1
719 1081 m 2,11,-1
 586 1081 l 1,12,-1
 503 694 l 1,13,-1
 641 694 l 2,14,15
 753 694 753 694 829 728.5 c 128,-1,16
 905 763 905 763 924 854 c 0,17,18
 949 978 949 978 897 1029.5 c 128,-1,19
 845 1081 845 1081 719 1081 c 2,11,-1
EndSplineSet
EndChar

StartChar: Q
Encoding: 81 81 111
Width: 1495
GlyphClass: 2
Flags: W
AnchorPoint: "Anchor-7" 930 1336 basechar 0
AnchorPoint: "Anchor-1" 629 -56 basechar 0
LayerCount: 2
Fore
SplineSet
700 -34 m 0,0,1
 520 -34 520 -34 399.5 33 c 128,-1,2
 279 100 279 100 213.5 212.5 c 128,-1,3
 148 325 148 325 133 463 c 128,-1,4
 118 601 118 601 148 743 c 0,5,6
 185 916 185 916 282.5 1055.5 c 128,-1,7
 380 1195 380 1195 529.5 1276.5 c 128,-1,8
 679 1358 679 1358 871 1358 c 0,9,10
 1051 1358 1051 1358 1171 1290.5 c 128,-1,11
 1291 1223 1291 1223 1356 1110.5 c 128,-1,12
 1421 998 1421 998 1435.5 859.5 c 128,-1,13
 1450 721 1450 721 1420 579 c 0,14,15
 1392 446 1392 446 1322.5 332.5 c 128,-1,16
 1253 219 1253 219 1156 137 c 1,17,-1
 1273 -58 l 1,18,-1
 1073 -180 l 1,19,-1
 956 15 l 1,20,21
 898 -8 898 -8 835 -21 c 128,-1,22
 772 -34 772 -34 700 -34 c 0,0,1
714 218 m 0,23,24
 777 218 777 218 829 231 c 1,25,-1
 705 433 l 1,26,-1
 896 552 l 1,27,-1
 1013 360 l 1,28,29
 1052 411 1052 411 1078 475 c 128,-1,30
 1104 539 1104 539 1120 610 c 0,31,32
 1137 691 1137 691 1136 778 c 128,-1,33
 1135 865 1135 865 1107.5 939.5 c 128,-1,34
 1080 1014 1080 1014 1019 1060 c 128,-1,35
 958 1106 958 1106 855 1106 c 0,36,37
 747 1106 747 1106 664.5 1054 c 128,-1,38
 582 1002 582 1002 528 913 c 128,-1,39
 474 824 474 824 450 714 c 0,40,41
 432 634 432 634 433 547.5 c 128,-1,42
 434 461 434 461 461.5 386 c 128,-1,43
 489 311 489 311 550 264.5 c 128,-1,44
 611 218 611 218 714 218 c 0,23,24
EndSplineSet
EndChar

StartChar: R
Encoding: 82 82 112
Width: 1242
GlyphClass: 2
Flags: W
AnchorPoint: "Anchor-7" 777 1336 basechar 0
AnchorPoint: "Anchor-1" 544 -56 basechar 0
LayerCount: 2
Fore
SplineSet
48 0 m 1,0,-1
 329 1324 l 1,1,-1
 788 1324 l 2,2,3
 959 1324 959 1324 1071.5 1265 c 128,-1,4
 1184 1206 1184 1206 1228 1098 c 128,-1,5
 1272 990 1272 990 1238 843 c 0,6,7
 1213 734 1213 734 1136.5 656 c 128,-1,8
 1060 578 1060 578 943 536 c 1,9,-1
 1111 0 l 1,10,-1
 792 0 l 1,11,-1
 657 483 l 1,12,13
 649 483 649 483 641 483 c 2,14,-1
 459 483 l 1,15,-1
 357 0 l 1,16,-1
 48 0 l 1,0,-1
716 1088 m 2,17,-1
 588 1088 l 1,18,-1
 509 716 l 1,19,-1
 658 716 l 2,20,21
 767 716 767 716 837 750.5 c 128,-1,22
 907 785 907 785 926 867 c 0,23,24
 952 983 952 983 899 1035.5 c 128,-1,25
 846 1088 846 1088 716 1088 c 2,17,-1
EndSplineSet
EndChar

StartChar: S
Encoding: 83 83 113
Width: 1111
GlyphClass: 2
Flags: W
AnchorPoint: "Anchor-7" 654 1336 basechar 0
AnchorPoint: "Anchor-1" 488 -56 basechar 0
LayerCount: 2
Fore
SplineSet
511 -34 m 0,0,1
 383 -34 383 -34 272.5 5 c 128,-1,2
 162 44 162 44 88.5 127 c 128,-1,3
 15 210 15 210 -3 342 c 1,4,-1
 309 342 l 1,5,6
 327 276 327 276 383.5 242.5 c 128,-1,7
 440 209 440 209 526 209 c 0,8,9
 645 209 645 209 693 257.5 c 128,-1,10
 741 306 741 306 741 383 c 0,11,12
 741 439 741 439 705 473 c 128,-1,13
 669 507 669 507 584 532 c 2,14,-1
 473 564 l 2,15,16
 307 612 307 612 218.5 700.5 c 128,-1,17
 130 789 130 789 130 937 c 0,18,19
 130 1070 130 1070 193.5 1164 c 128,-1,20
 257 1258 257 1258 370 1308 c 128,-1,21
 483 1358 483 1358 634 1358 c 0,22,23
 842 1358 842 1358 960.5 1273 c 128,-1,24
 1079 1188 1079 1188 1115 1036 c 1,25,-1
 828 984 l 1,26,27
 806 1055 806 1055 758.5 1086 c 128,-1,28
 711 1117 711 1117 622 1117 c 0,29,30
 522 1117 522 1117 476 1071.5 c 128,-1,31
 430 1026 430 1026 430 957 c 0,32,33
 430 901 430 901 466 867 c 128,-1,34
 502 833 502 833 587 808 c 2,35,-1
 700 775 l 2,36,37
 867 726 867 726 955 636 c 128,-1,38
 1043 546 1043 546 1043 400 c 0,39,40
 1043 265 1043 265 976.5 168 c 128,-1,41
 910 71 910 71 790.5 18.5 c 128,-1,42
 671 -34 671 -34 511 -34 c 0,0,1
EndSplineSet
EndChar

StartChar: T
Encoding: 84 84 114
Width: 1063
GlyphClass: 2
Flags: W
AnchorPoint: "Anchor-7" 713 1336 basechar 0
AnchorPoint: "Anchor-1" 421 -56 basechar 0
LayerCount: 2
Fore
SplineSet
275 0 m 1,0,-1
 500 1058 l 1,1,-1
 112 1058 l 1,2,-1
 169 1324 l 1,3,-1
 1252 1324 l 1,4,-1
 1195 1058 l 1,5,-1
 807 1058 l 1,6,-1
 582 0 l 1,7,-1
 275 0 l 1,0,-1
EndSplineSet
EndChar

StartChar: U
Encoding: 85 85 115
Width: 1384
GlyphClass: 2
Flags: W
AnchorPoint: "Anchor-7" 851 1336 basechar 0
AnchorPoint: "Anchor-6" 722 -92 basechar 0
AnchorPoint: "Anchor-1" 576 -56 basechar 0
LayerCount: 2
Fore
SplineSet
632 -34 m 0,0,1
 417 -34 417 -34 301.5 48 c 128,-1,2
 186 130 186 130 155 267.5 c 128,-1,3
 124 405 124 405 159 572 c 2,4,-1
 319 1324 l 1,5,-1
 627 1324 l 1,6,-1
 458 538 l 2,7,8
 441 457 441 457 445 387 c 128,-1,9
 449 317 449 317 495.5 274 c 128,-1,10
 542 231 542 231 650 231 c 0,11,12
 786 231 786 231 847 303 c 128,-1,13
 908 375 908 375 943 538 c 2,14,-1
 1111 1324 l 1,15,-1
 1419 1324 l 1,16,-1
 1246 508 l 2,17,18
 1187 228 1187 228 1038 97 c 128,-1,19
 889 -34 889 -34 632 -34 c 0,0,1
EndSplineSet
EndChar

StartChar: V
Encoding: 86 86 116
Width: 1247
GlyphClass: 2
Flags: W
AnchorPoint: "Anchor-7" 806 1336 basechar 0
AnchorPoint: "Anchor-1" 509 -56 basechar 0
LayerCount: 2
Fore
SplineSet
337 0 m 1,0,-1
 185 1324 l 1,1,-1
 503 1324 l 1,2,-1
 580 324 l 1,3,-1
 1085 1324 l 1,4,-1
 1416 1324 l 1,5,-1
 700 0 l 1,6,-1
 337 0 l 1,0,-1
EndSplineSet
EndChar

StartChar: W
Encoding: 87 87 117
Width: 1806
GlyphClass: 2
Flags: W
AnchorPoint: "Anchor-7" 1081 1336 basechar 0
AnchorPoint: "Anchor-1" 789 -56 basechar 0
LayerCount: 2
Fore
SplineSet
270 0 m 1,0,-1
 185 1324 l 1,1,-1
 500 1324 l 1,2,-1
 519 406 l 1,3,-1
 941 1316 l 1,4,-1
 1217 1316 l 1,5,-1
 1253 395 l 1,6,-1
 1666 1324 l 1,7,-1
 1975 1324 l 1,8,-1
 1336 0 l 1,9,-1
 1029 0 l 1,10,-1
 987 897 l 1,11,-1
 573 0 l 1,12,-1
 270 0 l 1,0,-1
EndSplineSet
EndChar

StartChar: X
Encoding: 88 88 118
Width: 1245
GlyphClass: 2
Flags: W
AnchorPoint: "Anchor-7" 795 1336 basechar 0
AnchorPoint: "Anchor-1" 503 -56 basechar 0
LayerCount: 2
Fore
SplineSet
-118 0 m 1,0,-1
 489 700 l 1,1,-1
 196 1324 l 1,2,-1
 530 1324 l 1,3,-1
 700 922 l 1,4,-1
 1039 1324 l 1,5,-1
 1383 1324 l 1,6,-1
 824 681 l 1,7,-1
 1155 0 l 1,8,-1
 819 0 l 1,9,-1
 612 465 l 1,10,-1
 226 0 l 1,11,-1
 -118 0 l 1,0,-1
EndSplineSet
EndChar

StartChar: Y
Encoding: 89 89 119
Width: 1167
GlyphClass: 2
Flags: W
AnchorPoint: "Anchor-7" 744 1336 basechar 0
AnchorPoint: "Anchor-1" 465 -56 basechar 0
LayerCount: 2
Fore
SplineSet
330 0 m 1,0,-1
 444 536 l 1,1,-1
 160 1324 l 1,2,-1
 475 1324 l 1,3,-1
 638 782 l 1,4,-1
 1032 1324 l 1,5,-1
 1361 1324 l 1,6,-1
 752 539 l 1,7,-1
 637 0 l 1,8,-1
 330 0 l 1,0,-1
EndSplineSet
EndChar

StartChar: Z
Encoding: 90 90 120
Width: 1167
GlyphClass: 2
Flags: W
AnchorPoint: "Anchor-7" 723 1336 basechar 0
AnchorPoint: "Anchor-1" 480 -56 basechar 0
LayerCount: 2
Fore
SplineSet
-13 0 m 1,0,-1
 35 224 l 1,1,-1
 826 1070 l 1,2,-1
 227 1070 l 1,3,-1
 281 1324 l 1,4,-1
 1250 1324 l 1,5,-1
 1202 1098 l 1,6,-1
 414 255 l 1,7,-1
 1055 255 l 1,8,-1
 972 0 l 1,9,-1
 -13 0 l 1,0,-1
EndSplineSet
EndChar

StartChar: a
Encoding: 97 97 121
Width: 1088
GlyphClass: 2
Flags: W
AnchorPoint: "Anchor-3" 675 -93 basechar 0
AnchorPoint: "Anchor-2" 609 1031 basechar 0
AnchorPoint: "Anchor-0" 438 -61 basechar 0
LayerCount: 2
Fore
SplineSet
302 -25 m 0,0,1
 187 -25 187 -25 119 25.5 c 128,-1,2
 51 76 51 76 27.5 155 c 128,-1,3
 4 234 4 234 22 321 c 0,4,5
 53 467 53 467 195 531.5 c 128,-1,6
 337 596 337 596 552 604 c 2,7,-1
 703 610 l 1,8,9
 720 709 720 709 695 758.5 c 128,-1,10
 670 808 670 808 573 808 c 0,11,12
 518 808 518 808 476.5 786 c 128,-1,13
 435 764 435 764 412 711 c 1,14,-1
 158 735 l 1,15,16
 241 1011 241 1011 608 1011 c 0,17,18
 772 1011 772 1011 860.5 949.5 c 128,-1,19
 949 888 949 888 974.5 788 c 128,-1,20
 1000 688 1000 688 975 572 c 2,21,-1
 853 0 l 1,22,-1
 588 0 l 1,23,-1
 613 115 l 1,24,25
 550 48 550 48 477 11.5 c 128,-1,26
 404 -25 404 -25 302 -25 c 0,0,1
293 311 m 0,27,28
 281 259 281 259 301.5 217.5 c 128,-1,29
 322 176 322 176 395 176 c 0,30,31
 490 176 490 176 563.5 231.5 c 128,-1,32
 637 287 637 287 654 373 c 2,33,-1
 667 432 l 1,34,-1
 554 427 l 2,35,36
 425 421 425 421 365 392.5 c 128,-1,37
 305 364 305 364 293 311 c 0,27,28
EndSplineSet
Substitution2: "'ordn' Ordinals in Latin lookup 3 subtable" ordfeminine
EndChar

StartChar: b
Encoding: 98 98 122
Width: 1226
GlyphClass: 2
Flags: W
AnchorPoint: "Anchor-7" 448 1336 basechar 0
AnchorPoint: "Anchor-0" 564 -61 basechar 0
LayerCount: 2
Fore
SplineSet
636 -30 m 0,0,1
 540 -30 540 -30 463.5 9.5 c 128,-1,2
 387 49 387 49 339 133 c 1,3,-1
 310 0 l 1,4,-1
 29 0 l 1,5,-1
 314 1324 l 1,6,-1
 605 1324 l 1,7,-1
 506 868 l 1,8,9
 566 937 566 937 642.5 974 c 128,-1,10
 719 1011 719 1011 811 1011 c 0,11,12
 919 1011 919 1011 990 963 c 128,-1,13
 1061 915 1061 915 1098 833 c 128,-1,14
 1135 751 1135 751 1140.5 648 c 128,-1,15
 1146 545 1146 545 1122 435 c 0,16,17
 1094 304 1094 304 1026 198.5 c 128,-1,18
 958 93 958 93 858.5 31.5 c 128,-1,19
 759 -30 759 -30 636 -30 c 0,0,1
585 206 m 0,20,21
 680 206 680 206 745 281 c 128,-1,22
 810 356 810 356 834 465 c 0,23,24
 852 548 852 548 845.5 619.5 c 128,-1,25
 839 691 839 691 802.5 734.5 c 128,-1,26
 766 778 766 778 694 778 c 0,27,28
 597 778 597 778 526.5 706.5 c 128,-1,29
 456 635 456 635 435 535 c 2,30,-1
 422 473 l 2,31,32
 398 356 398 356 437 281 c 128,-1,33
 476 206 476 206 585 206 c 0,20,21
EndSplineSet
EndChar

StartChar: c
Encoding: 99 99 123
Width: 1054
GlyphClass: 2
Flags: W
AnchorPoint: "Anchor-2" 650 1031 basechar 0
AnchorPoint: "Anchor-0" 436 -61 basechar 0
LayerCount: 2
Fore
SplineSet
503 -30 m 0,0,1
 366 -30 366 -30 277.5 21.5 c 128,-1,2
 189 73 189 73 143 158.5 c 128,-1,3
 97 244 97 244 88.5 348 c 128,-1,4
 80 452 80 452 102 557 c 0,5,6
 131 697 131 697 207.5 799 c 128,-1,7
 284 901 284 901 395 956 c 128,-1,8
 506 1011 506 1011 638 1011 c 0,9,10
 802 1011 802 1011 897 930 c 128,-1,11
 992 849 992 849 1016 721 c 1,12,-1
 740 665 l 1,13,14
 730 712 730 712 702 741 c 128,-1,15
 674 770 674 770 615 770 c 0,16,17
 533 770 533 770 474.5 706 c 128,-1,18
 416 642 416 642 393 535 c 0,19,20
 383 486 383 486 380 430 c 128,-1,21
 377 374 377 374 389.5 324.5 c 128,-1,22
 402 275 402 275 435.5 243.5 c 128,-1,23
 469 212 469 212 530 212 c 0,24,25
 593 212 593 212 632 242 c 128,-1,26
 671 272 671 272 690 320 c 1,27,-1
 977 320 l 1,28,29
 934 157 934 157 813.5 63.5 c 128,-1,30
 693 -30 693 -30 503 -30 c 0,0,1
EndSplineSet
EndChar

StartChar: d
Encoding: 100 100 124
Width: 1224
GlyphClass: 2
Flags: W
AnchorPoint: "Anchor-8" 1340 646 basechar 0
AnchorPoint: "Anchor-7" 1122 1336 basechar 0
AnchorPoint: "Anchor-0" 520 -61 basechar 0
LayerCount: 2
Fore
SplineSet
588 1011 m 0,0,1
 681 1011 681 1011 755.5 974 c 128,-1,2
 830 937 830 937 878 859 c 1,3,-1
 977 1324 l 1,4,-1
 1268 1324 l 1,5,-1
 985 0 l 1,6,-1
 699 0 l 1,7,-1
 726 122 l 1,8,9
 665 49 665 49 586.5 9.5 c 128,-1,10
 508 -30 508 -30 413 -30 c 0,11,12
 305 -30 305 -30 234 18 c 128,-1,13
 163 66 163 66 126 148 c 128,-1,14
 89 230 89 230 83.5 333 c 128,-1,15
 78 436 78 436 102 546 c 0,16,17
 130 677 130 677 198 782.5 c 128,-1,18
 266 888 266 888 365.5 949.5 c 128,-1,19
 465 1011 465 1011 588 1011 c 0,0,1
639 778 m 0,20,21
 545 778 545 778 479.5 703 c 128,-1,22
 414 628 414 628 390 519 c 0,23,24
 373 436 373 436 379 364.5 c 128,-1,25
 385 293 385 293 421.5 249.5 c 128,-1,26
 458 206 458 206 530 206 c 0,27,28
 628 206 628 206 698 277.5 c 128,-1,29
 768 349 768 349 789 449 c 2,30,-1
 802 511 l 2,31,32
 826 628 826 628 787 703 c 128,-1,33
 748 778 748 778 639 778 c 0,20,21
EndSplineSet
EndChar

StartChar: e
Encoding: 101 101 125
Width: 1123
GlyphClass: 2
Flags: W
AnchorPoint: "Anchor-5" 581 -93 basechar 0
AnchorPoint: "Anchor-2" 683 1031 basechar 0
AnchorPoint: "Anchor-0" 550 -61 basechar 0
LayerCount: 2
Fore
SplineSet
523 -30 m 0,0,1
 380 -30 380 -30 287.5 21 c 128,-1,2
 195 72 195 72 147 157 c 128,-1,3
 99 242 99 242 89.5 345 c 128,-1,4
 80 448 80 448 102 553 c 0,5,6
 128 676 128 676 196.5 780.5 c 128,-1,7
 265 885 265 885 376 948 c 128,-1,8
 487 1011 487 1011 642 1011 c 0,9,10
 774 1011 774 1011 859.5 962.5 c 128,-1,11
 945 914 945 914 989.5 834 c 128,-1,12
 1034 754 1034 754 1043 658.5 c 128,-1,13
 1052 563 1052 563 1030 468 c 2,14,-1
 1020 425 l 1,15,-1
 354 425 l 1,16,17
 350 359 350 359 366 303 c 128,-1,18
 382 247 382 247 425.5 213 c 128,-1,19
 469 179 469 179 547 179 c 0,20,21
 628 179 628 179 670.5 209.5 c 128,-1,22
 713 240 713 240 732 301 c 1,23,-1
 994 301 l 1,24,25
 957 146 957 146 840 58 c 128,-1,26
 723 -30 723 -30 523 -30 c 0,0,1
626 806 m 0,27,28
 526 806 526 806 468.5 740 c 128,-1,29
 411 674 411 674 384 588 c 1,30,-1
 783 588 l 1,31,32
 797 687 797 687 758.5 746.5 c 128,-1,33
 720 806 720 806 626 806 c 0,27,28
EndSplineSet
EndChar

StartChar: f
Encoding: 102 102 126
Width: 742
GlyphClass: 2
Flags: W
AnchorPoint: "Anchor-7" 692 1336 basechar 0
AnchorPoint: "Anchor-0" 220 -61 basechar 0
LayerCount: 2
Fore
SplineSet
73 0 m 1,0,-1
 234 753 l 1,1,-1
 76 753 l 1,2,-1
 122 980 l 1,3,-1
 282 980 l 1,4,-1
 286 997 l 2,5,6
 323 1170 323 1170 428.5 1263 c 128,-1,7
 534 1356 534 1356 691 1356 c 0,8,9
 756 1356 756 1356 813.5 1343 c 128,-1,10
 871 1330 871 1330 916 1311 c 1,11,-1
 835 1096 l 1,12,13
 810 1105 810 1105 784 1110 c 128,-1,14
 758 1115 758 1115 723 1115 c 0,15,16
 601 1115 601 1115 573 986 c 1,17,-1
 572 980 l 1,18,-1
 802 980 l 1,19,-1
 756 753 l 1,20,-1
 524 753 l 1,21,-1
 364 0 l 1,22,-1
 73 0 l 1,0,-1
EndSplineSet
EndChar

StartChar: g
Encoding: 103 103 127
Width: 1214
GlyphClass: 2
Flags: W
AnchorPoint: "Anchor-2" 716 1031 basechar 0
AnchorPoint: "Anchor-1" 433 -438 basechar 0
LayerCount: 2
Fore
SplineSet
456 -385 m 0,0,1
 249 -385 249 -385 133 -298.5 c 128,-1,2
 17 -212 17 -212 13 -51 c 1,3,-1
 284 -51 l 1,4,5
 292 -116 292 -116 332.5 -145 c 128,-1,6
 373 -174 373 -174 460 -174 c 0,7,8
 571 -174 571 -174 622.5 -113 c 128,-1,9
 674 -52 674 -52 700 75 c 2,10,-1
 717 154 l 1,11,12
 600 37 600 37 430 37 c 0,13,14
 258 37 258 37 174 147.5 c 128,-1,15
 90 258 90 258 90 424 c 0,16,17
 90 538 90 538 125.5 643 c 128,-1,18
 161 748 161 748 227 831 c 128,-1,19
 293 914 293 914 384 962.5 c 128,-1,20
 475 1011 475 1011 586 1011 c 0,21,22
 680 1011 680 1011 755 968 c 128,-1,23
 830 925 830 925 875 848 c 1,24,-1
 904 980 l 1,25,-1
 1185 980 l 1,26,-1
 999 115 l 2,27,28
 965 -46 965 -46 904.5 -158 c 128,-1,29
 844 -270 844 -270 737 -327.5 c 128,-1,30
 630 -385 630 -385 456 -385 c 0,0,1
539 273 m 0,31,32
 628 273 628 273 696 333 c 128,-1,33
 764 393 764 393 787 500 c 2,34,-1
 795 536 l 2,35,36
 817 635 817 635 771.5 706.5 c 128,-1,37
 726 778 726 778 626 778 c 0,38,39
 551 778 551 778 496 732 c 128,-1,40
 441 686 441 686 411 613.5 c 128,-1,41
 381 541 381 541 381 461 c 0,42,43
 381 373 381 373 423.5 323 c 128,-1,44
 466 273 466 273 539 273 c 0,31,32
EndSplineSet
EndChar

StartChar: h
Encoding: 104 104 128
Width: 1175
GlyphClass: 2
Flags: W
AnchorPoint: "Anchor-7" 685 1336 basechar 0
AnchorPoint: "Anchor-0" 509 -61 basechar 0
LayerCount: 2
Fore
SplineSet
30 0 m 1,0,-1
 312 1324 l 1,1,-1
 604 1324 l 1,2,-1
 511 885 l 1,3,4
 575 950 575 950 650 980.5 c 128,-1,5
 725 1011 725 1011 800 1011 c 0,6,7
 964 1011 964 1011 1036 899.5 c 128,-1,8
 1108 788 1108 788 1072 618 c 2,9,-1
 941 0 l 1,10,-1
 649 0 l 1,11,-1
 773 581 l 2,12,13
 791 667 791 667 770.5 718 c 128,-1,14
 750 769 750 769 679 769 c 0,15,16
 592 769 592 769 526 711 c 0,17,18
 462 654 462 654 442 564 c 2,19,-1
 322 0 l 1,20,-1
 30 0 l 1,0,-1
EndSplineSet
EndChar

StartChar: i
Encoding: 105 105 129
Width: 560
GlyphClass: 2
Flags: W
AnchorPoint: "Anchor-3" 144 -93 basechar 0
AnchorPoint: "Anchor-0" 176 -61 basechar 0
LayerCount: 2
Fore
SplineSet
263 1101 m 1,0,-1
 311 1324 l 1,1,-1
 605 1324 l 1,2,-1
 557 1101 l 1,3,-1
 263 1101 l 1,0,-1
30 0 m 1,4,-1
 239 980 l 1,5,-1
 531 980 l 1,6,-1
 322 0 l 1,7,-1
 30 0 l 1,4,-1
EndSplineSet
Substitution2: "'locl' Localized Forms in Latin lookup 0 subtable" i.locl
EndChar

StartChar: j
Encoding: 106 106 130
Width: 560
GlyphClass: 2
Flags: W
AnchorPoint: "Anchor-1" -66 -438 basechar 0
LayerCount: 2
Fore
SplineSet
263 1101 m 1,0,-1
 311 1324 l 1,1,-1
 605 1324 l 1,2,-1
 557 1101 l 1,3,-1
 263 1101 l 1,0,-1
-61 -385 m 0,4,5
 -126 -385 -126 -385 -184 -371.5 c 128,-1,6
 -242 -358 -242 -358 -289 -339 c 1,7,-1
 -213 -141 l 1,8,9
 -187 -148 -187 -148 -162.5 -154 c 128,-1,10
 -138 -160 -138 -160 -108 -160 c 0,11,12
 -51 -160 -51 -160 -22 -131.5 c 128,-1,13
 7 -103 7 -103 20 -40 c 2,14,-1
 239 980 l 1,15,-1
 531 980 l 1,16,-1
 308 -59 l 2,17,18
 272 -226 272 -226 186.5 -305.5 c 128,-1,19
 101 -385 101 -385 -61 -385 c 0,4,5
EndSplineSet
EndChar

StartChar: k
Encoding: 107 107 131
Width: 1089
GlyphClass: 2
Flags: W
AnchorPoint: "Anchor-7" 450 1336 basechar 0
AnchorPoint: "Anchor-0" 479 -61 basechar 0
LayerCount: 2
Fore
SplineSet
30 0 m 1,0,-1
 312 1324 l 1,1,-1
 592 1324 l 1,2,-1
 454 676 l 1,3,-1
 832 980 l 1,4,-1
 1170 980 l 1,5,-1
 740 634 l 1,6,-1
 996 0 l 1,7,-1
 699 0 l 1,8,-1
 520 485 l 1,9,-1
 391 381 l 1,10,-1
 310 0 l 1,11,-1
 30 0 l 1,0,-1
EndSplineSet
EndChar

StartChar: l
Encoding: 108 108 132
Width: 560
GlyphClass: 2
Flags: W
AnchorPoint: "Anchor-8" 677 646 basechar 0
AnchorPoint: "Anchor-7" 467 1336 basechar 0
AnchorPoint: "Anchor-0" 148 -61 basechar 0
LayerCount: 2
Fore
SplineSet
30 0 m 1,0,-1
 312 1324 l 1,1,-1
 604 1324 l 1,2,-1
 322 0 l 1,3,-1
 30 0 l 1,0,-1
EndSplineSet
EndChar

StartChar: m
Encoding: 109 109 133
Width: 1728
GlyphClass: 2
Flags: W
AnchorPoint: "Anchor-2" 1013 1031 basechar 0
AnchorPoint: "Anchor-0" 784 -61 basechar 0
LayerCount: 2
Fore
SplineSet
30 0 m 1,0,-1
 238 980 l 1,1,-1
 522 980 l 1,2,-1
 499 873 l 1,3,4
 567 947 567 947 638.5 979 c 128,-1,5
 710 1011 710 1011 783 1011 c 0,6,7
 868 1011 868 1011 930 970.5 c 128,-1,8
 992 930 992 930 1020 849 c 1,9,10
 1090 930 1090 930 1175.5 970.5 c 128,-1,11
 1261 1011 1261 1011 1349 1011 c 0,12,13
 1512 1011 1512 1011 1586.5 900.5 c 128,-1,14
 1661 790 1661 790 1623 609 c 2,15,-1
 1495 0 l 1,16,-1
 1203 0 l 1,17,-1
 1326 583 l 2,18,19
 1343 663 1343 663 1332 716 c 128,-1,20
 1321 769 1321 769 1247 769 c 0,21,22
 1183 769 1183 769 1119 718 c 0,23,24
 1084 690 1084 690 1061 657.5 c 128,-1,25
 1038 625 1038 625 1027 571 c 2,26,-1
 908 0 l 1,27,-1
 616 0 l 1,28,-1
 739 583 l 2,29,30
 756 663 756 663 745.5 716 c 128,-1,31
 735 769 735 769 661 769 c 0,32,33
 597 769 597 769 533 718 c 0,34,35
 498 690 498 690 475 657.5 c 128,-1,36
 452 625 452 625 441 571 c 2,37,-1
 322 0 l 1,38,-1
 30 0 l 1,0,-1
EndSplineSet
EndChar

StartChar: n
Encoding: 110 110 134
Width: 1175
GlyphClass: 2
Flags: W
AnchorPoint: "Anchor-2" 718 1031 basechar 0
AnchorPoint: "Anchor-0" 510 -61 basechar 0
LayerCount: 2
Fore
SplineSet
30 0 m 1,0,-1
 239 980 l 1,1,-1
 523 980 l 1,2,-1
 500 874 l 1,3,4
 566 945 566 945 644 978 c 128,-1,5
 722 1011 722 1011 800 1011 c 0,6,7
 964 1011 964 1011 1036 899.5 c 128,-1,8
 1108 788 1108 788 1072 618 c 2,9,-1
 941 0 l 1,10,-1
 649 0 l 1,11,-1
 773 581 l 2,12,13
 791 667 791 667 770.5 718 c 128,-1,14
 750 769 750 769 679 769 c 0,15,16
 592 769 592 769 526 711 c 0,17,18
 462 654 462 654 442 564 c 2,19,-1
 322 0 l 1,20,-1
 30 0 l 1,0,-1
EndSplineSet
EndChar

StartChar: o
Encoding: 111 111 135
Width: 1178
GlyphClass: 2
Flags: W
AnchorPoint: "Anchor-2" 680 1031 basechar 0
AnchorPoint: "Anchor-0" 542 -61 basechar 0
LayerCount: 2
Fore
SplineSet
523 -30 m 0,0,1
 353 -30 353 -30 245 52 c 128,-1,2
 137 134 137 134 100 269 c 128,-1,3
 63 404 63 404 103 563 c 0,4,5
 156 776 156 776 306 893.5 c 128,-1,6
 456 1011 456 1011 653 1011 c 0,7,8
 824 1011 824 1011 931.5 929 c 128,-1,9
 1039 847 1039 847 1076.5 712 c 128,-1,10
 1114 577 1114 577 1073 417 c 0,11,12
 1020 204 1020 204 870 87 c 128,-1,13
 720 -30 720 -30 523 -30 c 0,0,1
541 204 m 0,14,15
 630 204 630 204 693 271.5 c 128,-1,16
 756 339 756 339 783 449 c 0,17,18
 804 531 804 531 796.5 606 c 128,-1,19
 789 681 789 681 749.5 729 c 128,-1,20
 710 777 710 777 635 777 c 0,21,22
 547 777 547 777 483.5 709 c 128,-1,23
 420 641 420 641 393 531 c 0,24,25
 373 449 373 449 380 374 c 128,-1,26
 387 299 387 299 426.5 251.5 c 128,-1,27
 466 204 466 204 541 204 c 0,14,15
EndSplineSet
Substitution2: "'ordn' Ordinals in Latin lookup 3 subtable" ordmasculine
EndChar

StartChar: p
Encoding: 112 112 136
Width: 1226
GlyphClass: 2
Flags: W
AnchorPoint: "Anchor-2" 776 1031 basechar 0
AnchorPoint: "Anchor-1" 82 -438 basechar 0
LayerCount: 2
Fore
SplineSet
-48 -363 m 1,0,-1
 239 980 l 1,1,-1
 524 980 l 1,2,-1
 496 857 l 1,3,4
 557 931 557 931 636 971 c 128,-1,5
 715 1011 715 1011 811 1011 c 0,6,7
 919 1011 919 1011 990 963 c 128,-1,8
 1061 915 1061 915 1098 833 c 128,-1,9
 1135 751 1135 751 1140.5 648 c 128,-1,10
 1146 545 1146 545 1122 435 c 0,11,12
 1094 304 1094 304 1026 198.5 c 128,-1,13
 958 93 958 93 858.5 31.5 c 128,-1,14
 759 -30 759 -30 636 -30 c 0,15,16
 544 -30 544 -30 470 6.5 c 128,-1,17
 396 43 396 43 347 120 c 1,18,-1
 244 -363 l 1,19,-1
 -48 -363 l 1,0,-1
585 206 m 0,20,21
 680 206 680 206 745 281 c 128,-1,22
 810 356 810 356 834 465 c 0,23,24
 852 548 852 548 845.5 619.5 c 128,-1,25
 839 691 839 691 802.5 734.5 c 128,-1,26
 766 778 766 778 694 778 c 0,27,28
 597 778 597 778 526.5 706.5 c 128,-1,29
 456 635 456 635 435 535 c 2,30,-1
 422 473 l 2,31,32
 398 356 398 356 437 281 c 128,-1,33
 476 206 476 206 585 206 c 0,20,21
EndSplineSet
EndChar

StartChar: q
Encoding: 113 113 137
Width: 1224
GlyphClass: 2
Flags: W
AnchorPoint: "Anchor-2" 696 1031 basechar 0
AnchorPoint: "Anchor-1" 801 -438 basechar 0
LayerCount: 2
Fore
SplineSet
588 1011 m 0,0,1
 684 1011 684 1011 760.5 971 c 128,-1,2
 837 931 837 931 885 847 c 1,3,-1
 914 980 l 1,4,-1
 1195 980 l 1,5,-1
 906 -363 l 1,6,-1
 615 -363 l 1,7,-1
 718 113 l 1,8,9
 658 44 658 44 581.5 7 c 128,-1,10
 505 -30 505 -30 413 -30 c 0,11,12
 305 -30 305 -30 234 18 c 128,-1,13
 163 66 163 66 126 148 c 128,-1,14
 89 230 89 230 83.5 333 c 128,-1,15
 78 436 78 436 102 546 c 0,16,17
 130 677 130 677 198 782.5 c 128,-1,18
 266 888 266 888 365.5 949.5 c 128,-1,19
 465 1011 465 1011 588 1011 c 0,0,1
639 778 m 0,20,21
 545 778 545 778 479.5 703 c 128,-1,22
 414 628 414 628 390 519 c 0,23,24
 373 436 373 436 379 364.5 c 128,-1,25
 385 293 385 293 421.5 249.5 c 128,-1,26
 458 206 458 206 530 206 c 0,27,28
 628 206 628 206 698 277.5 c 128,-1,29
 768 349 768 349 789 449 c 2,30,-1
 802 511 l 2,31,32
 826 628 826 628 787 703 c 128,-1,33
 748 778 748 778 639 778 c 0,20,21
EndSplineSet
EndChar

StartChar: r
Encoding: 114 114 138
Width: 816
GlyphClass: 2
Flags: W
AnchorPoint: "Anchor-2" 543 1031 basechar 0
AnchorPoint: "Anchor-0" 148 -61 basechar 0
LayerCount: 2
Fore
SplineSet
30 0 m 1,0,-1
 239 980 l 1,1,-1
 523 980 l 1,2,-1
 498 864 l 1,3,4
 565 934 565 934 637.5 966 c 128,-1,5
 710 998 710 998 789 998 c 0,6,7
 817 998 817 998 840.5 994.5 c 128,-1,8
 864 991 864 991 882 986 c 1,9,-1
 814 739 l 1,10,11
 790 744 790 744 768.5 747 c 128,-1,12
 747 750 747 750 720 750 c 0,13,14
 674 750 674 750 626.5 740.5 c 128,-1,15
 579 731 579 731 531 691 c 0,16,17
 498 663 498 663 472 621.5 c 128,-1,18
 446 580 446 580 433 520 c 2,19,-1
 322 0 l 1,20,-1
 30 0 l 1,0,-1
EndSplineSet
EndChar

StartChar: s
Encoding: 115 115 139
Width: 949
GlyphClass: 2
Flags: W
AnchorPoint: "Anchor-2" 521 1031 basechar 0
AnchorPoint: "Anchor-0" 380 -61 basechar 0
LayerCount: 2
Fore
SplineSet
407 -30 m 256,0,1
 244 -30 244 -30 129.5 40 c 128,-1,2
 15 110 15 110 0 265 c 1,3,-1
 269 265 l 1,4,5
 281 214 281 214 321 195 c 128,-1,6
 361 176 361 176 416 176 c 0,7,8
 476 176 476 176 508.5 199.5 c 128,-1,9
 541 223 541 223 548 257 c 0,10,11
 559 310 559 310 538.5 339.5 c 128,-1,12
 518 369 518 369 475 380 c 2,13,-1
 380 405 l 2,14,15
 227 446 227 446 155 532.5 c 128,-1,16
 83 619 83 619 114 758 c 0,17,18
 141 880 141 880 250.5 945.5 c 128,-1,19
 360 1011 360 1011 514 1011 c 0,20,21
 679 1011 679 1011 777.5 942.5 c 128,-1,22
 876 874 876 874 896 751 c 1,23,-1
 641 704 l 1,24,25
 631 757 631 757 602 784.5 c 128,-1,26
 573 812 573 812 509 812 c 0,27,28
 447 812 447 812 417 788 c 128,-1,29
 387 764 387 764 379 735 c 0,30,31
 365 678 365 678 395.5 653 c 128,-1,32
 426 628 426 628 475 615 c 2,33,-1
 570 590 l 2,34,35
 716 552 716 552 789 462.5 c 128,-1,36
 862 373 862 373 829 223 c 0,37,38
 801 96 801 96 685.5 33 c 128,-1,39
 570 -30 570 -30 407 -30 c 256,0,1
EndSplineSet
EndChar

StartChar: t
Encoding: 116 116 140
Width: 823
GlyphClass: 2
Flags: W
AnchorPoint: "Anchor-9" 785 975 basechar 0
AnchorPoint: "Anchor-2" 521 1312 basechar 0
AnchorPoint: "Anchor-0" 365 -61 basechar 0
LayerCount: 2
Fore
SplineSet
818 980 m 1,0,-1
 770 753 l 1,1,-1
 533 753 l 1,2,-1
 447 350 l 2,3,4
 434 285 434 285 452.5 251 c 128,-1,5
 471 217 471 217 537 217 c 0,6,7
 568 217 568 217 592.5 221.5 c 128,-1,8
 617 226 617 226 644 234 c 1,9,-1
 680 17 l 1,10,11
 634 1 634 1 574 -9 c 128,-1,12
 514 -19 514 -19 450 -19 c 0,13,14
 272 -19 272 -19 194.5 73.5 c 128,-1,15
 117 166 117 166 154 337 c 2,16,-1
 243 753 l 1,17,-1
 84 753 l 1,18,-1
 131 980 l 1,19,-1
 291 980 l 1,20,-1
 347 1242 l 1,21,-1
 637 1242 l 1,22,-1
 581 980 l 1,23,-1
 818 980 l 1,0,-1
EndSplineSet
EndChar

StartChar: u
Encoding: 117 117 141
Width: 1154
GlyphClass: 2
Flags: W
AnchorPoint: "Anchor-3" 738 -93 basechar 0
AnchorPoint: "Anchor-2" 676 1031 basechar 0
AnchorPoint: "Anchor-0" 469 -61 basechar 0
LayerCount: 2
Fore
SplineSet
368 -30 m 0,0,1
 208 -30 208 -30 137.5 81 c 128,-1,2
 67 192 67 192 103 362 c 2,3,-1
 234 980 l 1,4,-1
 526 980 l 1,5,-1
 402 399 l 2,6,7
 384 313 384 313 404 262.5 c 128,-1,8
 424 212 424 212 489 212 c 0,9,10
 570 212 570 212 633 271.5 c 128,-1,11
 696 331 696 331 713 416 c 2,12,-1
 833 980 l 1,13,-1
 1125 980 l 1,14,-1
 916 0 l 1,15,-1
 632 0 l 1,16,-1
 655 103 l 1,17,18
 591 34 591 34 516.5 2 c 128,-1,19
 442 -30 442 -30 368 -30 c 0,0,1
EndSplineSet
EndChar

StartChar: v
Encoding: 118 118 142
Width: 1070
GlyphClass: 2
Flags: W
AnchorPoint: "Anchor-2" 675 1031 basechar 0
AnchorPoint: "Anchor-0" 451 -61 basechar 0
LayerCount: 2
Fore
SplineSet
284 0 m 1,0,-1
 118 980 l 1,1,-1
 420 980 l 1,2,-1
 488 279 l 1,3,-1
 859 980 l 1,4,-1
 1162 980 l 1,5,-1
 588 0 l 1,6,-1
 284 0 l 1,0,-1
EndSplineSet
EndChar

StartChar: w
Encoding: 119 119 143
Width: 1485
GlyphClass: 2
Flags: W
AnchorPoint: "Anchor-2" 840 1031 basechar 0
AnchorPoint: "Anchor-0" 672 -61 basechar 0
LayerCount: 2
Fore
SplineSet
197 0 m 1,0,-1
 118 980 l 1,1,-1
 397 980 l 1,2,-1
 413 341 l 1,3,-1
 725 973 l 1,4,-1
 960 973 l 1,5,-1
 1005 334 l 1,6,-1
 1301 980 l 1,7,-1
 1577 980 l 1,8,-1
 1088 0 l 1,9,-1
 816 0 l 1,10,-1
 776 635 l 1,11,-1
 459 0 l 1,12,-1
 197 0 l 1,0,-1
EndSplineSet
EndChar

StartChar: x
Encoding: 120 120 144
Width: 1034
GlyphClass: 2
Flags: W
AnchorPoint: "Anchor-2" 660 1031 basechar 0
AnchorPoint: "Anchor-0" 429 -61 basechar 0
LayerCount: 2
Fore
SplineSet
-100 0 m 1,0,-1
 370 515 l 1,1,-1
 142 980 l 1,2,-1
 441 980 l 1,3,-1
 564 696 l 1,4,-1
 804 980 l 1,5,-1
 1100 980 l 1,6,-1
 678 499 l 1,7,-1
 923 0 l 1,8,-1
 629 0 l 1,9,-1
 483 319 l 1,10,-1
 210 0 l 1,11,-1
 -100 0 l 1,0,-1
EndSplineSet
EndChar

StartChar: y
Encoding: 121 121 145
Width: 1065
GlyphClass: 2
Flags: W
AnchorPoint: "Anchor-2" 626 1031 basechar 0
AnchorPoint: "Anchor-1" 137 -438 basechar 0
LayerCount: 2
Fore
SplineSet
108 -385 m 0,0,1
 0 -385 0 -385 -95 -343 c 1,2,-1
 -12 -133 l 1,3,4
 35 -154 35 -154 93 -154 c 0,5,6
 156 -154 156 -154 200 -117 c 128,-1,7
 244 -80 244 -80 284 -13 c 2,8,-1
 333 68 l 1,9,-1
 116 980 l 1,10,-1
 414 980 l 1,11,-1
 517 350 l 1,12,-1
 861 980 l 1,13,-1
 1168 980 l 1,14,-1
 532 -55 l 2,15,16
 465 -165 465 -165 403.5 -238.5 c 128,-1,17
 342 -312 342 -312 272 -348.5 c 128,-1,18
 202 -385 202 -385 108 -385 c 0,0,1
EndSplineSet
EndChar

StartChar: z
Encoding: 122 122 146
Width: 1002
GlyphClass: 2
Flags: W
AnchorPoint: "Anchor-2" 584 1031 basechar 0
AnchorPoint: "Anchor-0" 409 -61 basechar 0
LayerCount: 2
Fore
SplineSet
-28 0 m 1,0,-1
 12 186 l 1,1,-1
 601 756 l 1,2,-1
 137 756 l 1,3,-1
 183 980 l 1,4,-1
 1012 980 l 1,5,-1
 974 794 l 1,6,-1
 385 224 l 1,7,-1
 887 224 l 1,8,-1
 821 0 l 1,9,-1
 -28 0 l 1,0,-1
EndSplineSet
EndChar

StartChar: trademark
Encoding: 8482 8482 147
Width: 1424
Flags: W
LayerCount: 2
Fore
SplineSet
681 665 m 1,0,-1
 821 1324 l 1,1,-1
 1057 1324 l 1,2,-1
 1079 895 l 1,3,-1
 1277 1324 l 1,4,-1
 1512 1324 l 1,5,-1
 1372 665 l 1,6,-1
 1204 665 l 1,7,-1
 1290 1069 l 1,8,-1
 1098 665 l 1,9,-1
 960 665 l 1,10,-1
 935 1083 l 1,11,-1
 846 665 l 1,12,-1
 681 665 l 1,0,-1
239 665 m 1,13,-1
 343 1154 l 1,14,-1
 178 1154 l 1,15,-1
 214 1324 l 1,16,-1
 732 1324 l 1,17,-1
 696 1154 l 1,18,-1
 531 1154 l 1,19,-1
 427 665 l 1,20,-1
 239 665 l 1,13,-1
EndSplineSet
EndChar

StartChar: ordfeminine
Encoding: 170 170 148
Width: 734
Flags: W
LayerCount: 2
Fore
SplineSet
313 600 m 0,0,1
 215 600 215 600 155.5 652.5 c 128,-1,2
 96 705 96 705 96 794 c 0,3,4
 96 934 96 934 208.5 996 c 128,-1,5
 321 1058 321 1058 505 1064 c 2,6,-1
 617 1067 l 1,7,-1
 618 1071 l 2,8,9
 632 1133 632 1133 612 1168 c 128,-1,10
 592 1203 592 1203 524 1203 c 0,11,12
 463 1203 463 1203 434 1186.5 c 128,-1,13
 405 1170 405 1170 388 1124 c 1,14,-1
 198 1141 l 1,15,16
 227 1252 227 1252 315 1305 c 128,-1,17
 403 1358 403 1358 545 1358 c 0,18,19
 703 1358 703 1358 776.5 1279.5 c 128,-1,20
 850 1201 850 1201 818 1049 c 2,21,-1
 726 618 l 1,22,-1
 527 618 l 1,23,-1
 544 697 l 1,24,25
 498 651 498 651 443.5 625.5 c 128,-1,26
 389 600 389 600 313 600 c 0,0,1
300 826 m 0,27,28
 300 753 300 753 387 753 c 0,29,30
 453 753 453 753 505 788 c 0,31,32
 533 808 533 808 552 831.5 c 128,-1,33
 571 855 571 855 579 892 c 2,34,-1
 589 940 l 1,35,-1
 503 937 l 2,36,37
 388 933 388 933 344 903 c 128,-1,38
 300 873 300 873 300 826 c 0,27,28
EndSplineSet
EndChar

StartChar: ordmasculine
Encoding: 186 186 149
Width: 846
Flags: W
LayerCount: 2
Fore
SplineSet
472 583 m 0,0,1
 349 583 349 583 266 642 c 128,-1,2
 183 701 183 701 151 801.5 c 128,-1,3
 119 902 119 902 148 1024 c 0,4,5
 184 1178 184 1178 303 1268 c 128,-1,6
 422 1358 422 1358 579 1358 c 0,7,8
 703 1358 703 1358 785.5 1299 c 128,-1,9
 868 1240 868 1240 900 1140 c 128,-1,10
 932 1040 932 1040 903 917 c 0,11,12
 867 763 867 763 748 673 c 128,-1,13
 629 583 629 583 472 583 c 0,0,1
491 771 m 0,14,15
 559 771 559 771 607 814 c 128,-1,16
 655 857 655 857 674 934 c 0,17,18
 696 1027 696 1027 671.5 1098.5 c 128,-1,19
 647 1170 647 1170 560 1170 c 0,20,21
 492 1170 492 1170 444 1127 c 128,-1,22
 396 1084 396 1084 377 1007 c 0,23,24
 355 914 355 914 379.5 842.5 c 128,-1,25
 404 771 404 771 491 771 c 0,14,15
EndSplineSet
EndChar

StartChar: copyright
Encoding: 169 169 150
Width: 1593
Flags: W
LayerCount: 2
Fore
SplineSet
835 0 m 0,0,1
 649 0 649 0 505.5 83.5 c 128,-1,2
 362 167 362 167 281 316.5 c 128,-1,3
 200 466 200 466 200 662 c 0,4,5
 200 859 200 859 283 1008 c 128,-1,6
 366 1157 366 1157 510 1240.5 c 128,-1,7
 654 1324 654 1324 835 1324 c 0,8,9
 1021 1324 1021 1324 1163.5 1240.5 c 128,-1,10
 1306 1157 1306 1157 1386.5 1008 c 128,-1,11
 1467 859 1467 859 1467 662 c 0,12,13
 1467 466 1467 466 1384.5 316.5 c 128,-1,14
 1302 167 1302 167 1159 83.5 c 128,-1,15
 1016 0 1016 0 835 0 c 0,0,1
834 149 m 256,16,17
 973 149 973 149 1079 212.5 c 128,-1,18
 1185 276 1185 276 1244.5 391.5 c 128,-1,19
 1304 507 1304 507 1304 662 c 256,20,21
 1304 817 1304 817 1244.5 932.5 c 128,-1,22
 1185 1048 1185 1048 1079 1111.5 c 128,-1,23
 973 1175 973 1175 834 1175 c 0,24,25
 694 1175 694 1175 588 1111.5 c 128,-1,26
 482 1048 482 1048 422.5 932.5 c 128,-1,27
 363 817 363 817 363 662 c 256,28,29
 363 507 363 507 422.5 391.5 c 128,-1,30
 482 276 482 276 588.5 212.5 c 128,-1,31
 695 149 695 149 834 149 c 256,16,17
843 296 m 0,32,33
 676 296 676 296 586.5 394 c 128,-1,34
 497 492 497 492 497 663 c 0,35,36
 497 839 497 839 589.5 941.5 c 128,-1,37
 682 1044 682 1044 845 1044 c 0,38,39
 981 1044 981 1044 1060 976 c 128,-1,40
 1139 908 1139 908 1156 786 c 1,41,-1
 959 760 l 1,42,43
 940 864 940 864 843 864 c 0,44,45
 770 864 770 864 738 811 c 128,-1,46
 706 758 706 758 706 671 c 0,47,48
 706 583 706 583 738.5 529 c 128,-1,49
 771 475 771 475 845 475 c 0,50,51
 951 475 951 475 969 580 c 1,52,-1
 1166 580 l 1,53,54
 1154 450 1154 450 1071.5 373 c 128,-1,55
 989 296 989 296 843 296 c 0,32,33
EndSplineSet
EndChar

StartChar: registered
Encoding: 174 174 151
Width: 1364
Flags: W
LayerCount: 2
Fore
SplineSet
134 758 m 0,0,1
 134 940 134 940 213 1075 c 128,-1,2
 292 1210 292 1210 429 1284.5 c 128,-1,3
 566 1359 566 1359 740 1359 c 256,4,5
 914 1359 914 1359 1051 1284.5 c 128,-1,6
 1188 1210 1188 1210 1267 1075 c 128,-1,7
 1346 940 1346 940 1346 758 c 0,8,9
 1346 577 1346 577 1267 441.5 c 128,-1,10
 1188 306 1188 306 1051 231.5 c 128,-1,11
 914 157 914 157 740 157 c 256,12,13
 566 157 566 157 429 231.5 c 128,-1,14
 292 306 292 306 213 441.5 c 128,-1,15
 134 577 134 577 134 758 c 0,0,1
271 758 m 256,16,17
 271 531 271 531 397.5 405.5 c 128,-1,18
 524 280 524 280 742 280 c 0,19,20
 957 280 957 280 1083 405.5 c 128,-1,21
 1209 531 1209 531 1209 758 c 256,22,23
 1209 985 1209 985 1082.5 1110.5 c 128,-1,24
 956 1236 956 1236 738 1236 c 0,25,26
 523 1236 523 1236 397 1110.5 c 128,-1,27
 271 985 271 985 271 758 c 256,16,17
487 454 m 1,28,-1
 487 1066 l 1,29,-1
 738 1066 l 2,30,31
 875 1066 875 1066 932.5 1009 c 128,-1,32
 990 952 990 952 990 865 c 0,33,34
 990 807 990 807 969.5 763.5 c 128,-1,35
 949 720 949 720 904 696 c 1,36,-1
 1024 454 l 1,37,-1
 832 454 l 1,38,-1
 743 658 l 1,39,-1
 658 658 l 1,40,-1
 658 454 l 1,41,-1
 487 454 l 1,28,-1
726 933 m 2,42,-1
 658 933 l 1,43,-1
 658 791 l 1,44,-1
 733 791 l 2,45,46
 785 791 785 791 803 808.5 c 128,-1,47
 821 826 821 826 821 863 c 0,48,49
 821 897 821 897 800.5 915 c 128,-1,50
 780 933 780 933 726 933 c 2,42,-1
EndSplineSet
EndChar

StartChar: partialdiff
Encoding: 8706 8706 152
Width: 1155
Flags: W
LayerCount: 2
Fore
SplineSet
439 -34 m 0,0,1
 319 -34 319 -34 227 15.5 c 128,-1,2
 135 65 135 65 83.5 153.5 c 128,-1,3
 32 242 32 242 32 360 c 0,4,5
 32 486 32 486 90 595 c 128,-1,6
 148 704 148 704 253 771.5 c 128,-1,7
 358 839 358 839 499 839 c 0,8,9
 579 839 579 839 653.5 806 c 128,-1,10
 728 773 728 773 769 711 c 1,11,12
 776 744 776 744 781.5 781 c 128,-1,13
 787 818 787 818 787 861 c 0,14,15
 787 989 787 989 746 1045.5 c 128,-1,16
 705 1102 705 1102 634 1102 c 0,17,18
 523 1102 523 1102 469 969 c 1,19,-1
 213 1006 l 1,20,21
 272 1172 272 1172 387 1251.5 c 128,-1,22
 502 1331 502 1331 653 1331 c 0,23,24
 830 1331 830 1331 936 1221.5 c 128,-1,25
 1042 1112 1042 1112 1042 872 c 0,26,27
 1042 792 1042 792 1029.5 688.5 c 128,-1,28
 1017 585 1017 585 987.5 477 c 128,-1,29
 958 369 958 369 908 275 c 0,30,31
 836 139 836 139 725 52.5 c 128,-1,32
 614 -34 614 -34 439 -34 c 0,0,1
453 189 m 0,33,34
 524 189 524 189 578.5 230 c 128,-1,35
 633 271 633 271 664 335 c 128,-1,36
 695 399 695 399 695 466 c 0,37,38
 695 549 695 549 651 590.5 c 128,-1,39
 607 632 607 632 530 632 c 256,40,41
 453 632 453 632 399 594 c 128,-1,42
 345 556 345 556 316.5 496 c 128,-1,43
 288 436 288 436 288 371 c 0,44,45
 288 289 288 289 331 239 c 128,-1,46
 374 189 374 189 453 189 c 0,33,34
EndSplineSet
EndChar

StartChar: product
Encoding: 8719 8719 153
Width: 1384
Flags: W
LayerCount: 2
Fore
SplineSet
49 0 m 1,0,-1
 330 1324 l 1,1,-1
 1408 1324 l 1,2,-1
 1127 0 l 1,3,-1
 819 0 l 1,4,-1
 1044 1056 l 1,5,-1
 582 1056 l 1,6,-1
 357 0 l 1,7,-1
 49 0 l 1,0,-1
EndSplineSet
EndChar

StartChar: summation
Encoding: 8721 8721 154
Width: 1099
Flags: W
LayerCount: 2
Fore
SplineSet
-114 -191 m 1,0,-1
 -78 -14 l 1,1,-1
 445 574 l 1,2,-1
 171 1146 l 1,3,-1
 208 1324 l 1,4,-1
 1253 1324 l 1,5,-1
 1200 1073 l 1,6,-1
 503 1073 l 1,7,-1
 750 551 l 1,8,-1
 313 60 l 1,9,-1
 1003 60 l 1,10,-1
 925 -191 l 1,11,-1
 -114 -191 l 1,0,-1
EndSplineSet
EndChar

StartChar: radical
Encoding: 8730 8730 155
Width: 1222
Flags: W
LayerCount: 2
Fore
SplineSet
347 0 m 1,0,-1
 248 532 l 1,1,-1
 78 532 l 1,2,-1
 130 785 l 1,3,-1
 481 785 l 1,4,-1
 542 309 l 1,5,-1
 1100 1357 l 1,6,-1
 1403 1357 l 1,7,-1
 632 0 l 1,8,-1
 347 0 l 1,0,-1
EndSplineSet
EndChar

StartChar: infinity
Encoding: 8734 8734 156
Width: 1568
Flags: W
LayerCount: 2
Fore
SplineSet
519 304 m 0,0,1
 413 304 413 304 346 377.5 c 128,-1,2
 279 451 279 451 279 574 c 0,3,4
 279 700 279 700 326 790.5 c 128,-1,5
 373 881 373 881 450.5 929.5 c 128,-1,6
 528 978 528 978 617 978 c 0,7,8
 702 978 702 978 755.5 933.5 c 128,-1,9
 809 889 809 889 840 825 c 1,10,11
 890 890 890 890 958 933.5 c 128,-1,12
 1026 977 1026 977 1114 977 c 0,13,14
 1218 977 1218 977 1285.5 903 c 128,-1,15
 1353 829 1353 829 1353 708 c 0,16,17
 1353 582 1353 582 1306 491.5 c 128,-1,18
 1259 401 1259 401 1182.5 352.5 c 128,-1,19
 1106 304 1106 304 1016 304 c 0,20,21
 931 304 931 304 877.5 347 c 128,-1,22
 824 390 824 390 792 458 c 1,23,24
 742 389 742 389 673 346.5 c 128,-1,25
 604 304 604 304 519 304 c 0,0,1
571 501 m 0,26,27
 621 501 621 501 664.5 543.5 c 128,-1,28
 708 586 708 586 729 650 c 1,29,30
 720 706 720 706 694 742.5 c 128,-1,31
 668 779 668 779 619 779 c 0,32,33
 567 779 567 779 525 733.5 c 128,-1,34
 483 688 483 688 483 608 c 0,35,36
 483 561 483 561 506 531 c 128,-1,37
 529 501 529 501 571 501 c 0,26,27
1015 501 m 0,38,39
 1066 501 1066 501 1108.5 547 c 128,-1,40
 1151 593 1151 593 1151 672 c 0,41,42
 1151 719 1151 719 1128.5 749 c 128,-1,43
 1106 779 1106 779 1064 779 c 0,44,45
 1019 779 1019 779 973.5 739 c 128,-1,46
 928 699 928 699 905 629 c 1,47,48
 914 574 914 574 939.5 537.5 c 128,-1,49
 965 501 965 501 1015 501 c 0,38,39
EndSplineSet
EndChar

StartChar: integral
Encoding: 8747 8747 157
Width: 949
Flags: W
LayerCount: 2
Fore
SplineSet
254 -223 m 0,0,1
 193 -223 193 -223 135.5 -209 c 128,-1,2
 78 -195 78 -195 40 -176 c 1,3,-1
 117 20 l 1,4,5
 132 13 132 13 155.5 6.5 c 128,-1,6
 179 0 179 0 205 0 c 0,7,8
 271 0 271 0 296.5 45.5 c 128,-1,9
 322 91 322 91 329 200 c 2,10,-1
 382 945 l 2,11,12
 390 1053 390 1053 419.5 1142.5 c 128,-1,13
 449 1232 449 1232 520.5 1285.5 c 128,-1,14
 592 1339 592 1339 724 1339 c 0,15,16
 785 1339 785 1339 842.5 1325.5 c 128,-1,17
 900 1312 900 1312 938 1292 c 1,18,-1
 861 1096 l 1,19,20
 846 1104 846 1104 822.5 1110 c 128,-1,21
 799 1116 799 1116 773 1116 c 0,22,23
 707 1116 707 1116 682 1070.5 c 128,-1,24
 657 1025 657 1025 649 916 c 2,25,-1
 596 171 l 2,26,27
 589 63 589 63 559 -26.5 c 128,-1,28
 529 -116 529 -116 457.5 -169.5 c 128,-1,29
 386 -223 386 -223 254 -223 c 0,0,1
EndSplineSet
EndChar

StartChar: lozenge
Encoding: 9674 9674 158
Width: 1357
Flags: W
LayerCount: 2
Fore
SplineSet
442 0 m 1,0,-1
 188 670 l 1,1,-1
 727 1340 l 1,2,-1
 990 1340 l 1,3,-1
 1245 670 l 1,4,-1
 704 0 l 1,5,-1
 442 0 l 1,0,-1
484 651 m 1,6,-1
 620 271 l 1,7,-1
 947 690 l 1,8,-1
 811 1068 l 1,9,-1
 484 651 l 1,6,-1
EndSplineSet
EndChar

StartChar: quoteleft
Encoding: 8216 8216 161
Width: 448
Flags: W
LayerCount: 2
Fore
SplineSet
126 845 m 1,0,-1
 349 1324 l 1,1,-1
 577 1324 l 1,2,-1
 415 845 l 1,3,-1
 126 845 l 1,0,-1
EndSplineSet
EndChar

StartChar: quoteright
Encoding: 8217 8217 162
Width: 448
Flags: W
LayerCount: 2
Fore
SplineSet
577 1324 m 1,0,-1
 354 845 l 1,1,-1
 126 845 l 1,2,-1
 288 1324 l 1,3,-1
 577 1324 l 1,0,-1
EndSplineSet
EndChar

StartChar: dotlessi
Encoding: 305 305 168
Width: 560
GlyphClass: 2
Flags: W
AnchorPoint: "Anchor-3" 144 -93 basechar 0
AnchorPoint: "Anchor-2" 394 1031 basechar 0
AnchorPoint: "Anchor-0" 176 -61 basechar 0
LayerCount: 2
Fore
SplineSet
30 0 m 1,0,-1
 239 980 l 1,1,-1
 531 980 l 1,2,-1
 322 0 l 1,3,-1
 30 0 l 1,0,-1
EndSplineSet
EndChar

StartChar: uni0237
Encoding: 567 567 169
Width: 560
GlyphClass: 2
Flags: W
AnchorPoint: "Anchor-2" 394 1031 basechar 0
AnchorPoint: "Anchor-1" -66 -438 basechar 0
LayerCount: 2
Fore
SplineSet
-61 -385 m 0,0,1
 -126 -385 -126 -385 -184 -371.5 c 128,-1,2
 -242 -358 -242 -358 -289 -339 c 1,3,-1
 -213 -141 l 1,4,5
 -187 -148 -187 -148 -162.5 -154 c 128,-1,6
 -138 -160 -138 -160 -108 -160 c 0,7,8
 -51 -160 -51 -160 -22 -131.5 c 128,-1,9
 7 -103 7 -103 20 -40 c 2,10,-1
 239 980 l 1,11,-1
 531 980 l 1,12,-1
 308 -59 l 2,13,14
 272 -226 272 -226 186.5 -305.5 c 128,-1,15
 101 -385 101 -385 -61 -385 c 0,0,1
EndSplineSet
EndChar

StartChar: IJ
Encoding: 306 306 171
Width: 1300
Flags: W
LayerCount: 2
Fore
SplineSet
597 -34 m 0,0,1
 444 -34 444 -34 332 23.5 c 128,-1,2
 220 81 220 81 168.5 193 c 128,-1,3
 117 305 117 305 143 470 c 1,4,-1
 446 470 l 1,5,6
 432 362 432 362 469 296.5 c 128,-1,7
 506 231 506 231 615 231 c 0,8,9
 720 231 720 231 769.5 292 c 128,-1,10
 819 353 819 353 847 482 c 2,11,-1
 1027 1324 l 1,12,-1
 1335 1324 l 1,13,-1
 1157 486 l 2,14,15
 1101 220 1101 220 967 93 c 128,-1,16
 833 -34 833 -34 597 -34 c 0,0,1
179 665 m 1,17,-1
 319 1324 l 1,18,-1
 627 1324 l 1,19,-1
 487 665 l 1,20,-1
 179 665 l 1,17,-1
EndSplineSet
Ligature2: "'dlig' Discretionary Ligatures in Latin lookup 1 subtable" I j
Ligature2: "'dlig' Discretionary Ligatures in Latin lookup 1 subtable" I J
EndChar

StartChar: Thorn
Encoding: 222 222 191
Width: 1218
Flags: W
LayerCount: 2
Fore
SplineSet
48 0 m 1,0,-1
 329 1324 l 1,1,-1
 637 1324 l 1,2,-1
 592 1111 l 1,3,-1
 722 1111 l 2,4,5
 983 1111 983 1111 1104 978 c 128,-1,6
 1225 845 1225 845 1175 603 c 0,7,8
 1140 431 1140 431 987 333.5 c 128,-1,9
 834 236 834 236 606 236 c 2,10,-1
 406 236 l 1,11,-1
 356 0 l 1,12,-1
 48 0 l 1,0,-1
674 868 m 2,13,-1
 540 868 l 1,14,-1
 458 481 l 1,15,-1
 596 481 l 2,16,17
 708 481 708 481 784 515.5 c 128,-1,18
 860 550 860 550 879 641 c 0,19,20
 904 765 904 765 852 816.5 c 128,-1,21
 800 868 800 868 674 868 c 2,13,-1
EndSplineSet
EndChar

StartChar: AE
Encoding: 198 198 192
Width: 2012
Flags: W
LayerCount: 2
Fore
SplineSet
-86 0 m 1,0,-1
 929 1324 l 1,1,-1
 2103 1324 l 1,2,-1
 2051 1078 l 1,3,-1
 1475 1078 l 1,4,-1
 1416 800 l 1,5,-1
 1956 800 l 1,6,-1
 1904 553 l 1,7,-1
 1364 553 l 1,8,-1
 1298 246 l 1,9,-1
 1909 246 l 1,10,-1
 1828 0 l 1,11,-1
 941 0 l 1,12,-1
 1021 375 l 1,13,-1
 540 375 l 1,14,-1
 268 0 l 1,15,-1
 -86 0 l 1,0,-1
719 622 m 1,16,-1
 1073 622 l 1,17,-1
 1170 1078 l 1,18,-1
 1049 1078 l 1,19,-1
 719 622 l 1,16,-1
EndSplineSet
EndChar

StartChar: OE
Encoding: 338 338 193
Width: 1998
Flags: W
LayerCount: 2
Fore
SplineSet
604 -34 m 0,0,1
 475 -34 475 -34 383 13.5 c 128,-1,2
 291 61 291 61 233.5 142 c 128,-1,3
 176 223 176 223 148 323.5 c 128,-1,4
 120 424 120 424 119 531.5 c 128,-1,5
 118 639 118 639 139 739 c 0,6,7
 164 853 164 853 217.5 963.5 c 128,-1,8
 271 1074 271 1074 353.5 1163 c 128,-1,9
 436 1252 436 1252 548 1305 c 128,-1,10
 660 1358 660 1358 801 1358 c 0,11,12
 939 1358 939 1358 1031 1305 c 128,-1,13
 1123 1252 1123 1252 1174 1162 c 1,14,-1
 1208 1324 l 1,15,-1
 2089 1324 l 1,16,-1
 2037 1078 l 1,17,-1
 1461 1078 l 1,18,-1
 1402 800 l 1,19,-1
 1942 800 l 1,20,-1
 1890 553 l 1,21,-1
 1350 553 l 1,22,-1
 1284 246 l 1,23,-1
 1895 246 l 1,24,-1
 1814 0 l 1,25,-1
 927 0 l 1,26,-1
 951 115 l 1,27,28
 885 46 885 46 801 6 c 128,-1,29
 717 -34 717 -34 604 -34 c 0,0,1
680 218 m 0,30,31
 784 218 784 218 860.5 269 c 128,-1,32
 937 320 937 320 987 405.5 c 128,-1,33
 1037 491 1037 491 1059 597 c 0,34,35
 1075 673 1075 673 1077.5 761 c 128,-1,36
 1080 849 1080 849 1058 927.5 c 128,-1,37
 1036 1006 1036 1006 980 1056 c 128,-1,38
 924 1106 924 1106 822 1106 c 0,39,40
 709 1106 709 1106 631.5 1047.5 c 128,-1,41
 554 989 554 989 507.5 898.5 c 128,-1,42
 461 808 461 808 440 713 c 0,43,44
 424 638 424 638 423.5 552 c 128,-1,45
 423 466 423 466 446.5 390 c 128,-1,46
 470 314 470 314 526.5 266 c 128,-1,47
 583 218 583 218 680 218 c 0,30,31
EndSplineSet
EndChar

StartChar: thorn
Encoding: 254 254 194
Width: 1226
Flags: W
LayerCount: 2
Fore
SplineSet
-48 -363 m 1,0,-1
 312 1324 l 1,1,-1
 603 1324 l 1,2,-1
 503 865 l 1,3,4
 563 935 563 935 640.5 973 c 128,-1,5
 718 1011 718 1011 811 1011 c 0,6,7
 919 1011 919 1011 990 963 c 128,-1,8
 1061 915 1061 915 1098 833 c 128,-1,9
 1135 751 1135 751 1140.5 648 c 128,-1,10
 1146 545 1146 545 1122 435 c 0,11,12
 1094 304 1094 304 1026 198.5 c 128,-1,13
 958 93 958 93 858.5 31.5 c 128,-1,14
 759 -30 759 -30 636 -30 c 0,15,16
 544 -30 544 -30 470 6.5 c 128,-1,17
 396 43 396 43 347 120 c 1,18,-1
 244 -363 l 1,19,-1
 -48 -363 l 1,0,-1
585 206 m 0,20,21
 680 206 680 206 745 281 c 128,-1,22
 810 356 810 356 834 465 c 0,23,24
 852 548 852 548 845.5 619.5 c 128,-1,25
 839 691 839 691 802.5 734.5 c 128,-1,26
 766 778 766 778 694 778 c 0,27,28
 597 778 597 778 526.5 706.5 c 128,-1,29
 456 635 456 635 435 535 c 2,30,-1
 422 473 l 2,31,32
 398 356 398 356 437 281 c 128,-1,33
 476 206 476 206 585 206 c 0,20,21
EndSplineSet
EndChar

StartChar: ae
Encoding: 230 230 195
Width: 1681
Flags: W
LayerCount: 2
Fore
SplineSet
1103 -30 m 0,0,1
 963 -30 963 -30 874 21.5 c 128,-1,2
 785 73 785 73 738 157 c 1,3,4
 596 -25 596 -25 336 -25 c 0,5,6
 205 -25 205 -25 129.5 25 c 128,-1,7
 54 75 54 75 28.5 154.5 c 128,-1,8
 3 234 3 234 21 322 c 0,9,10
 52 467 52 467 198.5 531.5 c 128,-1,11
 345 596 345 596 566 604 c 2,12,-1
 702 609 l 1,13,14
 719 709 719 709 694 758.5 c 128,-1,15
 669 808 669 808 572 808 c 0,16,17
 517 808 517 808 475.5 786 c 128,-1,18
 434 764 434 764 411 711 c 1,19,-1
 157 735 l 1,20,21
 240 1011 240 1011 607 1011 c 0,22,23
 725 1011 725 1011 792.5 970 c 128,-1,24
 860 929 860 929 889 871 c 1,25,26
 945 939 945 939 1029 975 c 128,-1,27
 1113 1011 1113 1011 1201 1011 c 0,28,29
 1332 1011 1332 1011 1417.5 962.5 c 128,-1,30
 1503 914 1503 914 1547.5 834 c 128,-1,31
 1592 754 1592 754 1601 658.5 c 128,-1,32
 1610 563 1610 563 1588 468 c 2,33,-1
 1578 425 l 1,34,-1
 912 425 l 1,35,36
 908 359 908 359 924 303 c 128,-1,37
 940 247 940 247 983.5 213 c 128,-1,38
 1027 179 1027 179 1106 179 c 0,39,40
 1186 179 1186 179 1228.5 209.5 c 128,-1,41
 1271 240 1271 240 1290 301 c 1,42,-1
 1552 301 l 1,43,44
 1515 146 1515 146 1401.5 58 c 128,-1,45
 1288 -30 1288 -30 1103 -30 c 0,0,1
1185 806 m 0,46,47
 1084 806 1084 806 1026.5 740 c 128,-1,48
 969 674 969 674 942 588 c 1,49,-1
 1341 588 l 1,50,51
 1355 687 1355 687 1316.5 746.5 c 128,-1,52
 1278 806 1278 806 1185 806 c 0,46,47
292 311 m 0,53,54
 280 259 280 259 300.5 217.5 c 128,-1,55
 321 176 321 176 394 176 c 0,56,57
 497 176 497 176 565.5 226.5 c 128,-1,58
 634 277 634 277 653 373 c 2,59,-1
 665 431 l 1,60,-1
 566 427 l 2,61,62
 430 421 430 421 367.5 392.5 c 128,-1,63
 305 364 305 364 292 311 c 0,53,54
EndSplineSet
EndChar

StartChar: oe
Encoding: 339 339 196
Width: 1819
Flags: W
LayerCount: 2
Fore
SplineSet
513 -30 m 0,0,1
 343 -30 343 -30 238 52 c 128,-1,2
 133 134 133 134 98.5 269 c 128,-1,3
 64 404 64 404 104 563 c 0,4,5
 157 776 157 776 296 893 c 128,-1,6
 435 1010 435 1010 630 1011 c 0,7,8
 745 1011 745 1011 832.5 965.5 c 128,-1,9
 920 920 920 920 969 838 c 1,10,11
 1035 921 1035 921 1127 966 c 128,-1,12
 1219 1011 1219 1011 1338 1011 c 0,13,14
 1470 1011 1470 1011 1555.5 962.5 c 128,-1,15
 1641 914 1641 914 1685.5 834 c 128,-1,16
 1730 754 1730 754 1739 658.5 c 128,-1,17
 1748 563 1748 563 1726 468 c 2,18,-1
 1716 425 l 1,19,-1
 1050 425 l 1,20,21
 1046 359 1046 359 1062 303 c 128,-1,22
 1078 247 1078 247 1121.5 213 c 128,-1,23
 1165 179 1165 179 1243 179 c 0,24,25
 1324 179 1324 179 1366.5 209.5 c 128,-1,26
 1409 240 1409 240 1428 301 c 1,27,-1
 1690 301 l 1,28,29
 1653 146 1653 146 1539 58 c 128,-1,30
 1425 -30 1425 -30 1240 -30 c 0,31,32
 1096 -30 1096 -30 1013.5 20 c 128,-1,33
 931 70 931 70 884 145 c 1,34,35
 812 61 812 61 719.5 15.5 c 128,-1,36
 627 -30 627 -30 513 -30 c 0,0,1
1322 806 m 0,37,38
 1222 806 1222 806 1164.5 740 c 128,-1,39
 1107 674 1107 674 1080 588 c 1,40,-1
 1479 588 l 1,41,42
 1493 687 1493 687 1454.5 746.5 c 128,-1,43
 1416 806 1416 806 1322 806 c 0,37,38
541 204 m 0,44,45
 630 204 630 204 693.5 271.5 c 128,-1,46
 757 339 757 339 784 449 c 0,47,48
 805 531 805 531 797.5 606 c 128,-1,49
 790 681 790 681 750.5 729 c 128,-1,50
 711 777 711 777 635 777 c 0,51,52
 547 777 547 777 483.5 709 c 128,-1,53
 420 641 420 641 394 531 c 0,54,55
 374 449 374 449 381 374 c 128,-1,56
 388 299 388 299 427.5 251.5 c 128,-1,57
 467 204 467 204 541 204 c 0,44,45
EndSplineSet
EndChar

StartChar: germandbls
Encoding: 223 223 197
Width: 1191
Flags: W
LayerCount: 2
Fore
SplineSet
630 -17 m 0,0,1
 527 -17 527 -17 425 20 c 1,2,-1
 499 233 l 1,3,4
 552 211 552 211 617 211 c 0,5,6
 721 211 721 211 769 263 c 128,-1,7
 817 315 817 315 817 414 c 0,8,9
 817 583 817 583 625 583 c 2,10,-1
 567 583 l 1,11,-1
 612 802 l 1,12,-1
 652 802 l 2,13,14
 731 802 731 802 788 847 c 128,-1,15
 845 892 845 892 845 986 c 0,16,17
 845 1042 845 1042 809.5 1078 c 128,-1,18
 774 1114 774 1114 709 1114 c 0,19,20
 629 1114 629 1114 584 1066 c 128,-1,21
 539 1018 539 1018 517 915 c 2,22,-1
 322 0 l 1,23,-1
 30 0 l 1,24,-1
 227 926 l 2,25,26
 270 1129 270 1129 393 1234.5 c 128,-1,27
 516 1340 516 1340 719 1340 c 0,28,29
 906 1340 906 1340 1011.5 1247 c 128,-1,30
 1117 1154 1117 1154 1117 1014 c 0,31,32
 1117 799 1117 799 902 711 c 1,33,34
 991 672 991 672 1042 594 c 128,-1,35
 1093 516 1093 516 1093 408 c 0,36,37
 1093 223 1093 223 976.5 103 c 128,-1,38
 860 -17 860 -17 630 -17 c 0,0,1
EndSplineSet
EndChar

StartChar: florin
Encoding: 402 402 198
Width: 1200
Flags: W
LayerCount: 2
Fore
SplineSet
241 -385 m 0,0,1
 176 -385 176 -385 118 -371.5 c 128,-1,2
 60 -358 60 -358 13 -339 c 1,3,-1
 89 -141 l 1,4,5
 115 -148 115 -148 139.5 -154 c 128,-1,6
 164 -160 164 -160 194 -160 c 0,7,8
 251 -160 251 -160 280.5 -131.5 c 128,-1,9
 310 -103 310 -103 323 -40 c 2,10,-1
 493 753 l 1,11,-1
 335 753 l 1,12,-1
 381 980 l 1,13,-1
 541 980 l 1,14,-1
 545 997 l 2,15,16
 582 1170 582 1170 687.5 1263 c 128,-1,17
 793 1356 793 1356 950 1356 c 0,18,19
 1015 1356 1015 1356 1072.5 1343 c 128,-1,20
 1130 1330 1130 1330 1175 1311 c 1,21,-1
 1094 1096 l 1,22,23
 1069 1105 1069 1105 1043 1110 c 128,-1,24
 1017 1115 1017 1115 982 1115 c 0,25,26
 860 1115 860 1115 832 986 c 1,27,-1
 831 980 l 1,28,-1
 1061 980 l 1,29,-1
 1015 753 l 1,30,-1
 783 753 l 1,31,-1
 611 -59 l 2,32,33
 576 -226 576 -226 489.5 -305.5 c 128,-1,34
 403 -385 403 -385 241 -385 c 0,0,1
EndSplineSet
EndChar

StartChar: Eth
Encoding: 208 208 199
Width: 1398
Flags: W
LayerCount: 2
Fore
SplineSet
68 0 m 1,0,-1
 186 558 l 1,1,-1
 40 558 l 1,2,-1
 92 802 l 1,3,-1
 238 802 l 1,4,-1
 349 1324 l 1,5,-1
 770 1324 l 2,6,7
 948 1324 948 1324 1075.5 1255 c 128,-1,8
 1203 1186 1203 1186 1272 1061 c 128,-1,9
 1341 936 1341 936 1341 767 c 0,10,11
 1341 542 1341 542 1246.5 369 c 128,-1,12
 1152 196 1152 196 971 98 c 128,-1,13
 790 0 790 0 531 0 c 2,14,-1
 68 0 l 1,0,-1
721 558 m 1,15,-1
 495 558 l 1,16,-1
 431 260 l 1,17,-1
 560 260 l 2,18,19
 790 260 790 260 914 398.5 c 128,-1,20
 1038 537 1038 537 1038 763 c 0,21,22
 1038 896 1038 896 962 980.5 c 128,-1,23
 886 1065 886 1065 736 1065 c 2,24,-1
 602 1065 l 1,25,-1
 546 802 l 1,26,-1
 773 802 l 1,27,-1
 721 558 l 1,15,-1
EndSplineSet
EndChar

StartChar: Hbar
Encoding: 294 294 201
Width: 1463
Flags: W
LayerCount: 2
Fore
SplineSet
60 0 m 1,0,-1
 269 983 l 1,1,-1
 129 983 l 1,2,-1
 168 1168 l 1,3,-1
 308 1168 l 1,4,-1
 341 1324 l 1,5,-1
 649 1324 l 1,6,-1
 616 1168 l 1,7,-1
 1137 1168 l 1,8,-1
 1170 1324 l 1,9,-1
 1478 1324 l 1,10,-1
 1445 1168 l 1,11,-1
 1585 1168 l 1,12,-1
 1546 983 l 1,13,-1
 1406 983 l 1,14,-1
 1197 0 l 1,15,-1
 889 0 l 1,16,-1
 1005 546 l 1,17,-1
 484 546 l 1,18,-1
 368 0 l 1,19,-1
 60 0 l 1,0,-1
542 822 m 1,20,-1
 1063 822 l 1,21,-1
 1098 983 l 1,22,-1
 577 983 l 1,23,-1
 542 822 l 1,20,-1
EndSplineSet
EndChar

StartChar: Tbar
Encoding: 358 358 202
Width: 1063
Flags: W
LayerCount: 2
Fore
SplineSet
275 0 m 1,0,-1
 376 474 l 1,1,-1
 136 474 l 1,2,-1
 188 718 l 1,3,-1
 428 718 l 1,4,-1
 500 1058 l 1,5,-1
 112 1058 l 1,6,-1
 169 1324 l 1,7,-1
 1252 1324 l 1,8,-1
 1195 1058 l 1,9,-1
 807 1058 l 1,10,-1
 735 718 l 1,11,-1
 974 718 l 1,12,-1
 922 474 l 1,13,-1
 683 474 l 1,14,-1
 582 0 l 1,15,-1
 275 0 l 1,0,-1
EndSplineSet
EndChar

StartChar: Lslash
Encoding: 321 321 203
Width: 1027
Flags: W
LayerCount: 2
Fore
SplineSet
66 0 m 1,0,-1
 158 433 l 1,1,-1
 -32 331 l 1,2,-1
 24 594 l 1,3,-1
 214 696 l 1,4,-1
 347 1324 l 1,5,-1
 655 1324 l 1,6,-1
 558 870 l 1,7,-1
 909 1059 l 1,8,-1
 852 794 l 1,9,-1
 502 605 l 1,10,-1
 430 267 l 1,11,-1
 948 267 l 1,12,-1
 860 0 l 1,13,-1
 66 0 l 1,0,-1
EndSplineSet
EndChar

StartChar: Oslash
Encoding: 216 216 204
Width: 1495
Flags: W
LayerCount: 2
Fore
SplineSet
202 -96 m 1,0,-1
 85 3 l 1,1,-1
 239 174 l 1,2,3
 157 287 157 287 136 437.5 c 128,-1,4
 115 588 115 588 148 743 c 0,5,6
 185 916 185 916 282.5 1055.5 c 128,-1,7
 380 1195 380 1195 529.5 1276.5 c 128,-1,8
 679 1358 679 1358 871 1358 c 0,9,10
 981 1358 981 1358 1068 1331.5 c 128,-1,11
 1155 1305 1155 1305 1221 1259 c 1,12,-1
 1367 1420 l 1,13,-1
 1484 1321 l 1,14,-1
 1330 1151 l 1,15,16
 1412 1037 1412 1037 1432.5 885.5 c 128,-1,17
 1453 734 1453 734 1420 579 c 0,18,19
 1384 406 1384 406 1286.5 267 c 128,-1,20
 1189 128 1189 128 1040 47 c 128,-1,21
 891 -34 891 -34 700 -34 c 0,22,23
 590 -34 590 -34 502.5 -7.5 c 128,-1,24
 415 19 415 19 348 66 c 1,25,-1
 202 -96 l 1,0,-1
450 714 m 0,26,27
 434 640 434 640 433 560 c 128,-1,28
 432 480 432 480 453 410 c 1,29,-1
 1031 1049 l 1,30,31
 999 1076 999 1076 955.5 1091 c 128,-1,32
 912 1106 912 1106 855 1106 c 0,33,34
 747 1106 747 1106 664.5 1054 c 128,-1,35
 582 1002 582 1002 528 913 c 128,-1,36
 474 824 474 824 450 714 c 0,26,27
714 218 m 0,37,38
 822 218 822 218 904.5 270 c 128,-1,39
 987 322 987 322 1041.5 411 c 128,-1,40
 1096 500 1096 500 1120 610 c 0,41,42
 1136 685 1136 685 1137 765 c 128,-1,43
 1138 845 1138 845 1116 914 c 1,44,-1
 538 275 l 1,45,46
 570 248 570 248 613.5 233 c 128,-1,47
 657 218 657 218 714 218 c 0,37,38
EndSplineSet
EndChar

StartChar: eth
Encoding: 240 240 205
Width: 1159
Flags: W
LayerCount: 2
Fore
SplineSet
521 -30 m 0,0,1
 392 -30 392 -30 301.5 15.5 c 128,-1,2
 211 61 211 61 158.5 137.5 c 128,-1,3
 106 214 106 214 90 308 c 128,-1,4
 74 402 74 402 94 498 c 0,5,6
 117 606 117 606 176.5 699 c 128,-1,7
 236 792 236 792 329 849 c 128,-1,8
 422 906 422 906 543 906 c 0,9,10
 713 906 713 906 804 809 c 1,11,12
 784 988 784 988 661 1080 c 1,13,-1
 512 969 l 1,14,-1
 434 1065 l 1,15,-1
 538 1142 l 1,16,17
 467 1165 467 1165 380 1169 c 1,18,-1
 426 1379 l 1,19,20
 519 1374 519 1374 598.5 1352.5 c 128,-1,21
 678 1331 678 1331 744 1296 c 1,22,-1
 936 1440 l 1,23,-1
 1014 1344 l 1,24,-1
 852 1223 l 1,25,26
 1003 1095 1003 1095 1050.5 890 c 128,-1,27
 1098 685 1098 685 1051 456 c 0,28,29
 1022 317 1022 317 959 207 c 128,-1,30
 896 97 896 97 789 33.5 c 128,-1,31
 682 -30 682 -30 521 -30 c 0,0,1
542 195 m 0,32,33
 612 195 612 195 656.5 226.5 c 128,-1,34
 701 258 701 258 727 307.5 c 128,-1,35
 753 357 753 357 764 411 c 0,36,37
 777 471 777 471 770.5 533.5 c 128,-1,38
 764 596 764 596 727 638.5 c 128,-1,39
 690 681 690 681 611 681 c 0,40,41
 542 681 542 681 497 649.5 c 128,-1,42
 452 618 452 618 426.5 569 c 128,-1,43
 401 520 401 520 389 465 c 0,44,45
 376 406 376 406 382.5 343 c 128,-1,46
 389 280 389 280 426.5 237.5 c 128,-1,47
 464 195 464 195 542 195 c 0,32,33
EndSplineSet
EndChar

StartChar: dcroat
Encoding: 273 273 206
Width: 1224
Flags: W
LayerCount: 2
Fore
SplineSet
413 -30 m 0,0,1
 305 -30 305 -30 234 17.5 c 128,-1,2
 163 65 163 65 125.5 144 c 128,-1,3
 88 223 88 223 81.5 319.5 c 128,-1,4
 75 416 75 416 96 515 c 0,5,6
 121 631 121 631 187.5 730 c 128,-1,7
 254 829 254 829 353 889.5 c 128,-1,8
 452 950 452 950 575 950 c 0,9,10
 668 950 668 950 742.5 913 c 128,-1,11
 817 876 817 876 865 798 c 1,12,-1
 918 1044 l 1,13,-1
 646 1044 l 1,14,-1
 682 1213 l 1,15,-1
 953 1213 l 1,16,-1
 977 1324 l 1,17,-1
 1268 1324 l 1,18,-1
 1244 1213 l 1,19,-1
 1361 1213 l 1,20,-1
 1325 1044 l 1,21,-1
 1208 1044 l 1,22,-1
 985 0 l 1,23,-1
 699 0 l 1,24,-1
 726 122 l 1,25,26
 665 49 665 49 586.5 9.5 c 128,-1,27
 508 -30 508 -30 413 -30 c 0,0,1
530 206 m 0,28,29
 628 206 628 206 697.5 277.5 c 128,-1,30
 767 349 767 349 789 449 c 2,31,-1
 791 458 l 2,32,33
 814 569 814 569 774.5 643 c 128,-1,34
 735 717 735 717 626 717 c 0,35,36
 563 717 563 717 513 684 c 128,-1,37
 463 651 463 651 429.5 598.5 c 128,-1,38
 396 546 396 546 384 489 c 0,39,40
 370 422 370 422 377.5 357 c 128,-1,41
 385 292 385 292 421.5 249 c 128,-1,42
 458 206 458 206 530 206 c 0,28,29
EndSplineSet
EndChar

StartChar: hbar
Encoding: 295 295 207
Width: 1175
Flags: W
LayerCount: 2
Fore
SplineSet
30 0 m 1,0,-1
 252 1044 l 1,1,-1
 135 1044 l 1,2,-1
 171 1213 l 1,3,-1
 288 1213 l 1,4,-1
 312 1324 l 1,5,-1
 604 1324 l 1,6,-1
 580 1213 l 1,7,-1
 850 1213 l 1,8,-1
 814 1044 l 1,9,-1
 544 1044 l 1,10,-1
 498 825 l 1,11,12
 562 890 562 890 637 920.5 c 128,-1,13
 712 951 712 951 787 951 c 0,14,15
 951 951 951 951 1023 839.5 c 128,-1,16
 1095 728 1095 728 1059 558 c 2,17,-1
 941 0 l 1,18,-1
 649 0 l 1,19,-1
 760 521 l 2,20,21
 778 607 778 607 757.5 658 c 128,-1,22
 737 709 737 709 666 709 c 0,23,24
 579 709 579 709 513 651 c 0,25,26
 449 594 449 594 429 504 c 2,27,-1
 322 0 l 1,28,-1
 30 0 l 1,0,-1
EndSplineSet
EndChar

StartChar: tbar
Encoding: 359 359 208
Width: 823
Flags: W
LayerCount: 2
Fore
SplineSet
14 432 m 1,0,-1
 51 606 l 1,1,-1
 211 606 l 1,2,-1
 243 753 l 1,3,-1
 84 753 l 1,4,-1
 131 980 l 1,5,-1
 291 980 l 1,6,-1
 347 1242 l 1,7,-1
 637 1242 l 1,8,-1
 581 980 l 1,9,-1
 818 980 l 1,10,-1
 770 753 l 1,11,-1
 533 753 l 1,12,-1
 502 606 l 1,13,-1
 738 606 l 1,14,-1
 701 432 l 1,15,-1
 464 432 l 1,16,-1
 447 350 l 2,17,18
 434 285 434 285 452.5 251 c 128,-1,19
 471 217 471 217 537 217 c 0,20,21
 568 217 568 217 592.5 221.5 c 128,-1,22
 617 226 617 226 644 234 c 1,23,-1
 680 17 l 1,24,25
 634 1 634 1 574 -9 c 128,-1,26
 514 -19 514 -19 450 -19 c 0,27,28
 272 -19 272 -19 194.5 73.5 c 128,-1,29
 117 166 117 166 154 337 c 2,30,-1
 174 432 l 1,31,-1
 14 432 l 1,0,-1
EndSplineSet
EndChar

StartChar: lslash
Encoding: 322 322 209
Width: 607
Flags: W
LayerCount: 2
Fore
SplineSet
54 0 m 1,0,-1
 166 525 l 1,1,-1
 -23 427 l 1,2,-1
 29 671 l 1,3,-1
 218 769 l 1,4,-1
 336 1324 l 1,5,-1
 628 1324 l 1,6,-1
 542 922 l 1,7,-1
 731 1020 l 1,8,-1
 679 776 l 1,9,-1
 490 678 l 1,10,-1
 346 0 l 1,11,-1
 54 0 l 1,0,-1
EndSplineSet
EndChar

StartChar: oslash
Encoding: 248 248 210
Width: 1178
Flags: W
LayerCount: 2
Fore
SplineSet
157 -95 m 1,0,-1
 52 -2 l 1,1,-1
 168 128 l 1,2,3
 106 210 106 210 88.5 323 c 128,-1,4
 71 436 71 436 103 563 c 0,5,6
 156 776 156 776 306 893.5 c 128,-1,7
 456 1011 456 1011 653 1011 c 0,8,9
 727 1011 727 1011 790 994.5 c 128,-1,10
 853 978 853 978 903 947 c 1,11,-1
 1019 1076 l 1,12,-1
 1124 983 l 1,13,-1
 1007 853 l 1,14,15
 1070 771 1070 771 1087.5 657.5 c 128,-1,16
 1105 544 1105 544 1073 417 c 0,17,18
 1020 204 1020 204 870 87 c 128,-1,19
 720 -30 720 -30 523 -30 c 0,20,21
 449 -30 449 -30 386 -13.5 c 128,-1,22
 323 3 323 3 273 34 c 1,23,-1
 157 -95 l 1,0,-1
378 534 m 0,24,25
 353 433 353 433 366 348 c 1,26,-1
 740 765 l 1,27,28
 699 798 699 798 638 798 c 0,29,30
 543 798 543 798 475 725.5 c 128,-1,31
 407 653 407 653 378 534 c 0,24,25
538 183 m 0,32,33
 633 183 633 183 701 255.5 c 128,-1,34
 769 328 769 328 798 446 c 0,35,36
 824 547 824 547 810 633 c 1,37,-1
 435 215 l 1,38,39
 477 183 477 183 538 183 c 0,32,33
EndSplineSet
EndChar

StartChar: uni0327
Encoding: 807 807 211
Width: 0
GlyphClass: 4
Flags: W
AnchorPoint: "Anchor-0" -166 -56 mark 0
LayerCount: 2
Fore
SplineSet
-249 -410 m 0,0,1
 -281 -410 -281 -410 -317 -406 c 128,-1,2
 -353 -402 -353 -402 -394 -397 c 1,3,-1
 -366 -267 l 1,4,5
 -330 -272 -330 -272 -303.5 -274 c 128,-1,6
 -277 -276 -277 -276 -252 -276 c 0,7,8
 -149 -276 -149 -276 -149 -224 c 0,9,10
 -149 -200 -149 -200 -174 -187 c 128,-1,11
 -199 -174 -199 -174 -260 -174 c 2,12,-1
 -312 -174 l 1,13,-1
 -197 26 l 1,14,-1
 -62 0 l 1,15,-1
 -112 -88 l 1,16,17
 -39 -99 -39 -99 1 -135.5 c 128,-1,18
 41 -172 41 -172 41 -228 c 0,19,20
 41 -323 41 -323 -38 -366.5 c 128,-1,21
 -117 -410 -117 -410 -249 -410 c 0,0,1
EndSplineSet
EndChar

StartChar: uni0327.cap
Encoding: 65552 -1 212
Width: 0
GlyphClass: 4
Flags: W
AnchorPoint: "Anchor-1" -166 -56 mark 0
LayerCount: 2
Fore
SplineSet
-261 -426 m 0,0,1
 -294 -426 -294 -426 -331.5 -422.5 c 128,-1,2
 -369 -419 -369 -419 -408 -414 c 1,3,-1
 -380 -282 l 1,4,5
 -342 -286 -342 -286 -316.5 -289 c 128,-1,6
 -291 -292 -291 -292 -266 -292 c 0,7,8
 -158 -292 -158 -292 -158 -234 c 0,9,10
 -158 -207 -158 -207 -184.5 -194 c 128,-1,11
 -211 -181 -211 -181 -273 -181 c 2,12,-1
 -324 -181 l 1,13,-1
 -212 14 l 1,14,-1
 -70 3 l 1,15,-1
 -122 -92 l 1,16,17
 40 -125 40 -125 40 -241 c 0,18,19
 40 -339 40 -339 -42 -382.5 c 128,-1,20
 -124 -426 -124 -426 -261 -426 c 0,0,1
EndSplineSet
EndChar

StartChar: uni0326
Encoding: 806 806 214
Width: 0
GlyphClass: 4
Flags: W
AnchorPoint: "Anchor-0" -107 -56 mark 0
LayerCount: 2
Fore
SplineSet
-485 -430 m 1,0,-1
 -270 -124 l 1,1,-1
 55 -124 l 1,2,-1
 -220 -430 l 1,3,-1
 -485 -430 l 1,0,-1
EndSplineSet
EndChar

StartChar: uni0326.cap
Encoding: 65553 -1 215
Width: 0
GlyphClass: 4
Flags: W
AnchorPoint: "Anchor-1" -100 -56 mark 0
LayerCount: 2
Fore
SplineSet
-473 -433 m 1,0,-1
 -251 -124 l 1,1,-1
 71 -124 l 1,2,-1
 -206 -433 l 1,3,-1
 -473 -433 l 1,0,-1
EndSplineSet
EndChar

StartChar: uni0312
Encoding: 786 786 216
Width: 0
GlyphClass: 4
Flags: W
AnchorPoint: "Anchor-2" 0 1031 mark 0
LayerCount: 2
Fore
SplineSet
-142 1100 m 1,0,-1
 130 1397 l 1,1,-1
 394 1397 l 1,2,-1
 181 1100 l 1,3,-1
 -142 1100 l 1,0,-1
EndSplineSet
EndChar

StartChar: uni0328
Encoding: 808 808 217
Width: 0
GlyphClass: 4
Flags: W
AnchorPoint: "Anchor-3" -120 -93 mark 0
LayerCount: 2
Fore
SplineSet
-119 -371 m 0,0,1
 -216 -371 -216 -371 -275 -332.5 c 128,-1,2
 -334 -294 -334 -294 -334 -222 c 0,3,4
 -334 -156 -334 -156 -290.5 -103.5 c 128,-1,5
 -247 -51 -247 -51 -144 4 c 1,6,-1
 58 0 l 1,7,8
 -23 -43 -23 -43 -63 -78 c 128,-1,9
 -103 -113 -103 -113 -103 -151 c 0,10,11
 -103 -203 -103 -203 -28 -203 c 0,12,13
 -17 -203 -17 -203 -5 -201.5 c 128,-1,14
 7 -200 7 -200 21 -199 c 1,15,-1
 -13 -360 l 1,16,17
 -66 -371 -66 -371 -119 -371 c 0,0,1
EndSplineSet
EndChar

StartChar: uni0328.cap
Encoding: 65554 -1 218
Width: 0
GlyphClass: 4
Flags: W
AnchorPoint: "Anchor-4" -120 -93 mark 0
LayerCount: 2
Fore
SplineSet
-155 -376 m 0,0,1
 -255 -376 -255 -376 -316 -337 c 128,-1,2
 -377 -298 -377 -298 -377 -225 c 0,3,4
 -377 -157 -377 -157 -331 -102.5 c 128,-1,5
 -285 -48 -285 -48 -179 4 c 1,6,-1
 29 0 l 1,7,8
 -51 -41 -51 -41 -95 -79 c 128,-1,9
 -139 -117 -139 -117 -139 -155 c 0,10,11
 -139 -206 -139 -206 -62 -206 c 0,12,13
 -51 -206 -51 -206 -37.5 -204.5 c 128,-1,14
 -24 -203 -24 -203 -9 -202 c 1,15,-1
 -45 -365 l 1,16,17
 -92 -376 -92 -376 -155 -376 c 0,0,1
EndSplineSet
EndChar

StartChar: uni0328.round
Encoding: 65555 -1 219
Width: 0
GlyphClass: 4
Flags: W
AnchorPoint: "Anchor-5" -118 -93 mark 0
LayerCount: 2
Fore
SplineSet
-155 -371 m 0,0,1
 -252 -371 -252 -371 -311 -332.5 c 128,-1,2
 -370 -294 -370 -294 -370 -222 c 0,3,4
 -370 -156 -370 -156 -326 -103 c 128,-1,5
 -282 -50 -282 -50 -182 4 c 1,6,-1
 21 0 l 1,7,8
 -59 -43 -59 -43 -99 -78.5 c 128,-1,9
 -139 -114 -139 -114 -139 -151 c 0,10,11
 -139 -203 -139 -203 -64 -203 c 0,12,13
 -53 -203 -53 -203 -41 -201.5 c 128,-1,14
 -29 -200 -29 -200 -15 -199 c 1,15,-1
 -49 -360 l 1,16,17
 -75 -365 -75 -365 -100.5 -368 c 128,-1,18
 -126 -371 -126 -371 -155 -371 c 0,0,1
EndSplineSet
EndChar

StartChar: uni0328.round.cap
Encoding: 65556 -1 220
Width: 0
GlyphClass: 4
Flags: W
AnchorPoint: "Anchor-6" -119 -93 mark 0
LayerCount: 2
Fore
SplineSet
-158 -371 m 0,0,1
 -258 -371 -258 -371 -317.5 -333 c 128,-1,2
 -377 -295 -377 -295 -377 -222 c 0,3,4
 -377 -157 -377 -157 -330.5 -102 c 128,-1,5
 -284 -47 -284 -47 -178 5 c 1,6,-1
 24 0 l 1,7,8
 -56 -41 -56 -41 -98.5 -77 c 128,-1,9
 -141 -113 -141 -113 -141 -150 c 0,10,11
 -141 -204 -141 -204 -65 -204 c 0,12,13
 -55 -204 -55 -204 -41 -202.5 c 128,-1,14
 -27 -201 -27 -201 -13 -200 c 1,15,-1
 -49 -362 l 1,16,17
 -98 -371 -98 -371 -158 -371 c 0,0,1
EndSplineSet
EndChar

StartChar: acutecomb
Encoding: 769 769 250
Width: 0
GlyphClass: 4
Flags: W
AnchorPoint: "Anchor-2" 1 1031 mark 0
LayerCount: 2
Fore
SplineSet
-174 1101 m 1,0,-1
 114 1398 l 1,1,-1
 445 1398 l 1,2,-1
 100 1101 l 1,3,-1
 -174 1101 l 1,0,-1
EndSplineSet
EndChar

StartChar: acutecomb.cap
Encoding: 65557 -1 251
Width: 0
GlyphClass: 4
Flags: W
AnchorPoint: "Anchor-7" 29 1350 mark 0
LayerCount: 2
Fore
SplineSet
-147 1448 m 1,0,-1
 144 1730 l 1,1,-1
 485 1730 l 1,2,-1
 135 1448 l 1,3,-1
 -147 1448 l 1,0,-1
EndSplineSet
EndChar

StartChar: uni030B
Encoding: 779 779 253
Width: 0
GlyphClass: 4
Flags: W
AnchorPoint: "Anchor-2" 3 1031 mark 0
LayerCount: 2
Fore
SplineSet
-336 1101 m 1,0,-1
 -66 1398 l 1,1,-1
 223 1398 l 1,2,-1
 -98 1101 l 1,3,-1
 -336 1101 l 1,0,-1
74 1101 m 1,4,-1
 342 1398 l 1,5,-1
 631 1398 l 1,6,-1
 311 1101 l 1,7,-1
 74 1101 l 1,4,-1
EndSplineSet
EndChar

StartChar: uni030B.cap
Encoding: 65558 -1 254
Width: 0
GlyphClass: 4
Flags: W
AnchorPoint: "Anchor-7" 32 1350 mark 0
LayerCount: 2
Fore
SplineSet
-324 1448 m 1,0,-1
 -58 1730 l 1,1,-1
 236 1730 l 1,2,-1
 -81 1448 l 1,3,-1
 -324 1448 l 1,0,-1
92 1448 m 1,4,-1
 358 1730 l 1,5,-1
 651 1730 l 1,6,-1
 334 1448 l 1,7,-1
 92 1448 l 1,4,-1
EndSplineSet
EndChar

StartChar: gravecomb
Encoding: 768 768 286
Width: 0
GlyphClass: 4
Flags: W
AnchorPoint: "Anchor-2" 3 1031 mark 0
LayerCount: 2
Fore
SplineSet
-57 1101 m 1,0,-1
 -290 1398 l 1,1,-1
 15 1398 l 1,2,-1
 189 1101 l 1,3,-1
 -57 1101 l 1,0,-1
EndSplineSet
EndChar

StartChar: gravecomb.cap
Encoding: 65559 -1 287
Width: 0
GlyphClass: 4
Flags: W
AnchorPoint: "Anchor-7" 33 1350 mark 0
LayerCount: 2
Fore
SplineSet
-17 1448 m 1,0,-1
 -257 1730 l 1,1,-1
 57 1730 l 1,2,-1
 236 1448 l 1,3,-1
 -17 1448 l 1,0,-1
EndSplineSet
EndChar

StartChar: uni0302
Encoding: 770 770 304
Width: 0
GlyphClass: 4
Flags: W
AnchorPoint: "Anchor-2" 67 1031 mark 0
LayerCount: 2
Fore
SplineSet
-273 1101 m 1,0,-1
 22 1398 l 1,1,-1
 277 1398 l 1,2,-1
 452 1101 l 1,3,-1
 224 1101 l 1,4,-1
 133 1257 l 1,5,-1
 -26 1101 l 1,6,-1
 -273 1101 l 1,0,-1
EndSplineSet
EndChar

StartChar: uni0302.cap
Encoding: 65560 -1 305
Width: 0
GlyphClass: 4
Flags: W
AnchorPoint: "Anchor-7" 134 1350 mark 0
LayerCount: 2
Fore
SplineSet
-211 1448 m 1,0,-1
 83 1730 l 1,1,-1
 354 1730 l 1,2,-1
 529 1448 l 1,3,-1
 292 1448 l 1,4,-1
 201 1592 l 1,5,-1
 44 1448 l 1,6,-1
 -211 1448 l 1,0,-1
EndSplineSet
EndChar

StartChar: tildecomb
Encoding: 771 771 307
Width: 0
GlyphClass: 4
Flags: W
AnchorPoint: "Anchor-2" -15 1031 mark 0
LayerCount: 2
Fore
SplineSet
163 1113 m 0,0,1
 123 1113 123 1113 90 1123.5 c 128,-1,2
 57 1134 57 1134 19 1156 c 0,3,4
 -15 1176 -15 1176 -39 1187.5 c 128,-1,5
 -63 1199 -63 1199 -86 1199 c 0,6,7
 -164 1199 -164 1199 -178 1108 c 1,8,-1
 -359 1108 l 1,9,10
 -342 1241 -342 1241 -276.5 1312.5 c 128,-1,11
 -211 1384 -211 1384 -103 1384 c 0,12,13
 -63 1384 -63 1384 -30 1373.5 c 128,-1,14
 3 1363 3 1363 41 1341 c 0,15,16
 76 1321 76 1321 100 1309.5 c 128,-1,17
 124 1298 124 1298 146 1298 c 0,18,19
 224 1298 224 1298 238 1389 c 1,20,-1
 419 1389 l 1,21,22
 403 1256 403 1256 337 1184.5 c 128,-1,23
 271 1113 271 1113 163 1113 c 0,0,1
EndSplineSet
EndChar

StartChar: tildecomb.cap
Encoding: 65561 -1 308
Width: 0
GlyphClass: 4
Flags: W
AnchorPoint: "Anchor-7" 17 1350 mark 0
LayerCount: 2
Fore
SplineSet
201 1452 m 0,0,1
 161 1452 161 1452 126.5 1462.5 c 128,-1,2
 92 1473 92 1473 57 1493 c 256,3,4
 22 1513 22 1513 -3.5 1524 c 128,-1,5
 -29 1535 -29 1535 -55 1535 c 0,6,7
 -131 1535 -131 1535 -147 1447 c 1,8,-1
 -334 1447 l 1,9,10
 -317 1581 -317 1581 -249.5 1652.5 c 128,-1,11
 -182 1724 -182 1724 -73 1724 c 0,12,13
 -33 1724 -33 1724 1.5 1713.5 c 128,-1,14
 36 1703 36 1703 71 1683 c 256,15,16
 106 1663 106 1663 132 1652 c 128,-1,17
 158 1641 158 1641 183 1641 c 0,18,19
 259 1641 259 1641 275 1729 c 1,20,-1
 462 1729 l 1,21,22
 445 1596 445 1596 378 1524 c 128,-1,23
 311 1452 311 1452 201 1452 c 0,0,1
EndSplineSet
EndChar

StartChar: uni030C
Encoding: 780 780 344
Width: 0
GlyphClass: 4
Flags: W
AnchorPoint: "Anchor-2" 57 1031 mark 0
LayerCount: 2
Fore
SplineSet
-44 1103 m 1,0,-1
 -219 1400 l 1,1,-1
 9 1400 l 1,2,-1
 100 1244 l 1,3,-1
 259 1400 l 1,4,-1
 506 1400 l 1,5,-1
 211 1103 l 1,6,-1
 -44 1103 l 1,0,-1
EndSplineSet
EndChar

StartChar: uni030C.cap
Encoding: 65562 -1 345
Width: 0
GlyphClass: 4
Flags: W
AnchorPoint: "Anchor-7" 123 1350 mark 0
LayerCount: 2
Fore
SplineSet
17 1452 m 1,0,-1
 -161 1733 l 1,1,-1
 76 1733 l 1,2,-1
 169 1589 l 1,3,-1
 326 1733 l 1,4,-1
 581 1733 l 1,5,-1
 288 1452 l 1,6,-1
 17 1452 l 1,0,-1
EndSplineSet
EndChar

StartChar: uni0315
Encoding: 789 789 347
Width: 0
GlyphClass: 4
Flags: W
AnchorPoint: "Anchor-8" -43 662 mark 0
LayerCount: 2
Fore
SplineSet
-78 910 m 1,0,-1
 43 1324 l 1,1,-1
 293 1324 l 1,2,-1
 86 910 l 1,3,-1
 -78 910 l 1,0,-1
EndSplineSet
EndChar

StartChar: uni0315.short
Encoding: 65563 -1 348
Width: 0
GlyphClass: 4
Flags: W
AnchorPoint: "Anchor-9" 10 975 mark 0
LayerCount: 2
Fore
SplineSet
-77 1082 m 1,0,-1
 34 1414 l 1,1,-1
 265 1414 l 1,2,-1
 104 1082 l 1,3,-1
 -77 1082 l 1,0,-1
EndSplineSet
EndChar

StartChar: uni0304
Encoding: 772 772 349
Width: 0
GlyphClass: 4
Flags: W
AnchorPoint: "Anchor-2" 3 1031 mark 0
LayerCount: 2
Fore
SplineSet
-264 1128 m 1,0,-1
 -219 1338 l 1,1,-1
 347 1338 l 1,2,-1
 302 1128 l 1,3,-1
 -264 1128 l 1,0,-1
EndSplineSet
EndChar

StartChar: uni0304.cap
Encoding: 65564 -1 350
Width: 0
GlyphClass: 4
Flags: W
AnchorPoint: "Anchor-7" 31 1350 mark 0
LayerCount: 2
Fore
SplineSet
-238 1474 m 1,0,-1
 -192 1689 l 1,1,-1
 412 1689 l 1,2,-1
 366 1474 l 1,3,-1
 -238 1474 l 1,0,-1
EndSplineSet
EndChar

StartChar: uni0308
Encoding: 776 776 381
Width: 0
GlyphClass: 4
Flags: W
AnchorPoint: "Anchor-2" 1 1031 mark 0
LayerCount: 2
Fore
SplineSet
-298 1127 m 1,0,-1
 -254 1353 l 1,1,-1
 2 1353 l 1,2,-1
 -44 1127 l 1,3,-1
 -298 1127 l 1,0,-1
91 1127 m 1,4,-1
 135 1353 l 1,5,-1
 391 1353 l 1,6,-1
 345 1127 l 1,7,-1
 91 1127 l 1,4,-1
EndSplineSet
EndChar

StartChar: uni0308.cap
Encoding: 65565 -1 382
Width: 0
GlyphClass: 4
Flags: W
AnchorPoint: "Anchor-7" 32 1350 mark 0
LayerCount: 2
Fore
SplineSet
-278 1463 m 1,0,-1
 -225 1709 l 1,1,-1
 41 1709 l 1,2,-1
 -12 1463 l 1,3,-1
 -278 1463 l 1,0,-1
125 1463 m 1,4,-1
 178 1709 l 1,5,-1
 444 1709 l 1,6,-1
 391 1463 l 1,7,-1
 125 1463 l 1,4,-1
EndSplineSet
EndChar

StartChar: uni0306
Encoding: 774 774 384
Width: 0
GlyphClass: 4
Flags: W
AnchorPoint: "Anchor-2" 59 1031 mark 0
LayerCount: 2
Fore
SplineSet
84 1098 m 0,0,1
 -65 1098 -65 1098 -143.5 1179.5 c 128,-1,2
 -222 1261 -222 1261 -197 1395 c 1,3,-1
 0 1395 l 1,4,5
 -12 1337 -12 1337 14 1303 c 128,-1,6
 40 1269 40 1269 93 1269 c 0,7,8
 147 1269 147 1269 183 1297 c 128,-1,9
 219 1325 219 1325 232 1395 c 1,10,-1
 431 1395 l 1,11,12
 383 1098 383 1098 84 1098 c 0,0,1
EndSplineSet
EndChar

StartChar: uni0306.cap
Encoding: 65566 -1 385
Width: 0
GlyphClass: 4
Flags: W
AnchorPoint: "Anchor-7" 122 1350 mark 0
LayerCount: 2
Fore
SplineSet
140 1442 m 0,0,1
 47 1442 47 1442 -21 1478.5 c 128,-1,2
 -89 1515 -89 1515 -119.5 1581 c 128,-1,3
 -150 1647 -150 1647 -131 1733 c 1,4,-1
 71 1733 l 1,5,6
 58 1681 58 1681 82 1648 c 128,-1,7
 106 1615 106 1615 165 1615 c 0,8,9
 219 1615 219 1615 254.5 1642 c 128,-1,10
 290 1669 290 1669 302 1733 c 1,11,-1
 505 1733 l 1,12,13
 457 1442 457 1442 140 1442 c 0,0,1
EndSplineSet
EndChar

StartChar: uni0307
Encoding: 775 775 413
Width: 0
GlyphClass: 4
Flags: W
AnchorPoint: "Anchor-2" 1 1031 mark 0
LayerCount: 2
Fore
SplineSet
-118 1126 m 1,0,-1
 -69 1355 l 1,1,-1
 216 1355 l 1,2,-1
 167 1126 l 1,3,-1
 -118 1126 l 1,0,-1
EndSplineSet
EndChar

StartChar: uni0307.cap
Encoding: 65567 -1 414
Width: 0
GlyphClass: 4
Flags: W
AnchorPoint: "Anchor-7" 29 1350 mark 0
LayerCount: 2
Fore
SplineSet
-86 1462 m 1,0,-1
 -33 1711 l 1,1,-1
 257 1711 l 1,2,-1
 208 1462 l 1,3,-1
 -86 1462 l 1,0,-1
EndSplineSet
EndChar

StartChar: uni030A
Encoding: 778 778 425
Width: 0
GlyphClass: 4
Flags: W
AnchorPoint: "Anchor-2" 3 1031 mark 0
LayerCount: 2
Fore
SplineSet
28 1088 m 0,0,1
 -66 1088 -66 1088 -130.5 1145 c 128,-1,2
 -195 1202 -195 1202 -195 1303 c 256,3,4
 -195 1404 -195 1404 -131.5 1461 c 128,-1,5
 -68 1518 -68 1518 26 1518 c 0,6,7
 123 1518 123 1518 188.5 1460.5 c 128,-1,8
 254 1403 254 1403 254 1301 c 0,9,10
 254 1201 254 1201 189.5 1144.5 c 128,-1,11
 125 1088 125 1088 28 1088 c 0,0,1
27 1217 m 0,12,13
 110 1217 110 1217 110 1301 c 0,14,15
 110 1386 110 1386 27 1386 c 0,16,17
 -52 1386 -52 1386 -52 1302 c 0,18,19
 -52 1217 -52 1217 27 1217 c 0,12,13
EndSplineSet
EndChar

StartChar: uni030A.cap
Encoding: 65568 -1 426
Width: 0
GlyphClass: 4
Flags: W
AnchorPoint: "Anchor-7" 35 1350 mark 0
LayerCount: 2
Fore
SplineSet
68 1383 m 256,0,1
 -32 1383 -32 1383 -98 1443 c 128,-1,2
 -164 1503 -164 1503 -164 1609 c 0,3,4
 -164 1714 -164 1714 -98.5 1772 c 128,-1,5
 -33 1830 -33 1830 67 1830 c 256,6,7
 167 1830 167 1830 235 1772 c 128,-1,8
 303 1714 303 1714 303 1607 c 0,9,10
 303 1501 303 1501 235.5 1442 c 128,-1,11
 168 1383 168 1383 68 1383 c 256,0,1
68 1521 m 0,12,13
 155 1521 155 1521 155 1608 c 0,14,15
 155 1696 155 1696 67 1696 c 0,16,17
 -15 1696 -15 1696 -15 1608 c 0,18,19
 -15 1521 -15 1521 68 1521 c 0,12,13
EndSplineSet
EndChar

StartChar: uni0394
Encoding: 916 916 432
Width: 1337
Flags: W
LayerCount: 2
Fore
SplineSet
-83 0 m 1,0,-1
 676 1340 l 1,1,-1
 1023 1340 l 1,2,-1
 1210 0 l 1,3,-1
 -83 0 l 1,0,-1
345 245 m 1,4,-1
 890 245 l 1,5,-1
 795 1073 l 1,6,-1
 345 245 l 1,4,-1
EndSplineSet
EndChar

StartChar: uni03A9
Encoding: 937 937 433
Width: 1489
Flags: W
LayerCount: 2
Fore
SplineSet
-24 0 m 1,0,-1
 24 236 l 1,1,-1
 278 236 l 1,2,3
 178 340 178 340 150.5 486 c 128,-1,4
 123 632 123 632 155 780 c 0,5,6
 190 941 190 941 287 1072 c 128,-1,7
 384 1203 384 1203 533 1280.5 c 128,-1,8
 682 1358 682 1358 872 1358 c 0,9,10
 1068 1358 1068 1358 1200.5 1269 c 128,-1,11
 1333 1180 1333 1180 1387 1025.5 c 128,-1,12
 1441 871 1441 871 1399 675 c 0,13,14
 1368 529 1368 529 1287 419.5 c 128,-1,15
 1206 310 1206 310 1098 236 c 1,16,-1
 1357 236 l 1,17,-1
 1280 0 l 1,18,-1
 733 0 l 1,19,-1
 777 229 l 1,20,21
 905 306 905 306 984.5 417.5 c 128,-1,22
 1064 529 1064 529 1091 656 c 0,23,24
 1117 779 1117 779 1104 881.5 c 128,-1,25
 1091 984 1091 984 1030.5 1046 c 128,-1,26
 970 1108 970 1108 853 1108 c 0,27,28
 741 1108 741 1108 659 1057.5 c 128,-1,29
 577 1007 577 1007 524.5 921 c 128,-1,30
 472 835 472 835 450 728 c 0,31,32
 420 585 420 585 446 451 c 128,-1,33
 472 317 472 317 574 229 c 1,34,-1
 527 0 l 1,35,-1
 -24 0 l 1,0,-1
EndSplineSet
EndChar

StartChar: uni03BC
Encoding: 956 956 434
Width: 1179
Flags: W
LayerCount: 2
Fore
SplineSet
-49 -363 m 1,0,-1
 239 980 l 1,1,-1
 531 980 l 1,2,-1
 407 399 l 2,3,4
 389 313 389 313 410 262 c 128,-1,5
 431 211 431 211 501 211 c 0,6,7
 574 211 574 211 646 266 c 0,8,9
 683 295 683 295 705 329.5 c 128,-1,10
 727 364 727 364 738 416 c 2,11,-1
 858 980 l 1,12,-1
 1150 980 l 1,13,-1
 941 0 l 1,14,-1
 657 0 l 1,15,-1
 679 100 l 1,16,17
 568 -30 568 -30 432 -30 c 0,18,19
 374 -30 374 -30 321 -4 c 1,20,-1
 243 -363 l 1,21,-1
 -49 -363 l 1,0,-1
EndSplineSet
EndChar

StartChar: pi
Encoding: 960 960 435
Width: 1228
Flags: W
LayerCount: 2
Fore
SplineSet
885 -31 m 0,0,1
 740 -31 740 -31 682 51 c 128,-1,2
 624 133 624 133 656 284 c 2,3,-1
 755 750 l 1,4,-1
 521 750 l 1,5,-1
 362 0 l 1,6,-1
 77 0 l 1,7,-1
 236 750 l 1,8,-1
 84 750 l 1,9,-1
 133 980 l 1,10,-1
 1247 980 l 1,11,-1
 1200 750 l 1,12,-1
 1039 750 l 1,13,-1
 945 308 l 2,14,15
 935 259 935 259 947 230.5 c 128,-1,16
 959 202 959 202 1004 202 c 0,17,18
 1033 202 1033 202 1063 210 c 1,19,-1
 1070 -4 l 1,20,21
 1033 -16 1033 -16 986 -23.5 c 128,-1,22
 939 -31 939 -31 885 -31 c 0,0,1
EndSplineSet
EndChar
